<svg width="238" height="50" viewBox="0 0 238 50" fill="none" xmlns="http://www.w3.org/2000/svg">
<path d="M57.8776 30.2305C55.243 40.8555 44.5497 47.3399 34.0113 44.6836C23.473 42.0274 17.0415 31.2461 19.6761 20.6211C22.3107 9.99614 33.004 3.51176 43.5423 6.16801C54.0807 8.82426 60.5121 19.6055 57.8776 30.2305Z" fill="#F7931A"/>
<path d="M47.4167 22.5742C47.8041 19.918 45.7895 18.5117 43.0774 17.5742L43.9297 13.9805L41.7601 13.4336L40.9077 16.9492C40.3653 16.793 39.7454 16.6367 39.203 16.5586L40.0554 13.043L37.8857 12.4961L37.0333 16.0898C36.5684 16.0117 36.1035 15.8555 35.6386 15.7774L32.694 14.9961L32.1516 17.3399C32.1516 17.3399 33.7789 17.7305 33.7014 17.7305C34.5537 17.9649 34.7087 18.5117 34.7087 18.9805L33.7014 23.043C33.7789 23.043 33.8563 23.043 33.9338 23.1211C33.8563 23.1211 33.7789 23.1211 33.7014 23.043L32.3066 28.7461C32.2291 28.9805 31.9192 29.4492 31.2993 29.293L29.7495 28.9023L28.6647 31.4024L31.4542 32.1055C31.9967 32.2617 32.4616 32.3398 33.004 32.4961L32.0741 36.0899L34.2438 36.6367L35.0961 33.043C35.716 33.1992 36.2585 33.3555 36.8009 33.5117L35.9485 37.1055L38.1182 37.6524L39.048 34.0586C42.7674 34.7617 45.4795 34.4492 46.6418 31.0898C47.5717 28.3555 46.5643 26.793 44.6272 25.7773C46.0994 25.4648 47.1842 24.5273 47.4167 22.5742ZM42.4575 29.5273C41.7601 32.2617 37.2658 30.7773 35.7935 30.3867L36.9558 25.6211C38.5056 26.0117 43.2324 26.7148 42.4575 29.5273ZM43.1549 22.5742C42.535 25.0742 38.8156 23.7461 37.5758 23.5117L38.6606 19.1367C39.9004 19.3711 43.7748 19.9961 43.1549 22.5742Z" fill="white"/>
<path d="M76.7846 17.5742C78.4118 17.5742 79.7291 17.8867 80.8914 18.4336C82.0537 18.9805 82.9836 19.7617 83.7585 20.7773C84.5334 21.7148 85.0758 22.8867 85.4632 24.2148C85.8506 25.543 86.0056 26.9492 86.0056 28.4336C86.0056 30.7773 85.6182 32.9648 84.7658 34.9961C83.9134 37.0273 82.7511 38.8242 81.2789 40.3867C79.8066 41.9492 78.1019 43.1211 76.0872 43.9805C74.0725 44.8398 71.9028 45.3086 69.5782 45.3086C69.2683 45.3086 68.7258 45.3086 68.0284 45.3086C67.2536 45.3086 66.4012 45.2305 65.4714 45.0742C64.5415 44.918 63.4567 44.7617 62.3719 44.4492C61.287 44.2148 60.2797 43.8242 59.2723 43.3555L67.8735 6.79297L75.6223 5.62109L72.5228 18.5898C73.2201 18.2773 73.84 18.043 74.5374 17.8867C75.3123 17.6523 76.0097 17.5742 76.7846 17.5742ZM70.2756 39.0586C71.4379 39.0586 72.5227 38.7461 73.5301 38.1992C74.5374 37.6523 75.4673 36.8711 76.1647 35.9336C76.9395 34.9961 77.482 33.9023 77.9469 32.6523C78.4118 31.4805 78.5668 30.1523 78.5668 28.9023C78.5668 27.2617 78.3343 26.0117 77.7919 25.1523C77.2495 24.2148 76.2422 23.8242 74.8474 23.8242C74.3825 23.8242 73.7625 23.9023 73.0652 24.0586C72.2903 24.2148 71.6704 24.6055 71.0505 25.1523L67.796 38.9023C68.0285 38.9023 68.1834 38.9805 68.3384 38.9805C68.4934 38.9805 68.6484 39.0586 68.8033 39.0586C68.9583 39.0586 69.1908 39.0586 69.4232 39.0586C69.6557 39.0586 69.9656 39.0586 70.2756 39.0586Z" fill="#4D4D4D"/>
<path d="M94.0643 44.5274H86.703L92.902 18.1211H100.341L94.0643 44.5274ZM97.6288 14.918C96.6214 14.918 95.6916 14.6055 94.8392 13.9805C93.9868 13.3555 93.5994 12.418 93.5994 11.168C93.5994 10.4648 93.7544 9.83984 93.9868 9.21484C94.2968 8.58984 94.6067 8.04299 95.1491 7.57424C95.6141 7.10549 96.1565 6.79297 96.7764 6.48047C97.3963 6.24609 98.0162 6.08984 98.7136 6.08984C99.7209 6.08984 100.651 6.40235 101.503 7.02735C102.356 7.65235 102.743 8.58986 102.743 9.83986C102.743 10.543 102.588 11.168 102.356 11.793C102.046 12.418 101.736 12.9649 101.271 13.4336C100.806 13.9024 100.263 14.2149 99.6434 14.5274C99.0235 14.7617 98.3262 14.918 97.6288 14.918Z" fill="#4D4D4D"/>
<path d="M106.772 11.5586L114.521 10.3867L112.662 18.1992H120.953L119.48 24.293H111.267L109.097 33.5117C108.865 34.293 108.787 34.9961 108.787 35.6992C108.787 36.4024 108.865 36.9492 109.02 37.418C109.252 37.8867 109.562 38.2773 110.104 38.5117C110.647 38.7461 111.344 38.9023 112.352 38.9023C113.126 38.9023 113.901 38.8242 114.676 38.668C115.451 38.5117 116.148 38.2774 116.923 38.043L117.466 43.7461C116.458 44.1367 115.374 44.4492 114.211 44.6836C113.049 44.918 111.654 45.0742 110.104 45.0742C107.78 45.0742 105.998 44.7617 104.758 44.0586C103.518 43.3555 102.588 42.418 102.046 41.2461C101.503 40.0742 101.271 38.668 101.348 37.1836C101.426 35.6211 101.658 33.9805 102.046 32.3398L106.772 11.5586Z" fill="#4D4D4D"/>
<path d="M120.565 33.9805C120.565 31.7148 120.953 29.5273 121.65 27.5742C122.347 25.543 123.432 23.8242 124.827 22.2617C126.222 20.7773 127.849 19.6055 129.786 18.668C131.723 17.8086 133.893 17.3398 136.295 17.3398C137.767 17.3398 139.162 17.4961 140.325 17.7305C141.487 18.043 142.572 18.3555 143.579 18.8242L141.022 24.6836C140.325 24.4492 139.705 24.1367 138.93 23.9805C138.232 23.7461 137.38 23.668 136.295 23.668C133.816 23.668 131.878 24.5273 130.406 26.2461C128.934 27.9648 128.236 30.2305 128.236 33.1211C128.236 34.8398 128.624 36.2461 129.321 37.2617C130.019 38.3555 131.413 38.8242 133.351 38.8242C134.281 38.8242 135.288 38.7461 136.14 38.5117C137.07 38.2773 137.845 38.043 138.542 37.7305L139.085 43.7461C138.155 44.1367 137.148 44.4492 135.985 44.7617C134.823 45.0742 133.506 45.1523 131.956 45.1523C129.864 45.1523 128.159 44.8398 126.687 44.2148C125.292 43.5898 124.052 42.8086 123.122 41.793C122.192 40.7773 121.495 39.6055 121.108 38.1992C120.798 36.9492 120.565 35.543 120.565 33.9805Z" fill="#4D4D4D"/>
<path d="M153.342 45.2305C151.56 45.2305 150.088 44.9961 148.771 44.4492C147.453 43.9024 146.369 43.1992 145.594 42.1836C144.741 41.2461 144.121 40.0742 143.657 38.7461C143.192 37.418 143.037 35.9336 143.037 34.3711C143.037 32.3399 143.347 30.3086 144.044 28.3555C144.664 26.3242 145.671 24.5273 146.911 22.9648C148.151 21.3242 149.701 20.0742 151.56 18.9805C153.42 17.9648 155.512 17.418 157.837 17.418C159.541 17.418 161.091 17.6523 162.409 18.1992C163.726 18.7461 164.811 19.5274 165.663 20.4649C166.515 21.4024 167.135 22.5742 167.6 23.9024C168.065 25.2305 168.22 26.7149 168.22 28.2774C168.22 30.3086 167.91 32.2617 167.29 34.293C166.67 36.3242 165.741 38.1211 164.501 39.6836C163.261 41.3242 161.711 42.5742 159.929 43.5898C157.914 44.7617 155.822 45.2305 153.342 45.2305ZM157.062 23.7461C155.977 23.7461 154.97 24.0586 154.195 24.6836C153.342 25.3086 152.645 26.0899 152.103 27.1055C151.56 28.043 151.095 29.1367 150.863 30.3086C150.553 31.4805 150.475 32.5742 150.475 33.5899C150.475 35.2305 150.708 36.5586 151.25 37.4961C151.793 38.4336 152.723 38.9023 154.117 38.9023C155.202 38.9023 156.21 38.5899 156.984 37.9649C157.837 37.3399 158.534 36.5586 159.077 35.543C159.619 34.6055 160.084 33.5117 160.316 32.3398C160.626 31.168 160.704 30.0742 160.704 29.0586C160.704 27.418 160.471 26.0899 159.929 25.1524C159.387 24.2149 158.457 23.7461 157.062 23.7461Z" fill="#4D4D4D"/>
<path d="M176.124 44.5274H168.763L174.962 18.1211H182.4L176.124 44.5274ZM179.766 14.918C178.758 14.918 177.829 14.6055 176.976 13.9805C176.124 13.3555 175.736 12.418 175.736 11.168C175.736 10.4648 175.891 9.83984 176.124 9.21484C176.434 8.58984 176.744 8.04299 177.209 7.57424C177.674 7.10549 178.216 6.79297 178.836 6.48047C179.456 6.24609 180.076 6.08984 180.773 6.08984C181.781 6.08984 182.71 6.40235 183.563 7.02735C184.415 7.65235 184.803 8.58986 184.803 9.83986C184.803 10.543 184.648 11.168 184.338 11.793C184.028 12.418 183.718 12.9649 183.253 13.4336C182.788 13.9024 182.245 14.2149 181.626 14.5274C181.083 14.7617 180.463 14.918 179.766 14.918Z" fill="#4D4D4D"/>
<path d="M187.747 19.293C188.289 19.1367 188.909 18.9023 189.607 18.7461C190.304 18.5117 191.079 18.3555 191.931 18.1211C192.784 17.9649 193.714 17.8086 194.798 17.6524C195.806 17.4961 197.046 17.4961 198.363 17.4961C202.237 17.4961 204.949 18.668 206.422 20.9336C207.894 23.1992 208.126 26.3242 207.196 30.3086L203.787 44.6055H196.348L199.603 30.6211C199.835 29.7617 199.99 28.9023 200.068 28.043C200.223 27.2617 200.145 26.4805 200.068 25.8555C199.913 25.2305 199.603 24.7617 199.138 24.3711C198.673 23.9805 197.898 23.8242 196.891 23.8242C195.961 23.8242 194.953 23.9023 193.946 24.1367L189.142 44.6055H181.703L187.747 19.293Z" fill="#4D4D4D"/>
</svg>
