<svg width="37" height="37" viewBox="0 0 37 37" fill="none" xmlns="http://www.w3.org/2000/svg">
<path d="M10.4316 8.47981L8.88991 10.0215C8.75288 10.1585 8.75288 10.2955 8.88991 10.4326L16.9579 18.5006L9.30162 26.1569C9.16459 26.2939 9.16459 26.4309 9.30162 26.568L10.8433 28.1096C10.9803 28.2467 11.1174 28.2467 11.2544 28.1096L18.9107 20.4533L26.9787 28.5214C27.1157 28.6584 27.2528 28.6584 27.3898 28.5214L28.9315 26.9797C29.0685 26.8427 29.0685 26.7056 28.9315 26.5686L20.8635 18.5006L28.521 10.8431C28.658 10.706 28.658 10.569 28.521 10.432L26.9793 8.89031C26.8423 8.75328 26.7052 8.75327 26.5682 8.89031L18.9107 16.5478L10.8427 8.47981C10.7056 8.34277 10.5686 8.34277 10.4316 8.47981Z" fill="#E5EEFF"/>
</svg>
