<svg width="35" height="35" viewBox="0 0 35 35" fill="none" xmlns="http://www.w3.org/2000/svg">
<path d="M17.5 35C7.83502 35 0 27.165 0 17.5C0 7.83502 7.83502 0 17.5 0C27.165 0 35 7.83502 35 17.5C35 27.165 27.165 35 17.5 35Z" fill="#F0F0F0"/>
<path d="M0.148132 15.2174H15.2173H15.2173V0.148135C15.9646 0.0508594 16.7264 0 17.5 0C18.2736 0 19.0354 0.0508594 19.7826 0.148135V15.2173V15.2173H34.8519C34.9491 15.9646 35 16.7262 35 17.5C35 18.2738 34.9491 19.0354 34.8519 19.7826H19.7827H19.7827V34.8519C19.0354 34.9491 18.2736 35 17.5 35C16.7264 35 15.9646 34.9492 15.2174 34.8519V19.7827V19.7827H0.148132C0.0508575 19.0354 0 18.2738 0 17.5C0 16.7262 0.0508575 15.9646 0.148132 15.2174Z" fill="#D80027"/>
</svg>
