<svg width="90" height="90" viewBox="0 0 90 90" fill="none" xmlns="http://www.w3.org/2000/svg">
<path d="M90 0H0V90H90V0Z" fill="white" fill-opacity="0.01"/>
<path d="M76.5 81.225H58.5C58.321 81.2249 58.1495 81.1536 58.023 81.027L44.523 67.527C44.4038 67.3991 44.3388 67.2298 44.3419 67.0549C44.345 66.8801 44.4159 66.7132 44.5395 66.5896C44.6632 66.4659 44.83 66.395 45.0049 66.392C45.1798 66.3889 45.349 66.4538 45.477 66.573L58.779 79.875H76.5C76.679 79.875 76.8507 79.9461 76.9773 80.0727C77.1039 80.1993 77.175 80.371 77.175 80.55C77.175 80.729 77.1039 80.9007 76.9773 81.0273C76.8507 81.1539 76.679 81.225 76.5 81.225Z" fill="url(#paint0_linear)"/>
<path d="M83.25 86.625H74.7C74.5211 86.6249 74.3495 86.5536 74.223 86.427L68.823 81.027C68.7038 80.8991 68.6389 80.7298 68.642 80.5549C68.645 80.3801 68.7159 80.2132 68.8396 80.0896C68.9632 79.9659 69.1301 79.895 69.3049 79.892C69.4798 79.8889 69.6491 79.9538 69.777 80.073L74.979 85.275H83.25C83.429 85.275 83.6007 85.3461 83.7273 85.4727C83.8539 85.5993 83.925 85.771 83.925 85.95C83.925 86.129 83.8539 86.3007 83.7273 86.4273C83.6007 86.5539 83.429 86.625 83.25 86.625Z" fill="url(#paint1_linear)"/>
<path d="M61.65 81.225C61.4711 81.2243 61.2997 81.1532 61.173 81.027C61.1099 80.9646 61.0597 80.8903 61.0255 80.8084C60.9913 80.7266 60.9737 80.6387 60.9737 80.55C60.9737 80.4612 60.9913 80.3734 61.0255 80.2915C61.0597 80.2096 61.1099 80.1353 61.173 80.073L64.773 76.473C64.8995 76.3463 65.071 76.2751 65.25 76.275H72.9C73.079 76.275 73.2507 76.3461 73.3773 76.4727C73.5039 76.5993 73.575 76.7709 73.575 76.95C73.575 77.129 73.5039 77.3007 73.3773 77.4273C73.2507 77.5538 73.079 77.625 72.9 77.625H65.529L62.127 81.027C62.0002 81.1532 61.8288 81.2243 61.65 81.225Z" fill="url(#paint2_linear)"/>
<path d="M32.4 84.825H10.8C10.621 84.825 10.4493 84.7538 10.3227 84.6273C10.1961 84.5007 10.125 84.329 10.125 84.15C10.125 83.9709 10.1961 83.7993 10.3227 83.6727C10.4493 83.5461 10.621 83.475 10.8 83.475H32.112L44.514 70.65C44.5747 70.5831 44.6482 70.529 44.7302 70.491C44.8121 70.453 44.9009 70.4319 44.9912 70.4289C45.0815 70.4258 45.1714 70.4409 45.2558 70.4733C45.3401 70.5056 45.4171 70.5546 45.4822 70.6173C45.5472 70.6799 45.5991 70.755 45.6346 70.8381C45.6701 70.9211 45.6886 71.0105 45.689 71.1008C45.6893 71.1911 45.6715 71.2806 45.6367 71.364C45.6018 71.4473 45.5506 71.5228 45.486 71.586L32.886 84.636C32.822 84.6987 32.746 84.7479 32.6624 84.7804C32.5789 84.8129 32.4896 84.828 32.4 84.825Z" fill="url(#paint3_linear)"/>
<path d="M10.35 85.275C10.9713 85.275 11.475 84.7713 11.475 84.15C11.475 83.5286 10.9713 83.025 10.35 83.025C9.72867 83.025 9.22499 83.5286 9.22499 84.15C9.22499 84.7713 9.72867 85.275 10.35 85.275Z" fill="url(#paint4_linear)"/>
<path d="M10.35 85.95C9.99398 85.95 9.64597 85.8444 9.34996 85.6466C9.05395 85.4488 8.82324 85.1677 8.68701 84.8388C8.55077 84.5099 8.51512 84.148 8.58458 83.7988C8.65403 83.4496 8.82546 83.1289 9.0772 82.8772C9.32893 82.6254 9.64966 82.454 9.99883 82.3846C10.348 82.3151 10.7099 82.3508 11.0388 82.487C11.3677 82.6232 11.6488 82.8539 11.8466 83.15C12.0444 83.446 12.15 83.794 12.15 84.15C12.15 84.6274 11.9603 85.0852 11.6228 85.4228C11.2852 85.7603 10.8274 85.95 10.35 85.95ZM10.35 83.7C10.261 83.7 10.174 83.7264 10.1 83.7758C10.026 83.8253 9.9683 83.8955 9.93424 83.9778C9.90018 84.06 9.89127 84.1505 9.90864 84.2378C9.926 84.3251 9.96886 84.4052 10.0318 84.4682C10.0947 84.5311 10.1749 84.574 10.2622 84.5913C10.3495 84.6087 10.44 84.5998 10.5222 84.5657C10.6044 84.5317 10.6747 84.474 10.7242 84.4C10.7736 84.326 10.8 84.239 10.8 84.15C10.8 84.0306 10.7526 83.9162 10.6682 83.8318C10.5838 83.7474 10.4693 83.7 10.35 83.7Z" fill="url(#paint5_linear)"/>
<path d="M22.95 84.825C22.7711 84.8243 22.5997 84.7532 22.473 84.627L18.171 80.325H5.39999C5.22097 80.325 5.04928 80.2539 4.92269 80.1273C4.79611 80.0007 4.72499 79.829 4.72499 79.65C4.72499 79.471 4.79611 79.2993 4.92269 79.1727C5.04928 79.0461 5.22097 78.975 5.39999 78.975H18.45C18.629 78.9751 18.8005 79.0464 18.927 79.173L23.427 83.673C23.4901 83.7353 23.5402 83.8096 23.5745 83.8915C23.6087 83.9734 23.6263 84.0612 23.6263 84.15C23.6263 84.2387 23.6087 84.3266 23.5745 84.4085C23.5402 84.4903 23.4901 84.5646 23.427 84.627C23.3003 84.7532 23.1289 84.8243 22.95 84.825Z" fill="url(#paint6_linear)"/>
<path d="M14.4 80.325C14.2211 80.3243 14.0497 80.2532 13.923 80.127L10.521 76.725H8.1C7.92098 76.725 7.74929 76.6539 7.62271 76.5273C7.49612 76.4007 7.425 76.229 7.425 76.05C7.425 75.871 7.49612 75.6993 7.62271 75.5727C7.74929 75.4461 7.92098 75.375 8.1 75.375H10.8C10.979 75.3752 11.1505 75.4464 11.277 75.573L14.877 79.173C14.9401 79.2354 14.9903 79.3096 15.0245 79.3915C15.0587 79.4734 15.0763 79.5613 15.0763 79.65C15.0763 79.7387 15.0587 79.8266 15.0245 79.9085C14.9903 79.9904 14.9401 80.0646 14.877 80.127C14.7503 80.2532 14.5789 80.3243 14.4 80.325Z" fill="url(#paint7_linear)"/>
<path d="M25.65 88.875H18.45C18.271 88.875 18.0993 88.8039 17.9727 88.6773C17.8461 88.5507 17.775 88.379 17.775 88.2C17.775 88.021 17.8461 87.8493 17.9727 87.7227C18.0993 87.5961 18.271 87.525 18.45 87.525H25.371L29.223 83.673C29.351 83.5538 29.5202 83.4888 29.6951 83.4919C29.8699 83.495 30.0368 83.5659 30.1605 83.6895C30.2841 83.8132 30.355 83.98 30.3581 84.1549C30.3611 84.3298 30.2962 84.499 30.177 84.627L26.127 88.677C26.0005 88.8036 25.829 88.8748 25.65 88.875Z" fill="url(#paint8_linear)"/>
<path d="M29.25 77.625H22.95C22.771 77.625 22.5993 77.5539 22.4727 77.4273C22.3461 77.3007 22.275 77.129 22.275 76.95C22.275 76.771 22.3461 76.5993 22.4727 76.4727C22.5993 76.3461 22.771 76.275 22.95 76.275H28.971L34.623 70.623C34.751 70.5038 34.9202 70.4389 35.0951 70.4419C35.2699 70.445 35.4368 70.5159 35.5605 70.6395C35.6841 70.7632 35.755 70.9301 35.7581 71.1049C35.7611 71.2798 35.6962 71.449 35.577 71.577L29.727 77.427C29.6005 77.5536 29.429 77.6248 29.25 77.625Z" fill="url(#paint9_linear)"/>
<path d="M35.1 28.125C34.9211 28.1244 34.7497 28.0532 34.623 27.927L24.921 18.225H8.1C7.92098 18.225 7.74929 18.1539 7.62271 18.0273C7.49612 17.9007 7.425 17.729 7.425 17.55C7.425 17.371 7.49612 17.1993 7.62271 17.0727C7.74929 16.9461 7.92098 16.875 8.1 16.875H25.2C25.379 16.8752 25.5505 16.9464 25.677 17.073L35.577 26.973C35.6401 27.0354 35.6903 27.1096 35.7245 27.1915C35.7587 27.2734 35.7763 27.3613 35.7763 27.45C35.7763 27.5387 35.7587 27.6266 35.7245 27.7085C35.6903 27.7904 35.6401 27.8646 35.577 27.927C35.4503 28.0532 35.2789 28.1244 35.1 28.125Z" fill="url(#paint10_linear)"/>
<path d="M19.8 18.225C19.6211 18.2243 19.4497 18.1532 19.323 18.027L10.971 9.67495H6.75C6.57098 9.67495 6.39929 9.60383 6.2727 9.47725C6.14611 9.35066 6.075 9.17897 6.075 8.99995C6.075 8.82093 6.14611 8.64924 6.2727 8.52265C6.39929 8.39607 6.57098 8.32495 6.75 8.32495H11.25C11.429 8.32511 11.6005 8.39633 11.727 8.52295L20.277 17.073C20.3401 17.1353 20.3903 17.2096 20.4245 17.2915C20.4587 17.3734 20.4763 17.4612 20.4763 17.55C20.4763 17.6387 20.4587 17.7265 20.4245 17.8084C20.3903 17.8903 20.3401 17.9646 20.277 18.027C20.1503 18.1532 19.9789 18.2243 19.8 18.225Z" fill="url(#paint11_linear)"/>
<path d="M11.7 23.1749H2.25C2.07098 23.1749 1.89929 23.1038 1.7727 22.9772C1.64611 22.8507 1.575 22.679 1.575 22.4999C1.575 22.3209 1.64611 22.1492 1.7727 22.0226C1.89929 21.8961 2.07098 21.8249 2.25 21.8249H11.421L16.173 17.0729C16.301 16.9537 16.4702 16.8888 16.6451 16.8919C16.8199 16.895 16.9868 16.9658 17.1105 17.0895C17.2341 17.2132 17.305 17.38 17.3081 17.5549C17.3111 17.7297 17.2462 17.899 17.127 18.0269L12.177 22.9769C12.0505 23.1036 11.879 23.1748 11.7 23.1749Z" fill="url(#paint12_linear)"/>
<path d="M22.95 35.775C22.7711 35.7744 22.5997 35.7032 22.473 35.577L16.371 29.475H8.1C7.92098 29.475 7.74929 29.4039 7.62271 29.2773C7.49612 29.1507 7.425 28.979 7.425 28.8C7.425 28.621 7.49612 28.4493 7.62271 28.3227C7.74929 28.1961 7.92098 28.125 8.1 28.125H16.65C16.829 28.1252 17.0005 28.1964 17.127 28.323L23.427 34.623C23.4901 34.6854 23.5403 34.7596 23.5745 34.8415C23.6087 34.9234 23.6263 35.0113 23.6263 35.1C23.6263 35.1887 23.6087 35.2766 23.5745 35.3585C23.5403 35.4404 23.4901 35.5146 23.427 35.577C23.3003 35.7032 23.1289 35.7744 22.95 35.775Z" fill="url(#paint13_linear)"/>
<path d="M18.9 23.1749H17.1C16.921 23.1749 16.7493 23.1038 16.6227 22.9772C16.4961 22.8507 16.425 22.679 16.425 22.4999C16.425 22.3209 16.4961 22.1492 16.6227 22.0226C16.7493 21.8961 16.921 21.8249 17.1 21.8249H18.621L23.373 17.0729C23.501 16.9537 23.6702 16.8888 23.8451 16.8919C24.0199 16.895 24.1868 16.9658 24.3105 17.0895C24.4341 17.2132 24.505 17.38 24.5081 17.5549C24.5111 17.7297 24.4462 17.899 24.327 18.0269L19.377 22.9769C19.2505 23.1036 19.079 23.1748 18.9 23.1749Z" fill="url(#paint14_linear)"/>
<path d="M7.65 34.4249H4.05C3.87098 34.4249 3.69929 34.3538 3.5727 34.2272C3.44612 34.1007 3.375 33.929 3.375 33.7499C3.375 33.5709 3.44612 33.3992 3.5727 33.2726C3.69929 33.1461 3.87098 33.0749 4.05 33.0749H7.371L12.123 28.3229C12.251 28.2037 12.4202 28.1388 12.5951 28.1419C12.7699 28.145 12.9368 28.2158 13.0605 28.3395C13.1841 28.4632 13.255 28.63 13.2581 28.8049C13.2611 28.9797 13.1962 29.149 13.077 29.2769L8.127 34.2269C8.00053 34.3536 7.82896 34.4248 7.65 34.4249Z" fill="url(#paint15_linear)"/>
<path d="M38.25 20.925C38.0711 20.9243 37.8997 20.8532 37.773 20.727L29.871 12.825H22.5C22.321 12.825 22.1493 12.7539 22.0227 12.6273C21.8961 12.5007 21.825 12.329 21.825 12.15C21.825 11.971 21.8961 11.7993 22.0227 11.6727C22.1493 11.5461 22.321 11.475 22.5 11.475H30.15C30.329 11.4751 30.5005 11.5464 30.627 11.673L38.727 19.773C38.7901 19.8353 38.8403 19.9096 38.8745 19.9915C38.9087 20.0734 38.9263 20.1612 38.9263 20.25C38.9263 20.3387 38.9087 20.4266 38.8745 20.5085C38.8403 20.5903 38.7901 20.6646 38.727 20.727C38.6003 20.8532 38.4289 20.9243 38.25 20.925Z" fill="url(#paint16_linear)"/>
<path d="M50.85 25.875C50.6711 25.8743 50.4997 25.8032 50.373 25.677C50.3099 25.6146 50.2597 25.5403 50.2255 25.4584C50.1913 25.3766 50.1737 25.2887 50.1737 25.2C50.1737 25.1112 50.1913 25.0234 50.2255 24.9415C50.2597 24.8596 50.3099 24.7853 50.373 24.723L59.373 15.723C59.4995 15.5963 59.671 15.5251 59.85 15.525H76.95C77.129 15.525 77.3007 15.5961 77.4273 15.7227C77.5539 15.8493 77.625 16.0209 77.625 16.2C77.625 16.379 77.5539 16.5507 77.4273 16.6773C77.3007 16.8038 77.129 16.875 76.95 16.875H60.129L51.327 25.677C51.2002 25.8032 51.0289 25.8743 50.85 25.875Z" fill="url(#paint17_linear)"/>
<path d="M66.15 16.875C65.9711 16.8743 65.7997 16.8032 65.673 16.677C65.6099 16.6146 65.5597 16.5403 65.5255 16.4585C65.4913 16.3766 65.4737 16.2887 65.4737 16.2C65.4737 16.1112 65.4913 16.0234 65.5255 15.9415C65.5597 15.8596 65.6099 15.7853 65.673 15.723L69.723 11.673C69.8495 11.5464 70.021 11.4751 70.2 11.475H85.5C85.679 11.475 85.8507 11.5461 85.9773 11.6727C86.1039 11.7993 86.175 11.971 86.175 12.15C86.175 12.329 86.1039 12.5007 85.9773 12.6273C85.8507 12.7539 85.679 12.825 85.5 12.825H70.479L66.627 16.677C66.5002 16.8032 66.3288 16.8743 66.15 16.875Z" fill="url(#paint18_linear)"/>
<path d="M85.5 25.875H79.2C79.021 25.8748 78.8495 25.8036 78.723 25.677L69.723 16.677C69.6038 16.549 69.5389 16.3798 69.5419 16.2049C69.545 16.03 69.6159 15.8632 69.7395 15.7395C69.8632 15.6158 70.0301 15.545 70.2049 15.5419C70.3798 15.5388 70.549 15.6037 70.677 15.723L79.479 24.525H85.5C85.679 24.525 85.8507 24.5961 85.9773 24.7227C86.1039 24.8493 86.175 25.0209 86.175 25.2C86.175 25.379 86.1039 25.5507 85.9773 25.6773C85.8507 25.8039 85.679 25.875 85.5 25.875Z" fill="url(#paint19_linear)"/>
<path d="M57.15 28.125C56.9711 28.1243 56.7998 28.0532 56.673 27.927C56.6099 27.8646 56.5598 27.7903 56.5255 27.7084C56.4913 27.6266 56.4737 27.5387 56.4737 27.45C56.4737 27.3612 56.4913 27.2734 56.5255 27.1915C56.5598 27.1096 56.6099 27.0353 56.673 26.973L61.173 22.473C61.2995 22.3463 61.471 22.2751 61.65 22.275H69.3C69.479 22.275 69.6507 22.3461 69.7773 22.4727C69.9039 22.5993 69.975 22.7709 69.975 22.95C69.975 23.129 69.9039 23.3007 69.7773 23.4273C69.6507 23.5538 69.479 23.625 69.3 23.625H61.929L57.627 27.927C57.5003 28.0532 57.3289 28.1243 57.15 28.125Z" fill="url(#paint20_linear)"/>
<path d="M74.7 12.825C74.5661 12.8223 74.4359 12.7798 74.3262 12.7029C74.2165 12.626 74.1321 12.5182 74.0839 12.3932C74.0356 12.2683 74.0257 12.1317 74.0552 12.0011C74.0848 11.8704 74.1526 11.7515 74.25 11.6595L81.45 4.90948C81.5723 4.79492 81.7325 4.72927 81.9 4.72498H87.3C87.479 4.72498 87.6507 4.79609 87.7773 4.92268C87.9039 5.04927 87.975 5.22095 87.975 5.39998C87.975 5.579 87.9039 5.75069 87.7773 5.87727C87.6507 6.00386 87.479 6.07498 87.3 6.07498H82.1655L75.15 12.6405C75.0289 12.7569 74.868 12.8229 74.7 12.825Z" fill="url(#paint21_linear)"/>
<path d="M46.8 20.925C46.6211 20.9243 46.4497 20.8532 46.323 20.727C46.2599 20.6646 46.2097 20.5903 46.1755 20.5085C46.1413 20.4266 46.1237 20.3387 46.1237 20.25C46.1237 20.1612 46.1413 20.0734 46.1755 19.9915C46.2097 19.9096 46.2599 19.8354 46.323 19.773L58.473 7.62299C58.5995 7.49636 58.771 7.42515 58.95 7.42499H69.3C69.479 7.42499 69.6507 7.4961 69.7773 7.62269C69.9039 7.74928 69.975 7.92097 69.975 8.09999C69.975 8.27901 69.9039 8.4507 69.7773 8.57728C69.6507 8.70387 69.479 8.77499 69.3 8.77499H59.229L47.277 20.727C47.1502 20.8532 46.9789 20.9243 46.8 20.925Z" fill="url(#paint22_linear)"/>
<path d="M63.9 8.77497C63.8037 8.77546 63.7085 8.75522 63.6207 8.71562C63.533 8.67602 63.4548 8.61798 63.3915 8.54547C63.2742 8.41022 63.215 8.23415 63.2268 8.05551C63.2386 7.87688 63.3204 7.71012 63.4545 7.59147L67.0545 4.44147C67.1795 4.33345 67.3393 4.27431 67.5045 4.27497H74.7045C74.8835 4.27497 75.0552 4.34608 75.1818 4.47267C75.3084 4.59926 75.3795 4.77095 75.3795 4.94997C75.3795 5.12899 75.3084 5.30068 75.1818 5.42727C75.0552 5.55385 74.8835 5.62497 74.7045 5.62497H67.752L64.35 8.60847C64.2252 8.71684 64.0652 8.77604 63.9 8.77497Z" fill="url(#paint23_linear)"/>
<path d="M72.45 78.075C73.0713 78.075 73.575 77.5713 73.575 76.95C73.575 76.3287 73.0713 75.825 72.45 75.825C71.8287 75.825 71.325 76.3287 71.325 76.95C71.325 77.5713 71.8287 78.075 72.45 78.075Z" fill="url(#paint24_linear)"/>
<path d="M72.45 78.75C72.094 78.75 71.746 78.6445 71.45 78.4467C71.154 78.2489 70.9233 77.9678 70.787 77.6389C70.6508 77.3099 70.6151 76.948 70.6846 76.5989C70.754 76.2497 70.9255 75.929 71.1772 75.6772C71.4289 75.4255 71.7497 75.2541 72.0988 75.1846C72.448 75.1152 72.8099 75.1508 73.1388 75.287C73.4677 75.4233 73.7489 75.654 73.9466 75.95C74.1444 76.246 74.25 76.594 74.25 76.95C74.25 77.4274 74.0604 77.8853 73.7228 78.2228C73.3852 78.5604 72.9274 78.75 72.45 78.75ZM72.45 76.5C72.361 76.5 72.274 76.5264 72.2 76.5759C72.126 76.6253 72.0683 76.6956 72.0343 76.7778C72.0002 76.86 71.9913 76.9505 72.0086 77.0378C72.026 77.1251 72.0689 77.2053 72.1318 77.2682C72.1947 77.3312 72.2749 77.374 72.3622 77.3914C72.4495 77.4087 72.54 77.3998 72.6222 77.3658C72.7044 77.3317 72.7747 77.274 72.8242 77.2C72.8736 77.126 72.9 77.039 72.9 76.95C72.9 76.8307 72.8526 76.7162 72.7682 76.6318C72.6838 76.5474 72.5693 76.5 72.45 76.5Z" fill="url(#paint25_linear)"/>
<path d="M77.4 82.125C78.2698 82.125 78.975 81.4199 78.975 80.55C78.975 79.6802 78.2698 78.975 77.4 78.975C76.5301 78.975 75.825 79.6802 75.825 80.55C75.825 81.4199 76.5301 82.125 77.4 82.125Z" fill="url(#paint26_linear)"/>
<path d="M77.4 82.8C76.955 82.8 76.52 82.6681 76.15 82.4209C75.78 82.1736 75.4916 81.8222 75.3213 81.4111C75.151 81 75.1064 80.5476 75.1932 80.1111C75.28 79.6746 75.4943 79.2737 75.809 78.9591C76.1237 78.6444 76.5246 78.4301 76.961 78.3433C77.3975 78.2565 77.8499 78.301 78.261 78.4713C78.6722 78.6416 79.0236 78.93 79.2708 79.3C79.518 79.67 79.65 80.105 79.65 80.5501C79.65 81.1468 79.4129 81.7191 78.991 82.141C78.569 82.563 77.9967 82.8 77.4 82.8ZM77.4 79.6501C77.222 79.6501 77.048 79.7028 76.9 79.8017C76.752 79.9006 76.6366 80.0412 76.5685 80.2056C76.5004 80.3701 76.4826 80.551 76.5173 80.7256C76.552 80.9002 76.6377 81.0606 76.7636 81.1864C76.8895 81.3123 77.0498 81.398 77.2244 81.4328C77.399 81.4675 77.5799 81.4497 77.7444 81.3815C77.9089 81.3134 78.0494 81.1981 78.1483 81.0501C78.2472 80.9021 78.3 80.7281 78.3 80.5501C78.3 80.3114 78.2052 80.0824 78.0364 79.9137C77.8676 79.7449 77.6387 79.6501 77.4 79.6501Z" fill="url(#paint27_linear)"/>
<path d="M83.25 87.075C83.8713 87.075 84.375 86.5713 84.375 85.95C84.375 85.3287 83.8713 84.825 83.25 84.825C82.6287 84.825 82.125 85.3287 82.125 85.95C82.125 86.5713 82.6287 87.075 83.25 87.075Z" fill="url(#paint28_linear)"/>
<path d="M83.25 87.75C82.894 87.75 82.546 87.6445 82.25 87.4467C81.954 87.2489 81.7233 86.9678 81.587 86.6389C81.4508 86.3099 81.4151 85.948 81.4846 85.5989C81.5541 85.2497 81.7255 84.929 81.9772 84.6772C82.229 84.4255 82.5497 84.2541 82.8989 84.1846C83.248 84.1152 83.6099 84.1508 83.9388 84.287C84.2678 84.4233 84.5489 84.654 84.7467 84.95C84.9445 85.246 85.05 85.594 85.05 85.95C85.05 86.4274 84.8604 86.8853 84.5228 87.2228C84.1852 87.5604 83.7274 87.75 83.25 87.75ZM83.25 85.5C83.161 85.5 83.074 85.5264 83 85.5759C82.926 85.6253 82.8683 85.6956 82.8343 85.7778C82.8002 85.86 82.7913 85.9505 82.8087 86.0378C82.826 86.1251 82.8689 86.2053 82.9318 86.2682C82.9948 86.3312 83.0749 86.374 83.1622 86.3914C83.2495 86.4087 83.34 86.3998 83.4222 86.3658C83.5045 86.3317 83.5747 86.274 83.6242 86.2C83.6736 86.126 83.7 86.039 83.7 85.95C83.7 85.8307 83.6526 85.7162 83.5682 85.6318C83.4838 85.5474 83.3694 85.5 83.25 85.5Z" fill="url(#paint29_linear)"/>
<path d="M18 89.325C18.6213 89.325 19.125 88.8213 19.125 88.2C19.125 87.5787 18.6213 87.075 18 87.075C17.3787 87.075 16.875 87.5787 16.875 88.2C16.875 88.8213 17.3787 89.325 18 89.325Z" fill="url(#paint30_linear)"/>
<path d="M18 90C17.644 90 17.296 89.8945 17 89.6967C16.704 89.4989 16.4733 89.2178 16.337 88.8889C16.2008 88.5599 16.1651 88.198 16.2346 87.8489C16.304 87.4997 16.4755 87.179 16.7272 86.9272C16.9789 86.6755 17.2997 86.5041 17.6488 86.4346C17.998 86.3652 18.3599 86.4008 18.6888 86.537C19.0177 86.6733 19.2989 86.904 19.4966 87.2C19.6944 87.496 19.8 87.844 19.8 88.2C19.8 88.6774 19.6104 89.1353 19.2728 89.4728C18.9352 89.8104 18.4774 90 18 90ZM18 87.75C17.911 87.75 17.824 87.7764 17.75 87.8259C17.676 87.8753 17.6183 87.9456 17.5843 88.0278C17.5502 88.11 17.5413 88.2005 17.5586 88.2878C17.576 88.3751 17.6189 88.4553 17.6818 88.5182C17.7447 88.5812 17.8249 88.624 17.9122 88.6414C17.9995 88.6587 18.09 88.6498 18.1722 88.6158C18.2544 88.5817 18.3247 88.524 18.3742 88.45C18.4236 88.376 18.45 88.289 18.45 88.2C18.45 88.0807 18.4026 87.9662 18.3182 87.8818C18.2338 87.7974 18.1193 87.75 18 87.75Z" fill="url(#paint31_linear)"/>
<path d="M7.64999 77.175C8.27131 77.175 8.77499 76.6713 8.77499 76.05C8.77499 75.4287 8.27131 74.925 7.64999 74.925C7.02867 74.925 6.52499 75.4287 6.52499 76.05C6.52499 76.6713 7.02867 77.175 7.64999 77.175Z" fill="url(#paint32_linear)"/>
<path d="M7.64999 77.85C7.29399 77.85 6.94597 77.7444 6.64997 77.5466C6.35396 77.3489 6.12325 77.0677 5.98701 76.7388C5.85077 76.4099 5.81512 76.048 5.88458 75.6988C5.95403 75.3497 6.12547 75.0289 6.3772 74.7772C6.62893 74.5255 6.94966 74.354 7.29883 74.2846C7.648 74.2151 8.00992 74.2508 8.33882 74.387C8.66773 74.5233 8.94885 74.754 9.14664 75.05C9.34442 75.346 9.44999 75.694 9.44999 76.05C9.44999 76.5274 9.26035 76.9852 8.92278 77.3228C8.58522 77.6604 8.12738 77.85 7.64999 77.85ZM7.64999 75.6C7.56099 75.6 7.47399 75.6264 7.39999 75.6758C7.32598 75.7253 7.26831 75.7956 7.23425 75.8778C7.20019 75.96 7.19128 76.0505 7.20864 76.1378C7.226 76.2251 7.26886 76.3053 7.33179 76.3682C7.39473 76.4311 7.47491 76.474 7.5622 76.4914C7.64949 76.5087 7.73997 76.4998 7.8222 76.4657C7.90443 76.4317 7.97471 76.374 8.02415 76.3C8.0736 76.226 8.09999 76.139 8.09999 76.05C8.09999 75.9307 8.05258 75.8162 7.96819 75.7318C7.8838 75.6474 7.76934 75.6 7.64999 75.6Z" fill="url(#paint33_linear)"/>
<path d="M23.4 78.525C24.2698 78.525 24.975 77.8198 24.975 76.95C24.975 76.0802 24.2698 75.375 23.4 75.375C22.5301 75.375 21.825 76.0802 21.825 76.95C21.825 77.8198 22.5301 78.525 23.4 78.525Z" fill="url(#paint34_linear)"/>
<path d="M23.4 79.2C22.955 79.2 22.52 79.0681 22.15 78.8208C21.78 78.5736 21.4916 78.2222 21.3213 77.8111C21.151 77.3999 21.1064 76.9475 21.1932 76.5111C21.28 76.0746 21.4943 75.6737 21.809 75.359C22.1237 75.0444 22.5246 74.8301 22.961 74.7432C23.3975 74.6564 23.8499 74.701 24.261 74.8713C24.6722 75.0416 25.0236 75.33 25.2708 75.7C25.518 76.07 25.65 76.505 25.65 76.95C25.65 77.5468 25.4129 78.119 24.991 78.541C24.569 78.963 23.9967 79.2 23.4 79.2ZM23.4 76.05C23.222 76.05 23.048 76.1028 22.9 76.2017C22.752 76.3006 22.6366 76.4411 22.5685 76.6056C22.5004 76.7701 22.4826 76.951 22.5173 77.1256C22.552 77.3002 22.6377 77.4605 22.7636 77.5864C22.8895 77.7123 23.0498 77.798 23.2244 77.8327C23.399 77.8674 23.58 77.8496 23.7444 77.7815C23.9089 77.7134 24.0494 77.598 24.1483 77.45C24.2472 77.302 24.3 77.128 24.3 76.95C24.3 76.7113 24.2052 76.4824 24.0364 76.3136C23.8676 76.1448 23.6387 76.05 23.4 76.05Z" fill="url(#paint35_linear)"/>
<path d="M4.05001 81.225C4.91985 81.225 5.62501 80.5199 5.62501 79.65C5.62501 78.7802 4.91985 78.075 4.05001 78.075C3.18016 78.075 2.47501 78.7802 2.47501 79.65C2.47501 80.5199 3.18016 81.225 4.05001 81.225Z" fill="url(#paint36_linear)"/>
<path d="M4.05 81.9C3.605 81.9 3.16998 81.7681 2.79997 81.5208C2.42996 81.2736 2.14157 80.9222 1.97128 80.5111C1.80098 80.0999 1.75642 79.6475 1.84324 79.2111C1.93005 78.7746 2.14435 78.3737 2.45901 78.059C2.77368 77.7444 3.17459 77.5301 3.61105 77.4433C4.04751 77.3564 4.49991 77.401 4.91104 77.5713C5.32218 77.7416 5.67358 78.03 5.92081 78.4C6.16804 78.77 6.3 79.205 6.3 79.65C6.3 79.9455 6.24181 80.2381 6.12873 80.5111C6.01566 80.7841 5.84993 81.0321 5.64099 81.241C5.43206 81.45 5.18402 81.6157 4.91104 81.7288C4.63806 81.8418 4.34548 81.9 4.05 81.9ZM4.05 78.75C3.872 78.75 3.69799 78.8028 3.54999 78.9017C3.40199 79.0006 3.28663 79.1412 3.21851 79.3056C3.15039 79.4701 3.13257 79.651 3.1673 79.8256C3.20202 80.0002 3.28774 80.1606 3.41361 80.2864C3.53947 80.4123 3.69984 80.498 3.87442 80.5327C4.04901 80.5675 4.22997 80.5496 4.39442 80.4815C4.55887 80.4134 4.69943 80.298 4.79833 80.15C4.89722 80.002 4.95 79.828 4.95 79.65C4.95 79.4113 4.85518 79.1824 4.6864 79.0136C4.51762 78.8448 4.2887 78.75 4.05 78.75Z" fill="url(#paint37_linear)"/>
<path d="M2.7 34.875C3.32132 34.875 3.825 34.3713 3.825 33.75C3.825 33.1287 3.32132 32.625 2.7 32.625C2.07868 32.625 1.575 33.1287 1.575 33.75C1.575 34.3713 2.07868 34.875 2.7 34.875Z" fill="url(#paint38_linear)"/>
<path d="M2.69999 35.55C2.34399 35.55 1.99598 35.4444 1.69997 35.2467C1.40396 35.0489 1.17325 34.7678 1.03701 34.4388C0.900774 34.1099 0.865128 33.748 0.934581 33.3988C1.00403 33.0497 1.17547 32.729 1.4272 32.4772C1.67894 32.2255 1.99967 32.0541 2.34883 31.9846C2.698 31.9151 3.05992 31.9508 3.38882 32.087C3.71773 32.2233 3.99885 32.454 4.19664 32.75C4.39443 33.046 4.49999 33.394 4.49999 33.75C4.49999 34.2274 4.31035 34.6852 3.97279 35.0228C3.63522 35.3604 3.17738 35.55 2.69999 35.55ZM2.69999 33.3C2.61099 33.3 2.52399 33.3264 2.44999 33.3759C2.37599 33.4253 2.31831 33.4956 2.28425 33.5778C2.25019 33.66 2.24128 33.7505 2.25864 33.8378C2.276 33.9251 2.31886 34.0053 2.3818 34.0682C2.44473 34.1311 2.52491 34.174 2.6122 34.1914C2.6995 34.2087 2.78998 34.1998 2.8722 34.1658C2.95443 34.1317 3.02471 34.074 3.07416 34C3.1236 33.926 3.14999 33.839 3.14999 33.75C3.14999 33.6307 3.10258 33.5162 3.01819 33.4318C2.9338 33.3474 2.81934 33.3 2.69999 33.3Z" fill="url(#paint39_linear)"/>
<path d="M70.65 24.075C71.2713 24.075 71.775 23.5713 71.775 22.95C71.775 22.3287 71.2713 21.825 70.65 21.825C70.0287 21.825 69.525 22.3287 69.525 22.95C69.525 23.5713 70.0287 24.075 70.65 24.075Z" fill="url(#paint40_linear)"/>
<path d="M70.65 24.75C70.294 24.75 69.946 24.6445 69.65 24.4467C69.354 24.2489 69.1233 23.9678 68.987 23.6389C68.8508 23.31 68.8151 22.948 68.8846 22.5989C68.954 22.2497 69.1255 21.929 69.3772 21.6772C69.6289 21.4255 69.9497 21.2541 70.2988 21.1846C70.648 21.1152 71.0099 21.1508 71.3388 21.287C71.6677 21.4233 71.9489 21.654 72.1467 21.95C72.3444 22.246 72.45 22.594 72.45 22.95C72.45 23.4274 72.2604 23.8853 71.9228 24.2228C71.5852 24.5604 71.1274 24.75 70.65 24.75ZM70.65 22.5C70.561 22.5 70.474 22.5264 70.4 22.5759C70.326 22.6253 70.2683 22.6956 70.2343 22.7778C70.2002 22.86 70.1913 22.9505 70.2087 23.0378C70.226 23.1251 70.2689 23.2053 70.3318 23.2682C70.3947 23.3312 70.4749 23.374 70.5622 23.3914C70.6495 23.4087 70.74 23.3998 70.8222 23.3658C70.9044 23.3317 70.9747 23.274 71.0242 23.2C71.0736 23.126 71.1 23.039 71.1 22.95C71.1 22.8307 71.0526 22.7162 70.9682 22.6318C70.8838 22.5474 70.7694 22.5 70.65 22.5Z" fill="url(#paint41_linear)"/>
<path d="M75.15 6.07501C75.7713 6.07501 76.275 5.57133 76.275 4.95001C76.275 4.32869 75.7713 3.82501 75.15 3.82501C74.5287 3.82501 74.025 4.32869 74.025 4.95001C74.025 5.57133 74.5287 6.07501 75.15 6.07501Z" fill="url(#paint42_linear)"/>
<path d="M75.15 6.75003C74.794 6.75003 74.446 6.64446 74.15 6.44667C73.854 6.24888 73.6233 5.96776 73.487 5.63886C73.3508 5.30995 73.3151 4.94803 73.3846 4.59886C73.454 4.2497 73.6255 3.92897 73.8772 3.67723C74.1289 3.4255 74.4497 3.25407 74.7988 3.18461C75.148 3.11516 75.5099 3.1508 75.8388 3.28704C76.1677 3.42328 76.4489 3.65399 76.6467 3.95C76.8444 4.24601 76.95 4.59402 76.95 4.95003C76.95 5.42741 76.7604 5.88525 76.4228 6.22282C76.0852 6.56038 75.6274 6.75003 75.15 6.75003ZM75.15 4.50003C75.061 4.50003 74.974 4.52642 74.9 4.57586C74.826 4.62531 74.7683 4.69559 74.7343 4.77782C74.7002 4.86004 74.6913 4.95052 74.7087 5.03782C74.726 5.12511 74.7689 5.20529 74.8318 5.26822C74.8947 5.33116 74.9749 5.37402 75.0622 5.39138C75.1495 5.40874 75.24 5.39983 75.3222 5.36577C75.4044 5.33171 75.4747 5.27403 75.5242 5.20003C75.5736 5.12603 75.6 5.03903 75.6 4.95003C75.6 4.83068 75.5526 4.71622 75.4682 4.63183C75.3838 4.54744 75.2694 4.50003 75.15 4.50003Z" fill="url(#paint43_linear)"/>
<path d="M70.2 9.22504C70.8213 9.22504 71.325 8.72136 71.325 8.10004C71.325 7.47872 70.8213 6.97504 70.2 6.97504C69.5787 6.97504 69.075 7.47872 69.075 8.10004C69.075 8.72136 69.5787 9.22504 70.2 9.22504Z" fill="url(#paint44_linear)"/>
<path d="M70.2 9.90005C69.844 9.90005 69.496 9.79448 69.2 9.59669C68.904 9.39891 68.6733 9.11779 68.537 8.78888C68.4008 8.45997 68.3651 8.09805 68.4346 7.74889C68.504 7.39972 68.6755 7.07899 68.9272 6.82726C69.1789 6.57552 69.4997 6.40409 69.8488 6.33464C70.198 6.26518 70.5599 6.30083 70.8888 6.43707C71.2177 6.5733 71.4989 6.80401 71.6966 7.10002C71.8944 7.39603 72 7.74404 72 8.10005C72 8.57744 71.8104 9.03528 71.4728 9.37284C71.1352 9.71041 70.6774 9.90005 70.2 9.90005ZM70.2 7.65005C70.111 7.65005 70.024 7.67644 69.95 7.72589C69.876 7.77533 69.8183 7.84562 69.7843 7.92784C69.7502 8.01007 69.7413 8.10055 69.7586 8.18784C69.776 8.27513 69.8189 8.35531 69.8818 8.41825C69.9447 8.48118 70.0249 8.52404 70.1122 8.5414C70.1995 8.55877 70.29 8.54985 70.3722 8.5158C70.4544 8.48174 70.5247 8.42406 70.5742 8.35006C70.6236 8.27605 70.65 8.18905 70.65 8.10005C70.65 7.9807 70.6026 7.86624 70.5182 7.78185C70.4338 7.69746 70.3193 7.65005 70.2 7.65005Z" fill="url(#paint45_linear)"/>
<path d="M86.4 26.325C87.0213 26.325 87.525 25.8213 87.525 25.2C87.525 24.5787 87.0213 24.075 86.4 24.075C85.7787 24.075 85.275 24.5787 85.275 25.2C85.275 25.8213 85.7787 26.325 86.4 26.325Z" fill="url(#paint46_linear)"/>
<path d="M86.4 27C86.044 27 85.696 26.8945 85.4 26.6967C85.104 26.4989 84.8733 26.2178 84.737 25.8889C84.6008 25.5599 84.5651 25.198 84.6346 24.8489C84.704 24.4997 84.8755 24.179 85.1272 23.9272C85.3789 23.6755 85.6997 23.5041 86.0488 23.4346C86.398 23.3652 86.7599 23.4008 87.0888 23.537C87.4177 23.6733 87.6989 23.904 87.8967 24.2C88.0944 24.496 88.2 24.844 88.2 25.2C88.2 25.6774 88.0104 26.1353 87.6728 26.4728C87.3352 26.8104 86.8774 27 86.4 27ZM86.4 24.75C86.311 24.75 86.224 24.7764 86.15 24.8259C86.076 24.8753 86.0183 24.9456 85.9843 25.0278C85.9502 25.11 85.9413 25.2005 85.9587 25.2878C85.976 25.3751 86.0189 25.4553 86.0818 25.5182C86.1447 25.5812 86.2249 25.624 86.3122 25.6414C86.3995 25.6587 86.49 25.6498 86.5722 25.6158C86.6544 25.5817 86.7247 25.524 86.7742 25.45C86.8236 25.376 86.85 25.289 86.85 25.2C86.85 25.0807 86.8026 24.9662 86.7182 24.8818C86.6338 24.7974 86.5194 24.75 86.4 24.75Z" fill="url(#paint47_linear)"/>
<path d="M88.2 6.52502C88.8213 6.52502 89.325 6.02134 89.325 5.40002C89.325 4.7787 88.8213 4.27502 88.2 4.27502C87.5787 4.27502 87.075 4.7787 87.075 5.40002C87.075 6.02134 87.5787 6.52502 88.2 6.52502Z" fill="url(#paint48_linear)"/>
<path d="M88.2 7.20004C87.844 7.20004 87.496 7.09447 87.2 6.89668C86.904 6.6989 86.6733 6.41778 86.537 6.08887C86.4008 5.75996 86.3651 5.39804 86.4346 5.04888C86.504 4.69971 86.6755 4.37898 86.9272 4.12725C87.1789 3.87551 87.4997 3.70408 87.8488 3.63462C88.198 3.56517 88.5599 3.60082 88.8888 3.73705C89.2177 3.87329 89.4989 4.104 89.6966 4.40001C89.8944 4.69602 90 5.04403 90 5.40004C90 5.87743 89.8104 6.33526 89.4728 6.67283C89.1352 7.0104 88.6774 7.20004 88.2 7.20004ZM88.2 4.95004C88.111 4.95004 88.024 4.97643 87.95 5.02588C87.876 5.07532 87.8183 5.1456 87.7843 5.22783C87.7502 5.31006 87.7413 5.40054 87.7586 5.48783C87.776 5.57512 87.8189 5.6553 87.8818 5.71824C87.9447 5.78117 88.0249 5.82403 88.1122 5.84139C88.1995 5.85875 88.29 5.84984 88.3722 5.81578C88.4544 5.78172 88.5247 5.72405 88.5742 5.65004C88.6236 5.57604 88.65 5.48904 88.65 5.40004C88.65 5.28069 88.6026 5.16623 88.5182 5.08184C88.4338 4.99745 88.3193 4.95004 88.2 4.95004Z" fill="url(#paint49_linear)"/>
<path d="M23.4 13.725C24.2698 13.725 24.975 13.0199 24.975 12.15C24.975 11.2802 24.2698 10.575 23.4 10.575C22.5301 10.575 21.825 11.2802 21.825 12.15C21.825 13.0199 22.5301 13.725 23.4 13.725Z" fill="url(#paint50_linear)"/>
<path d="M23.4 14.4C22.955 14.4 22.52 14.2681 22.15 14.0208C21.78 13.7736 21.4916 13.4222 21.3213 13.0111C21.151 12.5999 21.1064 12.1475 21.1932 11.7111C21.28 11.2746 21.4943 10.8737 21.809 10.559C22.1237 10.2444 22.5246 10.0301 22.961 9.94326C23.3975 9.85644 23.8499 9.901 24.261 10.0713C24.6722 10.2416 25.0236 10.53 25.2708 10.9C25.518 11.27 25.65 11.705 25.65 12.15C25.65 12.7468 25.4129 13.3191 24.991 13.741C24.569 14.163 23.9967 14.4 23.4 14.4ZM23.4 11.25C23.222 11.25 23.048 11.3028 22.9 11.4017C22.752 11.5006 22.6366 11.6412 22.5685 11.8056C22.5004 11.9701 22.4826 12.151 22.5173 12.3256C22.552 12.5002 22.6377 12.6606 22.7636 12.7864C22.8895 12.9123 23.0498 12.998 23.2244 13.0327C23.399 13.0675 23.58 13.0496 23.7444 12.9815C23.9089 12.9134 24.0494 12.798 24.1483 12.65C24.2472 12.502 24.3 12.328 24.3 12.15C24.3 11.9113 24.2052 11.6824 24.0364 11.5136C23.8676 11.3448 23.6387 11.25 23.4 11.25Z" fill="url(#paint51_linear)"/>
<path d="M5.4 10.575C6.26985 10.575 6.975 9.86984 6.975 8.99999C6.975 8.13014 6.26985 7.42499 5.4 7.42499C4.53015 7.42499 3.825 8.13014 3.825 8.99999C3.825 9.86984 4.53015 10.575 5.4 10.575Z" fill="url(#paint52_linear)"/>
<path d="M5.39999 11.25C4.95499 11.25 4.51997 11.118 4.14996 10.8708C3.77995 10.6236 3.49156 10.2722 3.32127 9.86104C3.15097 9.44991 3.10641 8.9975 3.19323 8.56105C3.28004 8.12459 3.49434 7.72368 3.809 7.40901C4.12367 7.09434 4.52458 6.88005 4.96104 6.79323C5.3975 6.70642 5.8499 6.75097 6.26103 6.92127C6.67217 7.09157 7.02357 7.37996 7.2708 7.74997C7.51803 8.11998 7.64999 8.55499 7.64999 9C7.64999 9.59674 7.41294 10.169 6.99098 10.591C6.56903 11.0129 5.99673 11.25 5.39999 11.25ZM5.39999 8.1C5.22199 8.1 5.04799 8.15279 4.89998 8.25168C4.75198 8.35057 4.63662 8.49113 4.5685 8.65559C4.50038 8.82004 4.48256 9.001 4.51729 9.17558C4.55201 9.35017 4.63773 9.51053 4.7636 9.6364C4.88947 9.76226 5.04983 9.84798 5.22441 9.88271C5.399 9.91743 5.57996 9.89961 5.74441 9.83149C5.90886 9.76337 6.04942 9.64802 6.14832 9.50001C6.24721 9.35201 6.29999 9.178 6.29999 9C6.29999 8.76131 6.20517 8.53239 6.03639 8.36361C5.86761 8.19482 5.63869 8.1 5.39999 8.1Z" fill="url(#paint53_linear)"/>
<path d="M8.55001 19.125C9.41986 19.125 10.125 18.4199 10.125 17.55C10.125 16.6802 9.41986 15.975 8.55001 15.975C7.68016 15.975 6.97501 16.6802 6.97501 17.55C6.97501 18.4199 7.68016 19.125 8.55001 19.125Z" fill="url(#paint54_linear)"/>
<path d="M8.55 19.8C8.105 19.8 7.66998 19.6681 7.29997 19.4209C6.92996 19.1736 6.64157 18.8222 6.47128 18.4111C6.30098 18 6.25642 17.5476 6.34324 17.1111C6.43005 16.6746 6.64435 16.2737 6.95901 15.9591C7.27368 15.6444 7.67459 15.4301 8.11105 15.3433C8.54751 15.2565 8.99991 15.301 9.41104 15.4713C9.82218 15.6416 10.1736 15.93 10.4208 16.3C10.668 16.67 10.8 17.105 10.8 17.55C10.8 17.8455 10.7418 18.1381 10.6287 18.4111C10.5157 18.6841 10.3499 18.9321 10.141 19.141C9.93206 19.35 9.68403 19.5157 9.41104 19.6288C9.13806 19.7418 8.84548 19.8 8.55 19.8ZM8.55 16.65C8.372 16.65 8.198 16.7028 8.04999 16.8017C7.90199 16.9006 7.78663 17.0412 7.71851 17.2056C7.65039 17.3701 7.63257 17.551 7.6673 17.7256C7.70202 17.9002 7.78774 18.0606 7.91361 18.1864C8.03948 18.3123 8.19984 18.398 8.37442 18.4328C8.54901 18.4675 8.72997 18.4497 8.89442 18.3815C9.05887 18.3134 9.19943 18.1981 9.29833 18.0501C9.39722 17.9021 9.45001 17.7281 9.45001 17.55C9.45001 17.3114 9.35518 17.0824 9.1864 16.9137C9.01762 16.7449 8.7887 16.65 8.55 16.65Z" fill="url(#paint55_linear)"/>
<path d="M2.7 24.075C3.56985 24.075 4.275 23.3698 4.275 22.5C4.275 21.6301 3.56985 20.925 2.7 20.925C1.83015 20.925 1.125 21.6301 1.125 22.5C1.125 23.3698 1.83015 24.075 2.7 24.075Z" fill="url(#paint56_linear)"/>
<path d="M2.7 24.75C2.25499 24.75 1.81998 24.618 1.44996 24.3708C1.07995 24.1236 0.791566 23.7722 0.621269 23.361C0.450972 22.9499 0.406414 22.4975 0.493231 22.061C0.580048 21.6246 0.79434 21.2237 1.10901 20.909C1.42368 20.5943 1.82459 20.3801 2.26104 20.2932C2.6975 20.2064 3.1499 20.251 3.56104 20.4213C3.97217 20.5916 4.32357 20.88 4.5708 21.25C4.81804 21.62 4.95 22.055 4.95 22.5C4.95 23.0967 4.71294 23.669 4.29099 24.091C3.86903 24.5129 3.29673 24.75 2.7 24.75ZM2.7 21.6C2.52199 21.6 2.34799 21.6528 2.19998 21.7517C2.05198 21.8506 1.93663 21.9911 1.86851 22.1556C1.80039 22.32 1.78256 22.501 1.81729 22.6756C1.85202 22.8502 1.93773 23.0105 2.0636 23.1364C2.18947 23.2623 2.34983 23.348 2.52442 23.3827C2.699 23.4174 2.87996 23.3996 3.04441 23.3315C3.20887 23.2634 3.34943 23.148 3.44832 23C3.54721 22.852 3.6 22.678 3.6 22.5C3.6 22.2613 3.50518 22.0324 3.33639 21.8636C3.16761 21.6948 2.93869 21.6 2.7 21.6Z" fill="url(#paint57_linear)"/>
<path d="M85.95 13.725C86.8198 13.725 87.525 13.0199 87.525 12.15C87.525 11.2802 86.8198 10.575 85.95 10.575C85.0802 10.575 84.375 11.2802 84.375 12.15C84.375 13.0199 85.0802 13.725 85.95 13.725Z" fill="url(#paint58_linear)"/>
<path d="M85.95 14.4C85.505 14.4 85.07 14.2681 84.7 14.0208C84.33 13.7736 84.0416 13.4222 83.8713 13.0111C83.701 12.5999 83.6564 12.1475 83.7432 11.7111C83.8301 11.2746 84.0444 10.8737 84.359 10.559C84.6737 10.2444 85.0746 10.0301 85.5111 9.94326C85.9475 9.85644 86.3999 9.901 86.8111 10.0713C87.2222 10.2416 87.5736 10.53 87.8208 10.9C88.0681 11.27 88.2 11.705 88.2 12.15C88.2 12.7468 87.963 13.3191 87.541 13.741C87.1191 14.163 86.5468 14.4 85.95 14.4ZM85.95 11.25C85.772 11.25 85.598 11.3028 85.45 11.4017C85.302 11.5006 85.1866 11.6412 85.1185 11.8056C85.0504 11.9701 85.0326 12.151 85.0673 12.3256C85.102 12.5002 85.1878 12.6606 85.3136 12.7864C85.4395 12.9123 85.5999 12.998 85.7744 13.0327C85.949 13.0675 86.13 13.0496 86.2944 12.9815C86.4589 12.9134 86.5994 12.798 86.6983 12.65C86.7972 12.502 86.85 12.328 86.85 12.15C86.85 11.9113 86.7552 11.6824 86.5864 11.5136C86.4176 11.3448 86.1887 11.25 85.95 11.25Z" fill="url(#paint59_linear)"/>
<path d="M77.4 17.775C78.2698 17.775 78.975 17.0698 78.975 16.2C78.975 15.3302 78.2698 14.625 77.4 14.625C76.5301 14.625 75.825 15.3302 75.825 16.2C75.825 17.0698 76.5301 17.775 77.4 17.775Z" fill="url(#paint60_linear)"/>
<path d="M77.4 18.45C76.955 18.45 76.52 18.3181 76.15 18.0708C75.78 17.8236 75.4916 17.4722 75.3213 17.061C75.151 16.6499 75.1064 16.1975 75.1932 15.7611C75.28 15.3246 75.4943 14.9237 75.809 14.609C76.1237 14.2944 76.5246 14.0801 76.961 13.9932C77.3975 13.9064 77.8499 13.951 78.261 14.1213C78.6722 14.2916 79.0236 14.58 79.2708 14.95C79.518 15.32 79.65 15.755 79.65 16.2C79.65 16.4955 79.5918 16.7881 79.4787 17.061C79.3656 17.334 79.1999 17.5821 78.991 17.791C78.782 17.9999 78.534 18.1657 78.261 18.2787C77.988 18.3918 77.6955 18.45 77.4 18.45ZM77.4 15.3C77.222 15.3 77.048 15.3528 76.9 15.4517C76.752 15.5506 76.6366 15.6911 76.5685 15.8556C76.5004 16.0201 76.4826 16.201 76.5173 16.3756C76.552 16.5502 76.6377 16.7105 76.7636 16.8364C76.8895 16.9623 77.0498 17.048 77.2244 17.0827C77.399 17.1174 77.5799 17.0996 77.7444 17.0315C77.9089 16.9634 78.0494 16.848 78.1483 16.7C78.2472 16.552 78.3 16.378 78.3 16.2C78.3 15.9613 78.2052 15.7324 78.0364 15.5636C77.8676 15.3948 77.6387 15.3 77.4 15.3Z" fill="url(#paint61_linear)"/>
<path d="M15.75 23.625C16.3713 23.625 16.875 23.1213 16.875 22.5C16.875 21.8787 16.3713 21.375 15.75 21.375C15.1287 21.375 14.625 21.8787 14.625 22.5C14.625 23.1213 15.1287 23.625 15.75 23.625Z" fill="url(#paint62_linear)"/>
<path d="M15.75 24.3C15.394 24.3 15.046 24.1944 14.75 23.9967C14.454 23.7989 14.2233 23.5177 14.087 23.1888C13.9508 22.8599 13.9151 22.498 13.9846 22.1488C14.054 21.7997 14.2255 21.479 14.4772 21.2272C14.7289 20.9755 15.0497 20.8041 15.3988 20.7346C15.748 20.6651 16.1099 20.7008 16.4388 20.837C16.7677 20.9733 17.0489 21.204 17.2466 21.5C17.4444 21.796 17.55 22.144 17.55 22.5C17.55 22.9774 17.3604 23.4352 17.0228 23.7728C16.6852 24.1104 16.2274 24.3 15.75 24.3ZM15.75 22.05C15.661 22.05 15.574 22.0764 15.5 22.1259C15.426 22.1753 15.3683 22.2456 15.3343 22.3278C15.3002 22.41 15.2913 22.5005 15.3086 22.5878C15.326 22.6751 15.3689 22.7553 15.4318 22.8182C15.4947 22.8811 15.5749 22.924 15.6622 22.9414C15.7495 22.9587 15.84 22.9498 15.9222 22.9158C16.0044 22.8817 16.0747 22.824 16.1242 22.75C16.1736 22.676 16.2 22.589 16.2 22.5C16.2 22.3807 16.1526 22.2662 16.0682 22.1818C15.9838 22.0974 15.8693 22.05 15.75 22.05Z" fill="url(#paint63_linear)"/>
<path fill-rule="evenodd" clip-rule="evenodd" d="M39.96 17.55C44.1659 17.5513 48.28 18.7804 51.7973 21.0866C55.3146 23.3929 58.082 26.6758 59.76 30.5325C62.7277 29.5461 65.8741 29.216 68.9819 29.5648C72.0897 29.9136 75.0846 30.9331 77.7598 32.5528C80.435 34.1725 82.7265 36.3538 84.4761 38.9459C86.2256 41.538 87.3915 44.4791 87.893 47.5659C88.3946 50.6527 88.2199 53.8116 87.381 56.8242C86.5421 59.8369 85.059 62.6315 83.0342 65.0148C81.0095 67.3982 78.4913 69.3134 75.6539 70.6282C72.8164 71.943 69.7273 72.626 66.6 72.63H18.36C13.968 72.63 9.75592 70.8853 6.65031 67.7797C3.54471 64.6741 1.8 60.462 1.8 56.07C1.8 51.678 3.54471 47.4659 6.65031 44.3603C9.75592 41.2547 13.968 39.51 18.36 39.51C18.36 39.3885 18.36 39.2715 18.36 39.15C18.36 33.4213 20.6357 27.9273 24.6865 23.8765C28.7373 19.8257 34.2313 17.55 39.96 17.55Z" fill="url(#paint64_linear)"/>
<path d="M39.96 60.75C51.8894 60.75 61.56 51.0793 61.56 39.15C61.56 27.2206 51.8894 17.55 39.96 17.55C28.0307 17.55 18.36 27.2206 18.36 39.15C18.36 51.0793 28.0307 60.75 39.96 60.75Z" fill="url(#paint65_linear)"/>
<path d="M18.36 72.63C27.5058 72.63 34.92 65.2158 34.92 56.07C34.92 46.9242 27.5058 39.51 18.36 39.51C9.21417 39.51 1.8 46.9242 1.8 56.07C1.8 65.2158 9.21417 72.63 18.36 72.63Z" fill="url(#paint66_linear)"/>
<defs>
<linearGradient id="paint0_linear" x1="65.025" y1="74.7405" x2="58.9579" y2="72.1666" gradientUnits="userSpaceOnUse">
<stop stop-color="#69BBFF" stop-opacity="0.6"/>
<stop offset="1" stop-color="#63B5FF" stop-opacity="0.2"/>
</linearGradient>
<linearGradient id="paint1_linear" x1="-85170.6" y1="-38088.5" x2="-85240.6" y2="-38159.2" gradientUnits="userSpaceOnUse">
<stop stop-color="#69BBFF" stop-opacity="0.6"/>
<stop offset="1" stop-color="#63B5FF" stop-opacity="0.2"/>
</linearGradient>
<linearGradient id="paint2_linear" x1="-55666.8" y1="-17820.4" x2="-55705.8" y2="-17851.4" gradientUnits="userSpaceOnUse">
<stop stop-color="#69BBFF" stop-opacity="0.6"/>
<stop offset="1" stop-color="#63B5FF" stop-opacity="0.2"/>
</linearGradient>
<linearGradient id="paint3_linear" x1="-516331" y1="-207952" x2="-516529" y2="-207661" gradientUnits="userSpaceOnUse">
<stop stop-color="#69BBFF" stop-opacity="0.6"/>
<stop offset="1" stop-color="#63B5FF" stop-opacity="0.2"/>
</linearGradient>
<linearGradient id="paint4_linear" x1="55.35" y1="503.775" x2="66.6" y2="503.775" gradientUnits="userSpaceOnUse">
<stop stop-color="#69BBFF" stop-opacity="0.6"/>
<stop offset="1" stop-color="#63B5FF" stop-opacity="0.2"/>
</linearGradient>
<linearGradient id="paint5_linear" x1="-2423.39" y1="-7516.91" x2="-2419.79" y2="-7509.71" gradientUnits="userSpaceOnUse">
<stop stop-color="#69BBFF" stop-opacity="0.6"/>
<stop offset="1" stop-color="#63B5FF" stop-opacity="0.2"/>
</linearGradient>
<linearGradient id="paint6_linear" x1="-137672" y1="-27079.6" x2="-137643" y2="-27030.1" gradientUnits="userSpaceOnUse">
<stop stop-color="#69BBFF" stop-opacity="0.6"/>
<stop offset="1" stop-color="#63B5FF" stop-opacity="0.2"/>
</linearGradient>
<linearGradient id="paint7_linear" x1="-18255.6" y1="-17814.9" x2="-18274.8" y2="-17830.2" gradientUnits="userSpaceOnUse">
<stop stop-color="#69BBFF" stop-opacity="0.6"/>
<stop offset="1" stop-color="#63B5FF" stop-opacity="0.2"/>
</linearGradient>
<linearGradient id="paint8_linear" x1="-56811.6" y1="-22183.7" x2="-56718.6" y2="-22242.5" gradientUnits="userSpaceOnUse">
<stop stop-color="#69BBFF" stop-opacity="0.6"/>
<stop offset="1" stop-color="#63B5FF" stop-opacity="0.2"/>
</linearGradient>
<linearGradient id="paint9_linear" x1="-65980.9" y1="-44234.7" x2="-65973.3" y2="-44218.4" gradientUnits="userSpaceOnUse">
<stop stop-color="#69BBFF" stop-opacity="0.6"/>
<stop offset="1" stop-color="#63B5FF" stop-opacity="0.2"/>
</linearGradient>
<linearGradient id="paint10_linear" x1="-322896" y1="-120537" x2="-323017" y2="-120683" gradientUnits="userSpaceOnUse">
<stop stop-color="#69BBFF" stop-opacity="0.6"/>
<stop offset="1" stop-color="#63B5FF" stop-opacity="0.2"/>
</linearGradient>
<linearGradient id="paint11_linear" x1="-76656.7" y1="-90569.1" x2="-76544" y2="-90497.6" gradientUnits="userSpaceOnUse">
<stop stop-color="#69BBFF" stop-opacity="0.6"/>
<stop offset="1" stop-color="#63B5FF" stop-opacity="0.2"/>
</linearGradient>
<linearGradient id="paint12_linear" x1="-93083.4" y1="-31685.6" x2="-93062.6" y2="-31658" gradientUnits="userSpaceOnUse">
<stop stop-color="#69BBFF" stop-opacity="0.6"/>
<stop offset="1" stop-color="#63B5FF" stop-opacity="0.2"/>
</linearGradient>
<linearGradient id="paint13_linear" x1="-98722.1" y1="-50507.9" x2="-98815.9" y2="-50566.4" gradientUnits="userSpaceOnUse">
<stop stop-color="#69BBFF" stop-opacity="0.6"/>
<stop offset="1" stop-color="#63B5FF" stop-opacity="0.2"/>
</linearGradient>
<linearGradient id="paint14_linear" x1="-20756.5" y1="-31673.8" x2="-20711" y2="-31705.3" gradientUnits="userSpaceOnUse">
<stop stop-color="#69BBFF" stop-opacity="0.6"/>
<stop offset="1" stop-color="#63B5FF" stop-opacity="0.2"/>
</linearGradient>
<linearGradient id="paint15_linear" x1="-33328.9" y1="-31789.1" x2="-33268.9" y2="-31829.9" gradientUnits="userSpaceOnUse">
<stop stop-color="#69BBFF" stop-opacity="0.6"/>
<stop offset="1" stop-color="#63B5FF" stop-opacity="0.2"/>
</linearGradient>
<linearGradient id="paint16_linear" x1="-110575" y1="-81618.7" x2="-110424" y2="-81524.7" gradientUnits="userSpaceOnUse">
<stop stop-color="#69BBFF" stop-opacity="0.6"/>
<stop offset="1" stop-color="#63B5FF" stop-opacity="0.2"/>
</linearGradient>
<linearGradient id="paint17_linear" x1="-299674" y1="-100153" x2="-299452" y2="-100388" gradientUnits="userSpaceOnUse">
<stop stop-color="#69BBFF" stop-opacity="0.6"/>
<stop offset="1" stop-color="#63B5FF" stop-opacity="0.2"/>
</linearGradient>
<linearGradient id="paint18_linear" x1="-164118" y1="-21686.3" x2="-164153" y2="-21606.7" gradientUnits="userSpaceOnUse">
<stop stop-color="#69BBFF" stop-opacity="0.6"/>
<stop offset="1" stop-color="#63B5FF" stop-opacity="0.2"/>
</linearGradient>
<linearGradient id="paint19_linear" x1="-102418" y1="-99956.9" x2="-102537" y2="-100062" gradientUnits="userSpaceOnUse">
<stop stop-color="#69BBFF" stop-opacity="0.6"/>
<stop offset="1" stop-color="#63B5FF" stop-opacity="0.2"/>
</linearGradient>
<linearGradient id="paint20_linear" x1="-65039.3" y1="-26574" x2="-65061.8" y2="-26529" gradientUnits="userSpaceOnUse">
<stop stop-color="#69BBFF" stop-opacity="0.6"/>
<stop offset="1" stop-color="#63B5FF" stop-opacity="0.2"/>
</linearGradient>
<linearGradient id="paint21_linear" x1="-69354.6" y1="-57349.2" x2="-69380.3" y2="-57286.5" gradientUnits="userSpaceOnUse">
<stop stop-color="#69BBFF" stop-opacity="0.6"/>
<stop offset="1" stop-color="#63B5FF" stop-opacity="0.2"/>
</linearGradient>
<linearGradient id="paint22_linear" x1="-222848" y1="-179440" x2="-222922" y2="-179258" gradientUnits="userSpaceOnUse">
<stop stop-color="#69BBFF" stop-opacity="0.6"/>
<stop offset="1" stop-color="#63B5FF" stop-opacity="0.2"/>
</linearGradient>
<linearGradient id="paint23_linear" x1="-51265.9" y1="-13479.5" x2="-51284.8" y2="-13446" gradientUnits="userSpaceOnUse">
<stop stop-color="#69BBFF" stop-opacity="0.6"/>
<stop offset="1" stop-color="#63B5FF" stop-opacity="0.2"/>
</linearGradient>
<linearGradient id="paint24_linear" x1="427.949" y1="460.575" x2="439.199" y2="460.575" gradientUnits="userSpaceOnUse">
<stop stop-color="#69BBFF" stop-opacity="0.6"/>
<stop offset="1" stop-color="#63B5FF" stop-opacity="0.2"/>
</linearGradient>
<linearGradient id="paint25_linear" x1="-2050.78" y1="-7488.11" x2="-2047.18" y2="-7480.91" gradientUnits="userSpaceOnUse">
<stop stop-color="#69BBFF" stop-opacity="0.6"/>
<stop offset="1" stop-color="#63B5FF" stop-opacity="0.2"/>
</linearGradient>
<linearGradient id="paint26_linear" x1="606.6" y1="642.825" x2="628.65" y2="642.825" gradientUnits="userSpaceOnUse">
<stop stop-color="#69BBFF" stop-opacity="0.6"/>
<stop offset="1" stop-color="#63B5FF" stop-opacity="0.2"/>
</linearGradient>
<linearGradient id="paint27_linear" x1="-4172.7" y1="-13927.4" x2="-4167.35" y2="-13916.1" gradientUnits="userSpaceOnUse">
<stop stop-color="#69BBFF" stop-opacity="0.6"/>
<stop offset="1" stop-color="#63B5FF" stop-opacity="0.2"/>
</linearGradient>
<linearGradient id="paint28_linear" x1="492.75" y1="514.575" x2="504" y2="514.575" gradientUnits="userSpaceOnUse">
<stop stop-color="#69BBFF" stop-opacity="0.6"/>
<stop offset="1" stop-color="#63B5FF" stop-opacity="0.2"/>
</linearGradient>
<linearGradient id="paint29_linear" x1="-1985.99" y1="-7524.11" x2="-1982.39" y2="-7516.91" gradientUnits="userSpaceOnUse">
<stop stop-color="#69BBFF" stop-opacity="0.6"/>
<stop offset="1" stop-color="#63B5FF" stop-opacity="0.2"/>
</linearGradient>
<linearGradient id="paint30_linear" x1="101.25" y1="528.075" x2="112.5" y2="528.075" gradientUnits="userSpaceOnUse">
<stop stop-color="#69BBFF" stop-opacity="0.6"/>
<stop offset="1" stop-color="#63B5FF" stop-opacity="0.2"/>
</linearGradient>
<linearGradient id="paint31_linear" x1="-2377.48" y1="-7533.11" x2="-2373.88" y2="-7525.91" gradientUnits="userSpaceOnUse">
<stop stop-color="#69BBFF" stop-opacity="0.6"/>
<stop offset="1" stop-color="#63B5FF" stop-opacity="0.2"/>
</linearGradient>
<linearGradient id="paint32_linear" x1="39.15" y1="455.176" x2="50.4" y2="455.176" gradientUnits="userSpaceOnUse">
<stop stop-color="#69BBFF" stop-opacity="0.6"/>
<stop offset="1" stop-color="#63B5FF" stop-opacity="0.2"/>
</linearGradient>
<linearGradient id="paint33_linear" x1="-2439.59" y1="-7484.51" x2="-2435.99" y2="-7477.31" gradientUnits="userSpaceOnUse">
<stop stop-color="#69BBFF" stop-opacity="0.6"/>
<stop offset="1" stop-color="#63B5FF" stop-opacity="0.2"/>
</linearGradient>
<linearGradient id="paint34_linear" x1="174.6" y1="614.025" x2="196.65" y2="614.025" gradientUnits="userSpaceOnUse">
<stop stop-color="#69BBFF" stop-opacity="0.6"/>
<stop offset="1" stop-color="#63B5FF" stop-opacity="0.2"/>
</linearGradient>
<linearGradient id="paint35_linear" x1="-4604.72" y1="-13905.8" x2="-4599.36" y2="-13894.5" gradientUnits="userSpaceOnUse">
<stop stop-color="#69BBFF" stop-opacity="0.6"/>
<stop offset="1" stop-color="#63B5FF" stop-opacity="0.2"/>
</linearGradient>
<linearGradient id="paint36_linear" x1="19.8" y1="635.625" x2="41.85" y2="635.625" gradientUnits="userSpaceOnUse">
<stop stop-color="#69BBFF" stop-opacity="0.6"/>
<stop offset="1" stop-color="#63B5FF" stop-opacity="0.2"/>
</linearGradient>
<linearGradient id="paint37_linear" x1="-4759.52" y1="-13922" x2="-4754.16" y2="-13910.7" gradientUnits="userSpaceOnUse">
<stop stop-color="#69BBFF" stop-opacity="0.6"/>
<stop offset="1" stop-color="#63B5FF" stop-opacity="0.2"/>
</linearGradient>
<linearGradient id="paint38_linear" x1="9.45" y1="201.375" x2="20.7" y2="201.375" gradientUnits="userSpaceOnUse">
<stop stop-color="#69BBFF" stop-opacity="0.6"/>
<stop offset="1" stop-color="#63B5FF" stop-opacity="0.2"/>
</linearGradient>
<linearGradient id="paint39_linear" x1="-2469.29" y1="-7315.32" x2="-2465.69" y2="-7308.12" gradientUnits="userSpaceOnUse">
<stop stop-color="#69BBFF" stop-opacity="0.6"/>
<stop offset="1" stop-color="#63B5FF" stop-opacity="0.2"/>
</linearGradient>
<linearGradient id="paint40_linear" x1="417.15" y1="136.575" x2="428.4" y2="136.575" gradientUnits="userSpaceOnUse">
<stop stop-color="#69BBFF" stop-opacity="0.6"/>
<stop offset="1" stop-color="#63B5FF" stop-opacity="0.2"/>
</linearGradient>
<linearGradient id="paint41_linear" x1="-2061.58" y1="-7272.12" x2="-2057.98" y2="-7264.92" gradientUnits="userSpaceOnUse">
<stop stop-color="#69BBFF" stop-opacity="0.6"/>
<stop offset="1" stop-color="#63B5FF" stop-opacity="0.2"/>
</linearGradient>
<linearGradient id="paint42_linear" x1="444.15" y1="28.575" x2="455.4" y2="28.575" gradientUnits="userSpaceOnUse">
<stop stop-color="#69BBFF" stop-opacity="0.6"/>
<stop offset="1" stop-color="#63B5FF" stop-opacity="0.2"/>
</linearGradient>
<linearGradient id="paint43_linear" x1="-2034.59" y1="-7200.11" x2="-2030.99" y2="-7192.91" gradientUnits="userSpaceOnUse">
<stop stop-color="#69BBFF" stop-opacity="0.6"/>
<stop offset="1" stop-color="#63B5FF" stop-opacity="0.2"/>
</linearGradient>
<linearGradient id="paint44_linear" x1="414.451" y1="47.475" x2="425.701" y2="47.475" gradientUnits="userSpaceOnUse">
<stop stop-color="#69BBFF" stop-opacity="0.6"/>
<stop offset="1" stop-color="#63B5FF" stop-opacity="0.2"/>
</linearGradient>
<linearGradient id="paint45_linear" x1="-2064.28" y1="-7212.71" x2="-2060.68" y2="-7205.51" gradientUnits="userSpaceOnUse">
<stop stop-color="#69BBFF" stop-opacity="0.6"/>
<stop offset="1" stop-color="#63B5FF" stop-opacity="0.2"/>
</linearGradient>
<linearGradient id="paint46_linear" x1="511.65" y1="150.075" x2="522.9" y2="150.075" gradientUnits="userSpaceOnUse">
<stop stop-color="#69BBFF" stop-opacity="0.6"/>
<stop offset="1" stop-color="#63B5FF" stop-opacity="0.2"/>
</linearGradient>
<linearGradient id="paint47_linear" x1="-1967.09" y1="-7281.11" x2="-1963.49" y2="-7273.91" gradientUnits="userSpaceOnUse">
<stop stop-color="#69BBFF" stop-opacity="0.6"/>
<stop offset="1" stop-color="#63B5FF" stop-opacity="0.2"/>
</linearGradient>
<linearGradient id="paint48_linear" x1="522.45" y1="31.275" x2="533.7" y2="31.275" gradientUnits="userSpaceOnUse">
<stop stop-color="#69BBFF" stop-opacity="0.6"/>
<stop offset="1" stop-color="#63B5FF" stop-opacity="0.2"/>
</linearGradient>
<linearGradient id="paint49_linear" x1="-1956.28" y1="-7201.92" x2="-1952.68" y2="-7194.72" gradientUnits="userSpaceOnUse">
<stop stop-color="#69BBFF" stop-opacity="0.6"/>
<stop offset="1" stop-color="#63B5FF" stop-opacity="0.2"/>
</linearGradient>
<linearGradient id="paint50_linear" x1="174.6" y1="95.625" x2="196.65" y2="95.625" gradientUnits="userSpaceOnUse">
<stop stop-color="#69BBFF" stop-opacity="0.6"/>
<stop offset="1" stop-color="#63B5FF" stop-opacity="0.2"/>
</linearGradient>
<linearGradient id="paint51_linear" x1="-4604.72" y1="-13517" x2="-4599.36" y2="-13505.7" gradientUnits="userSpaceOnUse">
<stop stop-color="#69BBFF" stop-opacity="0.6"/>
<stop offset="1" stop-color="#63B5FF" stop-opacity="0.2"/>
</linearGradient>
<linearGradient id="paint52_linear" x1="30.6" y1="70.425" x2="52.65" y2="70.425" gradientUnits="userSpaceOnUse">
<stop stop-color="#69BBFF" stop-opacity="0.6"/>
<stop offset="1" stop-color="#63B5FF" stop-opacity="0.2"/>
</linearGradient>
<linearGradient id="paint53_linear" x1="-4748.72" y1="-13498.1" x2="-4743.36" y2="-13486.8" gradientUnits="userSpaceOnUse">
<stop stop-color="#69BBFF" stop-opacity="0.6"/>
<stop offset="1" stop-color="#63B5FF" stop-opacity="0.2"/>
</linearGradient>
<linearGradient id="paint54_linear" x1="55.8" y1="138.825" x2="77.85" y2="138.825" gradientUnits="userSpaceOnUse">
<stop stop-color="#69BBFF" stop-opacity="0.6"/>
<stop offset="1" stop-color="#63B5FF" stop-opacity="0.2"/>
</linearGradient>
<linearGradient id="paint55_linear" x1="-4723.52" y1="-13549.4" x2="-4718.16" y2="-13538.1" gradientUnits="userSpaceOnUse">
<stop stop-color="#69BBFF" stop-opacity="0.6"/>
<stop offset="1" stop-color="#63B5FF" stop-opacity="0.2"/>
</linearGradient>
<linearGradient id="paint56_linear" x1="9" y1="178.425" x2="31.05" y2="178.425" gradientUnits="userSpaceOnUse">
<stop stop-color="#69BBFF" stop-opacity="0.6"/>
<stop offset="1" stop-color="#63B5FF" stop-opacity="0.2"/>
</linearGradient>
<linearGradient id="paint57_linear" x1="-4770.32" y1="-13579.1" x2="-4764.96" y2="-13567.8" gradientUnits="userSpaceOnUse">
<stop stop-color="#69BBFF" stop-opacity="0.6"/>
<stop offset="1" stop-color="#63B5FF" stop-opacity="0.2"/>
</linearGradient>
<linearGradient id="paint58_linear" x1="675" y1="95.625" x2="697.05" y2="95.625" gradientUnits="userSpaceOnUse">
<stop stop-color="#69BBFF" stop-opacity="0.6"/>
<stop offset="1" stop-color="#63B5FF" stop-opacity="0.2"/>
</linearGradient>
<linearGradient id="paint59_linear" x1="-4104.32" y1="-13517" x2="-4098.97" y2="-13505.7" gradientUnits="userSpaceOnUse">
<stop stop-color="#69BBFF" stop-opacity="0.6"/>
<stop offset="1" stop-color="#63B5FF" stop-opacity="0.2"/>
</linearGradient>
<linearGradient id="paint60_linear" x1="606.6" y1="128.025" x2="628.65" y2="128.025" gradientUnits="userSpaceOnUse">
<stop stop-color="#69BBFF" stop-opacity="0.6"/>
<stop offset="1" stop-color="#63B5FF" stop-opacity="0.2"/>
</linearGradient>
<linearGradient id="paint61_linear" x1="-4172.7" y1="-13541.3" x2="-4167.35" y2="-13530" gradientUnits="userSpaceOnUse">
<stop stop-color="#69BBFF" stop-opacity="0.6"/>
<stop offset="1" stop-color="#63B5FF" stop-opacity="0.2"/>
</linearGradient>
<linearGradient id="paint62_linear" x1="87.75" y1="133.875" x2="99" y2="133.875" gradientUnits="userSpaceOnUse">
<stop stop-color="#69BBFF" stop-opacity="0.6"/>
<stop offset="1" stop-color="#63B5FF" stop-opacity="0.2"/>
</linearGradient>
<linearGradient id="paint63_linear" x1="-2390.99" y1="-7270.31" x2="-2387.39" y2="-7263.11" gradientUnits="userSpaceOnUse">
<stop stop-color="#69BBFF" stop-opacity="0.6"/>
<stop offset="1" stop-color="#63B5FF" stop-opacity="0.2"/>
</linearGradient>
<linearGradient id="paint64_linear" x1="79.902" y1="59.8095" x2="36.5429" y2="28.5013" gradientUnits="userSpaceOnUse">
<stop stop-color="#257AFF"/>
<stop offset="1" stop-color="#69BBFF"/>
</linearGradient>
<linearGradient id="paint65_linear" x1="-795184" y1="-2.12553e+06" x2="-797008" y2="-2.12213e+06" gradientUnits="userSpaceOnUse">
<stop stop-color="#257AFF"/>
<stop offset="1" stop-color="#69BBFF"/>
</linearGradient>
<linearGradient id="paint66_linear" x1="-466403" y1="-1.24502e+06" x2="-465502" y2="-1.24258e+06" gradientUnits="userSpaceOnUse">
<stop stop-color="#257AFF"/>
<stop offset="1" stop-color="#69BBFF"/>
</linearGradient>
</defs>
</svg>
