<svg width="90" height="90" viewBox="0 0 90 90" fill="none" xmlns="http://www.w3.org/2000/svg">
<path fill-rule="evenodd" clip-rule="evenodd" d="M45 0V45L76.8214 13.1786C84.9719 21.3291 90 32.5791 90 45C90 69.8418 69.8418 90 45 90C20.1582 90 0 69.8418 0 45C0 20.1582 20.1582 0 45 0Z" fill="url(#paint0_linear)"/>
<path d="M45 78.0612C63.2592 78.0612 78.0612 63.2592 78.0612 45C78.0612 26.7408 63.2592 11.9388 45 11.9388C26.7408 11.9388 11.9388 26.7408 11.9388 45C11.9388 63.2592 26.7408 78.0612 45 78.0612Z" fill="url(#paint1_linear)"/>
<path d="M45 67.9592C57.68 67.9592 67.9592 57.68 67.9592 45C67.9592 32.32 57.68 22.0408 45 22.0408C32.32 22.0408 22.0408 32.32 22.0408 45C22.0408 57.68 32.32 67.9592 45 67.9592Z" fill="url(#paint2_linear)"/>
<path d="M45 64.2857C55.6512 64.2857 64.2857 55.6512 64.2857 45C64.2857 34.3488 55.6512 25.7143 45 25.7143C34.3488 25.7143 25.7143 34.3488 25.7143 45C25.7143 55.6512 34.3488 64.2857 45 64.2857Z" fill="url(#paint3_linear)"/>
<path d="M29.3877 45.9183C29.8949 45.9183 30.3061 45.5072 30.3061 45C30.3061 44.4928 29.8949 44.0816 29.3877 44.0816C28.8805 44.0816 28.4694 44.4928 28.4694 45C28.4694 45.5072 28.8805 45.9183 29.3877 45.9183Z" fill="url(#paint4_linear)"/>
<path d="M60.6122 45.9183C61.1194 45.9183 61.5306 45.5072 61.5306 45C61.5306 44.4928 61.1194 44.0816 60.6122 44.0816C60.105 44.0816 59.6938 44.4928 59.6938 45C59.6938 45.5072 60.105 45.9183 60.6122 45.9183Z" fill="url(#paint5_linear)"/>
<path d="M45 30.3061C45.5072 30.3061 45.9183 29.8949 45.9183 29.3877C45.9183 28.8805 45.5072 28.4694 45 28.4694C44.4928 28.4694 44.0816 28.8805 44.0816 29.3877C44.0816 29.8949 44.4928 30.3061 45 30.3061Z" fill="url(#paint6_linear)"/>
<path d="M45 61.5306C45.5072 61.5306 45.9183 61.1194 45.9183 60.6122C45.9183 60.105 45.5072 59.6938 45 59.6938C44.4928 59.6938 44.0816 60.105 44.0816 60.6122C44.0816 61.1194 44.4928 61.5306 45 61.5306Z" fill="url(#paint7_linear)"/>
<path d="M31.477 38.1122C31.9842 38.1122 32.3954 37.7011 32.3954 37.1939C32.3954 36.6867 31.9842 36.2755 31.477 36.2755C30.9698 36.2755 30.5587 36.6867 30.5587 37.1939C30.5587 37.7011 30.9698 38.1122 31.477 38.1122Z" fill="url(#paint8_linear)"/>
<path d="M58.5229 53.7244C59.0301 53.7244 59.4413 53.3133 59.4413 52.8061C59.4413 52.2989 59.0301 51.8877 58.5229 51.8877C58.0157 51.8877 57.6046 52.2989 57.6046 52.8061C57.6046 53.3133 58.0157 53.7244 58.5229 53.7244Z" fill="url(#paint9_linear)"/>
<path d="M52.8061 32.3954C53.3133 32.3954 53.7244 31.9842 53.7244 31.477C53.7244 30.9698 53.3133 30.5587 52.8061 30.5587C52.2989 30.5587 51.8877 30.9698 51.8877 31.477C51.8877 31.9842 52.2989 32.3954 52.8061 32.3954Z" fill="url(#paint10_linear)"/>
<path d="M37.1939 59.4413C37.7011 59.4413 38.1122 59.0301 38.1122 58.5229C38.1122 58.0157 37.7011 57.6046 37.1939 57.6046C36.6867 57.6046 36.2755 58.0157 36.2755 58.5229C36.2755 59.0301 36.6867 59.4413 37.1939 59.4413Z" fill="url(#paint11_linear)"/>
<path d="M37.1939 32.3954C37.7011 32.3954 38.1122 31.9842 38.1122 31.477C38.1122 30.9698 37.7011 30.5587 37.1939 30.5587C36.6867 30.5587 36.2755 30.9698 36.2755 31.477C36.2755 31.9842 36.6867 32.3954 37.1939 32.3954Z" fill="url(#paint12_linear)"/>
<path d="M52.8061 59.4413C53.3133 59.4413 53.7244 59.0301 53.7244 58.5229C53.7244 58.0157 53.3133 57.6046 52.8061 57.6046C52.2989 57.6046 51.8877 58.0157 51.8877 58.5229C51.8877 59.0301 52.2989 59.4413 52.8061 59.4413Z" fill="url(#paint13_linear)"/>
<path d="M58.5229 38.1122C59.0301 38.1122 59.4413 37.7011 59.4413 37.1939C59.4413 36.6867 59.0301 36.2755 58.5229 36.2755C58.0157 36.2755 57.6046 36.6867 57.6046 37.1939C57.6046 37.7011 58.0157 38.1122 58.5229 38.1122Z" fill="url(#paint14_linear)"/>
<path d="M31.477 53.7244C31.9842 53.7244 32.3954 53.3133 32.3954 52.8061C32.3954 52.2989 31.9842 51.8877 31.477 51.8877C30.9698 51.8877 30.5587 52.2989 30.5587 52.8061C30.5587 53.3133 30.9698 53.7244 31.477 53.7244Z" fill="url(#paint15_linear)"/>
<path fill-rule="evenodd" clip-rule="evenodd" d="M45 22.5C51.727 22.5 57.8112 25.2321 62.2194 29.6173L45 46.8367V22.5Z" fill="url(#paint16_linear)"/>
<path d="M45 46.148V33.2908" stroke="url(#paint17_linear)" stroke-width="8" stroke-miterlimit="10" stroke-linecap="round"/>
<path d="M51.4286 39.949L45 46.148" stroke="url(#paint18_linear)" stroke-width="8" stroke-miterlimit="10" stroke-linecap="round"/>
<path d="M45 47.2959C46.0144 47.2959 46.8367 46.4736 46.8367 45.4592C46.8367 44.4448 46.0144 43.6224 45 43.6224C43.9856 43.6224 43.1633 44.4448 43.1633 45.4592C43.1633 46.4736 43.9856 47.2959 45 47.2959Z" fill="url(#paint19_linear)"/>
<defs>
<linearGradient id="paint0_linear" x1="-0.00146939" y1="45.0029" x2="89.9985" y2="45.0029" gradientUnits="userSpaceOnUse">
<stop stop-color="#69BBFF" stop-opacity="0.1"/>
<stop offset="1" stop-color="#257AFF" stop-opacity="0"/>
</linearGradient>
<linearGradient id="paint1_linear" x1="15.9855" y1="12.0934" x2="61.6959" y2="63.9401" gradientUnits="userSpaceOnUse">
<stop stop-color="#69BBFF" stop-opacity="0.1"/>
<stop offset="1" stop-color="#257AFF" stop-opacity="0"/>
</linearGradient>
<linearGradient id="paint2_linear" x1="67.9592" y1="67.9592" x2="22.0408" y2="22.0408" gradientUnits="userSpaceOnUse">
<stop stop-color="#69BBFF"/>
<stop offset="1" stop-color="#257AFF"/>
</linearGradient>
<linearGradient id="paint3_linear" x1="30.0933" y1="29.5371" x2="59.9938" y2="60.5524" gradientUnits="userSpaceOnUse">
<stop stop-color="white" stop-opacity="0.8"/>
<stop offset="1" stop-color="white"/>
</linearGradient>
<linearGradient id="paint4_linear" x1="28.4694" y1="44.0816" x2="30.3061" y2="45.9183" gradientUnits="userSpaceOnUse">
<stop stop-color="#69BBFF"/>
<stop offset="1" stop-color="#257AFF"/>
</linearGradient>
<linearGradient id="paint5_linear" x1="59.6938" y1="44.0816" x2="61.5306" y2="45.9183" gradientUnits="userSpaceOnUse">
<stop stop-color="#69BBFF"/>
<stop offset="1" stop-color="#257AFF"/>
</linearGradient>
<linearGradient id="paint6_linear" x1="45.9183" y1="28.4694" x2="44.0816" y2="30.3061" gradientUnits="userSpaceOnUse">
<stop stop-color="#69BBFF"/>
<stop offset="1" stop-color="#257AFF"/>
</linearGradient>
<linearGradient id="paint7_linear" x1="45.9183" y1="59.6938" x2="44.0816" y2="61.5306" gradientUnits="userSpaceOnUse">
<stop stop-color="#69BBFF"/>
<stop offset="1" stop-color="#257AFF"/>
</linearGradient>
<linearGradient id="paint8_linear" x1="31.1431" y1="35.9396" x2="31.8154" y2="38.4487" gradientUnits="userSpaceOnUse">
<stop stop-color="#69BBFF"/>
<stop offset="1" stop-color="#257AFF"/>
</linearGradient>
<linearGradient id="paint9_linear" x1="58.1844" y1="51.5518" x2="58.8567" y2="54.0609" gradientUnits="userSpaceOnUse">
<stop stop-color="#69BBFF"/>
<stop offset="1" stop-color="#257AFF"/>
</linearGradient>
<linearGradient id="paint10_linear" x1="54.0602" y1="31.143" x2="51.5511" y2="31.8153" gradientUnits="userSpaceOnUse">
<stop stop-color="#69BBFF"/>
<stop offset="1" stop-color="#257AFF"/>
</linearGradient>
<linearGradient id="paint11_linear" x1="38.448" y1="58.1843" x2="35.939" y2="58.8566" gradientUnits="userSpaceOnUse">
<stop stop-color="#69BBFF"/>
<stop offset="1" stop-color="#257AFF"/>
</linearGradient>
<linearGradient id="paint12_linear" x1="37.5296" y1="30.2247" x2="36.8573" y2="32.7337" gradientUnits="userSpaceOnUse">
<stop stop-color="#69BBFF"/>
<stop offset="1" stop-color="#257AFF"/>
</linearGradient>
<linearGradient id="paint13_linear" x1="53.1418" y1="57.266" x2="52.4695" y2="59.775" gradientUnits="userSpaceOnUse">
<stop stop-color="#69BBFF"/>
<stop offset="1" stop-color="#257AFF"/>
</linearGradient>
<linearGradient id="paint14_linear" x1="59.7751" y1="37.5295" x2="57.2661" y2="36.8572" gradientUnits="userSpaceOnUse">
<stop stop-color="#69BBFF"/>
<stop offset="1" stop-color="#257AFF"/>
</linearGradient>
<linearGradient id="paint15_linear" x1="32.7338" y1="53.1417" x2="30.2248" y2="52.4694" gradientUnits="userSpaceOnUse">
<stop stop-color="#69BBFF"/>
<stop offset="1" stop-color="#257AFF"/>
</linearGradient>
<linearGradient id="paint16_linear" x1="50.025" y1="32.7053" x2="58.774" y2="39.4583" gradientUnits="userSpaceOnUse">
<stop stop-color="#69BBFF" stop-opacity="0.1"/>
<stop offset="1" stop-color="#257AFF" stop-opacity="0"/>
</linearGradient>
<linearGradient id="paint17_linear" x1="-nan" y1="-nan" x2="-nan" y2="-nan" gradientUnits="userSpaceOnUse">
<stop stop-color="#69BBFF"/>
<stop offset="1" stop-color="#257AFF"/>
</linearGradient>
<linearGradient id="paint18_linear" x1="44.0816" y1="43.0485" x2="52.3469" y2="43.0485" gradientUnits="userSpaceOnUse">
<stop stop-color="#69BBFF"/>
<stop offset="1" stop-color="#257AFF"/>
</linearGradient>
<linearGradient id="paint19_linear" x1="43.1633" y1="43.6224" x2="46.8367" y2="47.2959" gradientUnits="userSpaceOnUse">
<stop stop-color="#69BBFF"/>
<stop offset="1" stop-color="#257AFF"/>
</linearGradient>
</defs>
</svg>
