<svg width="126" height="90" viewBox="0 0 126 90" fill="none" xmlns="http://www.w3.org/2000/svg">
<path d="M126 0H0V90H126V0Z" fill="white" fill-opacity="0.02"/>
<path fill-rule="evenodd" clip-rule="evenodd" d="M70.0714 36H107.357C108.418 36 109.286 36.8679 109.286 37.9286V82.9286C109.286 83.9893 108.418 84.8571 107.357 84.8571H70.0714C69.0107 84.8571 68.1428 83.9893 68.1428 82.9286V37.9286C68.1428 36.8679 69.0107 36 70.0714 36Z" fill="url(#paint0_linear)"/>
<path fill-rule="evenodd" clip-rule="evenodd" d="M70.0714 36H107.357C108.418 36 109.286 36.8679 109.286 37.9286V82.9286C109.286 83.9893 108.418 84.8571 107.357 84.8571H70.0714C69.0107 84.8571 68.1428 83.9893 68.1428 82.9286V37.9286C68.1428 36.8679 69.0107 36 70.0714 36Z" fill="white" fill-opacity="0.9"/>
<path fill-rule="evenodd" clip-rule="evenodd" d="M98.8072 52.2642L89.1644 42.6214C88.7786 42.2357 88.2322 42.0107 87.6536 42.0107H80.1322C78.9429 42.0107 77.9786 42.975 77.9786 44.1643V51.6535C77.9786 52.2321 78.2036 52.7785 78.6215 53.1642L88.2644 62.8071C88.6501 63.1928 89.1965 63.4178 89.7751 63.4178C90.3537 63.4178 90.9001 63.1928 91.2858 62.775L98.8072 55.2857C99.1929 54.9 99.4501 54.3535 99.4501 53.775C99.4179 53.1964 99.1929 52.65 98.8072 52.2642ZM81.7394 47.3464C80.8394 47.3464 80.1322 46.6392 80.1322 45.7392C80.1322 44.8393 80.8394 44.1321 81.7394 44.1321C82.6394 44.1321 83.3465 44.8393 83.3465 45.7392C83.3465 46.6392 82.6394 47.3464 81.7394 47.3464Z" fill="url(#paint1_linear)"/>
<path fill-rule="evenodd" clip-rule="evenodd" d="M75.5357 67.5H101.893C102.439 67.5 102.857 67.9179 102.857 68.4643C102.857 69.0107 102.439 69.4286 101.893 69.4286H75.5357C74.9893 69.4286 74.5714 69.0107 74.5714 68.4643C74.5714 67.9179 74.9893 67.5 75.5357 67.5Z" fill="url(#paint2_linear)"/>
<path fill-rule="evenodd" clip-rule="evenodd" d="M75.5357 72H101.893C102.439 72 102.857 72.4179 102.857 72.9643C102.857 73.5107 102.439 73.9286 101.893 73.9286H75.5357C74.9893 73.9286 74.5714 73.5107 74.5714 72.9643C74.5714 72.4179 74.9893 72 75.5357 72Z" fill="url(#paint3_linear)"/>
<path fill-rule="evenodd" clip-rule="evenodd" d="M75.5357 76.5H83.5714C84.1178 76.5 84.5357 76.9179 84.5357 77.4643C84.5357 78.0107 84.1178 78.4286 83.5714 78.4286H75.5357C74.9893 78.4286 74.5714 78.0107 74.5714 77.4643C74.5714 76.9179 74.9893 76.5 75.5357 76.5Z" fill="url(#paint4_linear)"/>
<path fill-rule="evenodd" clip-rule="evenodd" d="M57.2143 28.2857H94.5C95.5607 28.2857 96.4286 29.1536 96.4286 30.2143V75.2143C96.4286 76.275 95.5607 77.1429 94.5 77.1429H57.2143C56.1536 77.1429 55.2857 76.275 55.2857 75.2143V30.2143C55.2857 29.1536 56.1536 28.2857 57.2143 28.2857Z" fill="url(#paint5_linear)"/>
<path fill-rule="evenodd" clip-rule="evenodd" d="M57.2143 28.2857H94.5C95.5607 28.2857 96.4286 29.1536 96.4286 30.2143V75.2143C96.4286 76.275 95.5607 77.1429 94.5 77.1429H57.2143C56.1536 77.1429 55.2857 76.275 55.2857 75.2143V30.2143C55.2857 29.1536 56.1536 28.2857 57.2143 28.2857Z" fill="white" fill-opacity="0.7"/>
<path fill-rule="evenodd" clip-rule="evenodd" d="M85.95 44.55L76.3072 34.9071C75.9215 34.5214 75.375 34.2964 74.7965 34.2964H67.275C66.0857 34.2964 65.1215 35.2607 65.1215 36.45V43.9392C65.1215 44.5178 65.3465 45.0642 65.7643 45.45L75.4072 55.0928C75.7929 55.4785 76.3393 55.7035 76.9179 55.7035C77.4965 55.7035 78.0429 55.4785 78.4286 55.0607L85.95 47.5714C86.3358 47.1857 86.5929 46.6392 86.5929 46.0607C86.5608 45.4821 86.3358 44.9357 85.95 44.55ZM68.8822 39.6321C67.9822 39.6321 67.275 38.925 67.275 38.025C67.275 37.125 67.9822 36.4178 68.8822 36.4178C69.7822 36.4178 70.4893 37.125 70.4893 38.025C70.4893 38.925 69.7822 39.6321 68.8822 39.6321Z" fill="url(#paint6_linear)"/>
<path fill-rule="evenodd" clip-rule="evenodd" d="M62.6786 59.7857H89.0357C89.5822 59.7857 90 60.2036 90 60.75C90 61.2964 89.5822 61.7143 89.0357 61.7143H62.6786C62.1322 61.7143 61.7143 61.2964 61.7143 60.75C61.7143 60.2036 62.1322 59.7857 62.6786 59.7857Z" fill="url(#paint7_linear)"/>
<path fill-rule="evenodd" clip-rule="evenodd" d="M62.6786 64.2857H89.0357C89.5822 64.2857 90 64.7036 90 65.25C90 65.7964 89.5822 66.2143 89.0357 66.2143H62.6786C62.1322 66.2143 61.7143 65.7964 61.7143 65.25C61.7143 64.7036 62.1322 64.2857 62.6786 64.2857Z" fill="url(#paint8_linear)"/>
<path fill-rule="evenodd" clip-rule="evenodd" d="M62.6786 68.7857H70.7143C71.2607 68.7857 71.6786 69.2036 71.6786 69.75C71.6786 70.2964 71.2607 70.7143 70.7143 70.7143H62.6786C62.1322 70.7143 61.7143 70.2964 61.7143 69.75C61.7143 69.2036 62.1322 68.7857 62.6786 68.7857Z" fill="url(#paint9_linear)"/>
<path fill-rule="evenodd" clip-rule="evenodd" d="M44.3572 20.5714H81.6429C82.7036 20.5714 83.5714 21.4393 83.5714 22.5V67.5C83.5714 68.5607 82.7036 69.4286 81.6429 69.4286H44.3572C43.2964 69.4286 42.4286 68.5607 42.4286 67.5V22.5C42.4286 21.4393 43.2964 20.5714 44.3572 20.5714Z" fill="url(#paint10_linear)"/>
<path fill-rule="evenodd" clip-rule="evenodd" d="M44.3572 20.5714H81.6429C82.7036 20.5714 83.5714 21.4393 83.5714 22.5V67.5C83.5714 68.5607 82.7036 69.4286 81.6429 69.4286H44.3572C43.2964 69.4286 42.4286 68.5607 42.4286 67.5V22.5C42.4286 21.4393 43.2964 20.5714 44.3572 20.5714Z" fill="white" fill-opacity="0.5"/>
<path fill-rule="evenodd" clip-rule="evenodd" d="M73.0929 36.8357L63.4501 27.1928C63.0643 26.8071 62.5179 26.5821 61.9393 26.5821H54.4179C53.2286 26.5821 52.2643 27.5464 52.2643 28.7357V36.2249C52.2643 36.8035 52.4893 37.3499 52.9072 37.7357L62.5501 47.3785C62.9358 47.7642 63.4822 47.9892 64.0608 47.9892C64.6393 47.9892 65.1858 47.7642 65.5715 47.3464L73.0929 39.8571C73.4786 39.4714 73.7358 38.9249 73.7358 38.3464C73.7036 37.7678 73.4786 37.2214 73.0929 36.8357ZM56.0251 31.9178C55.1251 31.9178 54.4179 31.2107 54.4179 30.3107C54.4179 29.4107 55.1251 28.7035 56.0251 28.7035C56.9251 28.7035 57.6322 29.4107 57.6322 30.3107C57.6322 31.2107 56.9251 31.9178 56.0251 31.9178Z" fill="url(#paint11_linear)"/>
<path fill-rule="evenodd" clip-rule="evenodd" d="M49.8215 52.0714H76.1786C76.725 52.0714 77.1429 52.4893 77.1429 53.0357C77.1429 53.5821 76.725 54 76.1786 54H49.8215C49.275 54 48.8572 53.5821 48.8572 53.0357C48.8572 52.4893 49.275 52.0714 49.8215 52.0714Z" fill="url(#paint12_linear)"/>
<path fill-rule="evenodd" clip-rule="evenodd" d="M49.8215 56.5714H76.1786C76.725 56.5714 77.1429 56.9893 77.1429 57.5357C77.1429 58.0821 76.725 58.5 76.1786 58.5H49.8215C49.275 58.5 48.8572 58.0821 48.8572 57.5357C48.8572 56.9893 49.275 56.5714 49.8215 56.5714Z" fill="url(#paint13_linear)"/>
<path fill-rule="evenodd" clip-rule="evenodd" d="M49.8215 61.0714H57.8572C58.4036 61.0714 58.8215 61.4893 58.8215 62.0357C58.8215 62.5821 58.4036 63 57.8572 63H49.8215C49.275 63 48.8572 62.5821 48.8572 62.0357C48.8572 61.4893 49.275 61.0714 49.8215 61.0714Z" fill="url(#paint14_linear)"/>
<path fill-rule="evenodd" clip-rule="evenodd" d="M31.5 12.8571H68.7857C69.8464 12.8571 70.7143 13.725 70.7143 14.7857V59.7857C70.7143 60.8464 69.8464 61.7143 68.7857 61.7143H31.5C30.4393 61.7143 29.5714 60.8464 29.5714 59.7857V14.7857C29.5714 13.725 30.4393 12.8571 31.5 12.8571Z" fill="url(#paint15_linear)"/>
<path fill-rule="evenodd" clip-rule="evenodd" d="M31.5 12.8571H68.7857C69.8464 12.8571 70.7143 13.725 70.7143 14.7857V59.7857C70.7143 60.8464 69.8464 61.7143 68.7857 61.7143H31.5C30.4393 61.7143 29.5714 60.8464 29.5714 59.7857V14.7857C29.5714 13.725 30.4393 12.8571 31.5 12.8571Z" fill="white" fill-opacity="0.2"/>
<path fill-rule="evenodd" clip-rule="evenodd" d="M60.2357 29.1214L50.5929 19.4785C50.2072 19.0928 49.6607 18.8678 49.0822 18.8678H41.5607C40.3715 18.8678 39.4072 19.8321 39.4072 21.0214V28.5107C39.4072 29.0892 39.6322 29.6357 40.05 30.0214L49.6929 39.6642C50.0786 40.0499 50.625 40.2749 51.2036 40.2749C51.7822 40.2749 52.3286 40.0499 52.7143 39.6321L60.2357 32.1428C60.6215 31.7571 60.8786 31.2107 60.8786 30.6321C60.8465 30.0535 60.6215 29.5071 60.2357 29.1214ZM43.1679 24.2035C42.2679 24.2035 41.5607 23.4964 41.5607 22.5964C41.5607 21.6964 42.2679 20.9892 43.1679 20.9892C44.0679 20.9892 44.775 21.6964 44.775 22.5964C44.775 23.4964 44.0679 24.2035 43.1679 24.2035Z" fill="url(#paint16_linear)"/>
<path fill-rule="evenodd" clip-rule="evenodd" d="M36.9643 44.3571H63.3214C63.8679 44.3571 64.2857 44.775 64.2857 45.3214C64.2857 45.8678 63.8679 46.2857 63.3214 46.2857H36.9643C36.4179 46.2857 36 45.8678 36 45.3214C36 44.775 36.4179 44.3571 36.9643 44.3571Z" fill="url(#paint17_linear)"/>
<path fill-rule="evenodd" clip-rule="evenodd" d="M36.9643 48.8571H63.3214C63.8679 48.8571 64.2857 49.275 64.2857 49.8214C64.2857 50.3678 63.8679 50.7857 63.3214 50.7857H36.9643C36.4179 50.7857 36 50.3678 36 49.8214C36 49.275 36.4179 48.8571 36.9643 48.8571Z" fill="url(#paint18_linear)"/>
<path fill-rule="evenodd" clip-rule="evenodd" d="M36.9643 53.3571H45C45.5464 53.3571 45.9643 53.775 45.9643 54.3214C45.9643 54.8678 45.5464 55.2857 45 55.2857H36.9643C36.4179 55.2857 36 54.8678 36 54.3214C36 53.775 36.4179 53.3571 36.9643 53.3571Z" fill="url(#paint19_linear)"/>
<path fill-rule="evenodd" clip-rule="evenodd" d="M18.6429 5.14288H55.9286C56.9893 5.14288 57.8572 6.01074 57.8572 7.07145V52.0715C57.8572 53.1322 56.9893 54 55.9286 54H18.6429C17.5822 54 16.7143 53.1322 16.7143 52.0715V7.07145C16.7143 6.01074 17.5822 5.14288 18.6429 5.14288Z" fill="url(#paint20_linear)"/>
<path fill-rule="evenodd" clip-rule="evenodd" d="M47.3786 21.4071L37.7358 11.7643C37.35 11.3786 36.8036 11.1536 36.225 11.1536H28.7036C27.5143 11.1536 26.55 12.1179 26.55 13.3071V20.7964C26.55 21.375 26.775 21.9214 27.1929 22.3071L36.8358 31.95C37.2215 32.3357 37.7679 32.5607 38.3465 32.5607C38.925 32.5607 39.4715 32.3357 39.8572 31.9179L47.3786 24.4286C47.7643 24.0428 48.0215 23.4964 48.0215 22.9178C47.9893 22.3393 47.7643 21.7928 47.3786 21.4071ZM30.3108 16.4893C29.4108 16.4893 28.7036 15.7821 28.7036 14.8821C28.7036 13.9821 29.4108 13.275 30.3108 13.275C31.2108 13.275 31.9179 13.9821 31.9179 14.8821C31.9179 15.7821 31.2108 16.4893 30.3108 16.4893Z" fill="url(#paint21_linear)"/>
<path fill-rule="evenodd" clip-rule="evenodd" d="M24.1072 36.6429H50.4643C51.0107 36.6429 51.4286 37.0607 51.4286 37.6072C51.4286 38.1536 51.0107 38.5715 50.4643 38.5715H24.1072C23.5607 38.5715 23.1429 38.1536 23.1429 37.6072C23.1429 37.0607 23.5607 36.6429 24.1072 36.6429Z" fill="url(#paint22_linear)"/>
<path fill-rule="evenodd" clip-rule="evenodd" d="M24.1072 41.1429H50.4643C51.0107 41.1429 51.4286 41.5607 51.4286 42.1072C51.4286 42.6536 51.0107 43.0715 50.4643 43.0715H24.1072C23.5607 43.0715 23.1429 42.6536 23.1429 42.1072C23.1429 41.5607 23.5607 41.1429 24.1072 41.1429Z" fill="url(#paint23_linear)"/>
<path fill-rule="evenodd" clip-rule="evenodd" d="M24.1072 45.6429H32.1429C32.6893 45.6429 33.1072 46.0607 33.1072 46.6072C33.1072 47.1536 32.6893 47.5715 32.1429 47.5715H24.1072C23.5607 47.5715 23.1429 47.1536 23.1429 46.6072C23.1429 46.0607 23.5607 45.6429 24.1072 45.6429Z" fill="url(#paint24_linear)"/>
<defs>
<linearGradient id="paint0_linear" x1="103.115" y1="85.0163" x2="66.8216" y2="41.0727" gradientUnits="userSpaceOnUse">
<stop stop-color="#69BBFF"/>
<stop offset="1" stop-color="#257AFF"/>
</linearGradient>
<linearGradient id="paint1_linear" x1="77.9956" y1="41.9953" x2="99.4242" y2="63.4239" gradientUnits="userSpaceOnUse">
<stop stop-color="white"/>
<stop offset="1" stop-color="white" stop-opacity="0.5"/>
</linearGradient>
<linearGradient id="paint2_linear" x1="74.5691" y1="68.4598" x2="102.725" y2="70.4004" gradientUnits="userSpaceOnUse">
<stop stop-color="white"/>
<stop offset="1" stop-color="white" stop-opacity="0.5"/>
</linearGradient>
<linearGradient id="paint3_linear" x1="74.5691" y1="72.9598" x2="102.725" y2="74.9004" gradientUnits="userSpaceOnUse">
<stop stop-color="white"/>
<stop offset="1" stop-color="white" stop-opacity="0.5"/>
</linearGradient>
<linearGradient id="paint4_linear" x1="74.5715" y1="77.4282" x2="84.1887" y2="79.2915" gradientUnits="userSpaceOnUse">
<stop stop-color="white"/>
<stop offset="1" stop-color="white" stop-opacity="0.5"/>
</linearGradient>
<linearGradient id="paint5_linear" x1="90.2577" y1="77.302" x2="53.9644" y2="33.3584" gradientUnits="userSpaceOnUse">
<stop stop-color="#69BBFF"/>
<stop offset="1" stop-color="#257AFF"/>
</linearGradient>
<linearGradient id="paint6_linear" x1="65.1384" y1="34.2808" x2="86.567" y2="55.7093" gradientUnits="userSpaceOnUse">
<stop stop-color="white"/>
<stop offset="1" stop-color="white" stop-opacity="0.5"/>
</linearGradient>
<linearGradient id="paint7_linear" x1="61.712" y1="60.7455" x2="89.8674" y2="62.6861" gradientUnits="userSpaceOnUse">
<stop stop-color="white"/>
<stop offset="1" stop-color="white" stop-opacity="0.5"/>
</linearGradient>
<linearGradient id="paint8_linear" x1="61.712" y1="65.2455" x2="89.8674" y2="67.1861" gradientUnits="userSpaceOnUse">
<stop stop-color="white"/>
<stop offset="1" stop-color="white" stop-opacity="0.5"/>
</linearGradient>
<linearGradient id="paint9_linear" x1="61.7144" y1="69.7139" x2="71.3316" y2="71.5772" gradientUnits="userSpaceOnUse">
<stop stop-color="white"/>
<stop offset="1" stop-color="white" stop-opacity="0.5"/>
</linearGradient>
<linearGradient id="paint10_linear" x1="77.4005" y1="69.5877" x2="41.1073" y2="25.6442" gradientUnits="userSpaceOnUse">
<stop stop-color="#69BBFF"/>
<stop offset="1" stop-color="#257AFF"/>
</linearGradient>
<linearGradient id="paint11_linear" x1="52.2819" y1="26.5662" x2="73.7105" y2="47.9948" gradientUnits="userSpaceOnUse">
<stop stop-color="white"/>
<stop offset="1" stop-color="white" stop-opacity="0.5"/>
</linearGradient>
<linearGradient id="paint12_linear" x1="48.8549" y1="53.0312" x2="77.0159" y2="54.9309" gradientUnits="userSpaceOnUse">
<stop stop-color="white"/>
<stop offset="1" stop-color="white" stop-opacity="0.5"/>
</linearGradient>
<linearGradient id="paint13_linear" x1="48.8549" y1="57.5312" x2="77.0158" y2="59.4309" gradientUnits="userSpaceOnUse">
<stop stop-color="white"/>
<stop offset="1" stop-color="white" stop-opacity="0.5"/>
</linearGradient>
<linearGradient id="paint14_linear" x1="48.8572" y1="61.9996" x2="58.4745" y2="63.8629" gradientUnits="userSpaceOnUse">
<stop stop-color="white"/>
<stop offset="1" stop-color="white" stop-opacity="0.5"/>
</linearGradient>
<linearGradient id="paint15_linear" x1="64.5434" y1="61.8734" x2="28.2502" y2="17.9299" gradientUnits="userSpaceOnUse">
<stop stop-color="#69BBFF"/>
<stop offset="1" stop-color="#257AFF"/>
</linearGradient>
<linearGradient id="paint16_linear" x1="39.4248" y1="18.8517" x2="60.8534" y2="40.2802" gradientUnits="userSpaceOnUse">
<stop stop-color="white"/>
<stop offset="1" stop-color="white" stop-opacity="0.5"/>
</linearGradient>
<linearGradient id="paint17_linear" x1="35.9977" y1="45.3169" x2="64.1587" y2="47.2166" gradientUnits="userSpaceOnUse">
<stop stop-color="white"/>
<stop offset="1" stop-color="white" stop-opacity="0.5"/>
</linearGradient>
<linearGradient id="paint18_linear" x1="35.9977" y1="49.8169" x2="64.1587" y2="51.7166" gradientUnits="userSpaceOnUse">
<stop stop-color="white"/>
<stop offset="1" stop-color="white" stop-opacity="0.5"/>
</linearGradient>
<linearGradient id="paint19_linear" x1="36.0001" y1="54.2853" x2="45.6173" y2="56.1486" gradientUnits="userSpaceOnUse">
<stop stop-color="white"/>
<stop offset="1" stop-color="white" stop-opacity="0.5"/>
</linearGradient>
<linearGradient id="paint20_linear" x1="51.6862" y1="54.1592" x2="15.393" y2="10.2156" gradientUnits="userSpaceOnUse">
<stop stop-color="#69BBFF"/>
<stop offset="1" stop-color="#257AFF"/>
</linearGradient>
<linearGradient id="paint21_linear" x1="26.5683" y1="11.1372" x2="47.9969" y2="32.5657" gradientUnits="userSpaceOnUse">
<stop stop-color="white"/>
<stop offset="1" stop-color="white" stop-opacity="0.5"/>
</linearGradient>
<linearGradient id="paint22_linear" x1="23.1406" y1="37.6027" x2="51.3016" y2="39.5024" gradientUnits="userSpaceOnUse">
<stop stop-color="white"/>
<stop offset="1" stop-color="white" stop-opacity="0.5"/>
</linearGradient>
<linearGradient id="paint23_linear" x1="23.1406" y1="42.1027" x2="51.3016" y2="44.0024" gradientUnits="userSpaceOnUse">
<stop stop-color="white"/>
<stop offset="1" stop-color="white" stop-opacity="0.5"/>
</linearGradient>
<linearGradient id="paint24_linear" x1="23.1429" y1="46.571" x2="32.7602" y2="48.4344" gradientUnits="userSpaceOnUse">
<stop stop-color="white"/>
<stop offset="1" stop-color="white" stop-opacity="0.5"/>
</linearGradient>
</defs>
</svg>
