<svg width="90" height="90" viewBox="0 0 90 90" fill="none" xmlns="http://www.w3.org/2000/svg">
<path d="M90 0H0V90H90V0Z" fill="white" fill-opacity="0.01"/>
<path d="M69.75 56.475H20.25V83.7H69.75V56.475Z" fill="url(#paint0_linear)"/>
<path d="M69.75 56.475H20.25V83.7H69.75V56.475Z" fill="white" fill-opacity="0.8"/>
<mask id="mask0" style="mask-type:alpha" maskUnits="userSpaceOnUse" x="20" y="56" width="50" height="28">
<path d="M69.75 56.475H20.25V83.7H69.75V56.475Z" fill="white"/>
</mask>
<g mask="url(#mask0)">
<path opacity="0.6" d="M45 79.965C50.4676 79.965 54.9 75.5327 54.9 70.065C54.9 64.5974 50.4676 60.165 45 60.165C39.5324 60.165 35.1 64.5974 35.1 70.065C35.1 75.5327 39.5324 79.965 45 79.965Z" fill="url(#paint1_linear)"/>
</g>
<mask id="mask1" style="mask-type:alpha" maskUnits="userSpaceOnUse" x="20" y="56" width="50" height="28">
<path d="M69.75 56.475H20.25V83.7H69.75V56.475Z" fill="white"/>
</mask>
<g mask="url(#mask1)">
<path d="M20.25 65.115C25.0217 65.115 28.89 61.2468 28.89 56.475C28.89 51.7033 25.0217 47.835 20.25 47.835C15.4783 47.835 11.61 51.7033 11.61 56.475C11.61 61.2468 15.4783 65.115 20.25 65.115Z" fill="url(#paint2_linear)"/>
</g>
<mask id="mask2" style="mask-type:alpha" maskUnits="userSpaceOnUse" x="20" y="56" width="50" height="28">
<path d="M69.75 56.475H20.25V83.7H69.75V56.475Z" fill="white"/>
</mask>
<g mask="url(#mask2)">
<path d="M69.75 65.115C74.5217 65.115 78.39 61.2468 78.39 56.475C78.39 51.7033 74.5217 47.835 69.75 47.835C64.9783 47.835 61.11 51.7033 61.11 56.475C61.11 61.2468 64.9783 65.115 69.75 65.115Z" fill="url(#paint3_linear)"/>
</g>
<mask id="mask3" style="mask-type:alpha" maskUnits="userSpaceOnUse" x="20" y="56" width="50" height="28">
<path d="M69.75 56.475H20.25V83.7H69.75V56.475Z" fill="white"/>
</mask>
<g mask="url(#mask3)">
<path d="M20.25 92.3401C25.0217 92.3401 28.89 88.4718 28.89 83.7001C28.89 78.9283 25.0217 75.0601 20.25 75.0601C15.4783 75.0601 11.61 78.9283 11.61 83.7001C11.61 88.4718 15.4783 92.3401 20.25 92.3401Z" fill="url(#paint4_linear)"/>
</g>
<mask id="mask4" style="mask-type:alpha" maskUnits="userSpaceOnUse" x="20" y="56" width="50" height="28">
<path d="M69.75 56.475H20.25V83.7H69.75V56.475Z" fill="white"/>
</mask>
<g mask="url(#mask4)">
<path d="M69.75 92.3401C74.5217 92.3401 78.39 88.4718 78.39 83.7001C78.39 78.9283 74.5217 75.0601 69.75 75.0601C64.9783 75.0601 61.11 78.9283 61.11 83.7001C61.11 88.4718 64.9783 92.3401 69.75 92.3401Z" fill="url(#paint5_linear)" fill-opacity="0.5"/>
</g>
<path d="M74.7 43.11H15.3V75.78H74.7V43.11Z" fill="url(#paint6_linear)"/>
<path d="M74.7 43.11H15.3V75.78H74.7V43.11Z" fill="white" fill-opacity="0.6"/>
<mask id="mask5" style="mask-type:alpha" maskUnits="userSpaceOnUse" x="15" y="43" width="60" height="33">
<path d="M74.7 43.11H15.3V75.78H74.7V43.11Z" fill="white"/>
</mask>
<g mask="url(#mask5)">
<path opacity="0.6" d="M45 71.3251C51.5611 71.3251 56.88 66.0062 56.88 59.4451C56.88 52.8839 51.5611 47.5651 45 47.5651C38.4389 47.5651 33.12 52.8839 33.12 59.4451C33.12 66.0062 38.4389 71.3251 45 71.3251Z" fill="url(#paint7_linear)"/>
</g>
<mask id="mask6" style="mask-type:alpha" maskUnits="userSpaceOnUse" x="15" y="43" width="60" height="33">
<path d="M74.7 43.11H15.3V75.78H74.7V43.11Z" fill="white"/>
</mask>
<g mask="url(#mask6)">
<path d="M15.3 53.505C21.041 53.505 25.695 48.851 25.695 43.11C25.695 37.369 21.041 32.715 15.3 32.715C9.559 32.715 4.905 37.369 4.905 43.11C4.905 48.851 9.559 53.505 15.3 53.505Z" fill="url(#paint8_linear)"/>
</g>
<mask id="mask7" style="mask-type:alpha" maskUnits="userSpaceOnUse" x="15" y="43" width="60" height="33">
<path d="M74.7 43.11H15.3V75.78H74.7V43.11Z" fill="white"/>
</mask>
<g mask="url(#mask7)">
<path opacity="0.7" d="M74.7 53.505C80.441 53.505 85.095 48.851 85.095 43.11C85.095 37.369 80.441 32.715 74.7 32.715C68.959 32.715 64.305 37.369 64.305 43.11C64.305 48.851 68.959 53.505 74.7 53.505Z" fill="url(#paint9_linear)"/>
</g>
<mask id="mask8" style="mask-type:alpha" maskUnits="userSpaceOnUse" x="15" y="43" width="60" height="33">
<path d="M74.7 43.11H15.3V75.78H74.7V43.11Z" fill="white"/>
</mask>
<g mask="url(#mask8)">
<path d="M15.3 86.1751C21.041 86.1751 25.695 81.5211 25.695 75.7801C25.695 70.0391 21.041 65.3851 15.3 65.3851C9.559 65.3851 4.905 70.0391 4.905 75.7801C4.905 81.5211 9.559 86.1751 15.3 86.1751Z" fill="url(#paint10_linear)"/>
</g>
<mask id="mask9" style="mask-type:alpha" maskUnits="userSpaceOnUse" x="15" y="43" width="60" height="33">
<path d="M74.7 43.11H15.3V75.78H74.7V43.11Z" fill="white"/>
</mask>
<g mask="url(#mask9)">
<path d="M74.7 86.1751C80.441 86.1751 85.095 81.5211 85.095 75.7801C85.095 70.0391 80.441 65.3851 74.7 65.3851C68.959 65.3851 64.305 70.0391 64.305 75.7801C64.305 81.5211 68.959 86.1751 74.7 86.1751Z" fill="url(#paint11_linear)" fill-opacity="0.5"/>
</g>
<path d="M79.65 28.755H10.35V66.87H79.65V28.755Z" fill="url(#paint12_linear)"/>
<path d="M79.65 28.755H10.35V66.87H79.65V28.755Z" fill="white" fill-opacity="0.3"/>
<mask id="mask10" style="mask-type:alpha" maskUnits="userSpaceOnUse" x="10" y="28" width="70" height="39">
<path d="M79.65 28.755H10.35V66.87H79.65V28.755Z" fill="white"/>
</mask>
<g mask="url(#mask10)">
<path opacity="0.6" d="M45 61.65C52.6546 61.65 58.86 55.4447 58.86 47.79C58.86 40.1353 52.6546 33.93 45 33.93C37.3453 33.93 31.14 40.1353 31.14 47.79C31.14 55.4447 37.3453 61.65 45 61.65Z" fill="url(#paint13_linear)"/>
</g>
<mask id="mask11" style="mask-type:alpha" maskUnits="userSpaceOnUse" x="10" y="28" width="70" height="39">
<path d="M79.65 28.755H10.35V66.87H79.65V28.755Z" fill="white"/>
</mask>
<g mask="url(#mask11)">
<path d="M10.35 40.905C17.0603 40.905 22.5 35.4652 22.5 28.755C22.5 22.0447 17.0603 16.605 10.35 16.605C3.63974 16.605 -1.8 22.0447 -1.8 28.755C-1.8 35.4652 3.63974 40.905 10.35 40.905Z" fill="url(#paint14_linear)"/>
</g>
<mask id="mask12" style="mask-type:alpha" maskUnits="userSpaceOnUse" x="10" y="28" width="70" height="39">
<path d="M79.65 28.755H10.35V66.87H79.65V28.755Z" fill="white"/>
</mask>
<g mask="url(#mask12)">
<path opacity="0.7" d="M79.65 40.86C86.3354 40.86 91.755 35.4404 91.755 28.755C91.755 22.0696 86.3354 16.65 79.65 16.65C72.9646 16.65 67.545 22.0696 67.545 28.755C67.545 35.4404 72.9646 40.86 79.65 40.86Z" fill="url(#paint15_linear)"/>
</g>
<mask id="mask13" style="mask-type:alpha" maskUnits="userSpaceOnUse" x="10" y="28" width="70" height="39">
<path d="M79.65 28.755H10.35V66.87H79.65V28.755Z" fill="white"/>
</mask>
<g mask="url(#mask13)">
<path d="M10.35 78.975C17.0354 78.975 22.455 73.5554 22.455 66.87C22.455 60.1846 17.0354 54.765 10.35 54.765C3.66459 54.765 -1.755 60.1846 -1.755 66.87C-1.755 73.5554 3.66459 78.975 10.35 78.975Z" fill="url(#paint16_linear)"/>
</g>
<mask id="mask14" style="mask-type:alpha" maskUnits="userSpaceOnUse" x="10" y="28" width="70" height="39">
<path d="M79.65 28.755H10.35V66.87H79.65V28.755Z" fill="white"/>
</mask>
<g mask="url(#mask14)">
<path d="M79.65 78.975C86.3354 78.975 91.755 73.5554 91.755 66.87C91.755 60.1846 86.3354 54.765 79.65 54.765C72.9646 54.765 67.545 60.1846 67.545 66.87C67.545 73.5554 72.9646 78.975 79.65 78.975Z" fill="url(#paint17_linear)" fill-opacity="0.5"/>
</g>
<path d="M84.6 14.4H5.39999V57.96H84.6V14.4Z" fill="url(#paint18_linear)"/>
<mask id="mask15" style="mask-type:alpha" maskUnits="userSpaceOnUse" x="5" y="14" width="80" height="44">
<path d="M84.6 14.4H5.39999V57.96H84.6V14.4Z" fill="white"/>
</mask>
<g mask="url(#mask15)">
<path opacity="0.6" d="M45 52.02C53.7482 52.02 60.84 44.9282 60.84 36.18C60.84 27.4318 53.7482 20.34 45 20.34C36.2518 20.34 29.16 27.4318 29.16 36.18C29.16 44.9282 36.2518 52.02 45 52.02Z" fill="url(#paint19_linear)"/>
</g>
<mask id="mask16" style="mask-type:alpha" maskUnits="userSpaceOnUse" x="5" y="14" width="80" height="44">
<path d="M84.6 14.4H5.39999V57.96H84.6V14.4Z" fill="white"/>
</mask>
<g mask="url(#mask16)">
<path d="M5.39999 28.26C13.0547 28.26 19.26 22.0547 19.26 14.4C19.26 6.74537 13.0547 0.540039 5.39999 0.540039C-2.25467 0.540039 -8.46001 6.74537 -8.46001 14.4C-8.46001 22.0547 -2.25467 28.26 5.39999 28.26Z" fill="url(#paint20_linear)"/>
</g>
<mask id="mask17" style="mask-type:alpha" maskUnits="userSpaceOnUse" x="5" y="14" width="80" height="44">
<path d="M84.6 14.4H5.39999V57.96H84.6V14.4Z" fill="white"/>
</mask>
<g mask="url(#mask17)">
<path d="M84.6 28.26C92.2547 28.26 98.46 22.0547 98.46 14.4C98.46 6.74537 92.2547 0.540039 84.6 0.540039C76.9453 0.540039 70.74 6.74537 70.74 14.4C70.74 22.0547 76.9453 28.26 84.6 28.26Z" fill="url(#paint21_linear)"/>
</g>
<mask id="mask18" style="mask-type:alpha" maskUnits="userSpaceOnUse" x="5" y="14" width="80" height="44">
<path d="M84.6 14.4H5.39999V57.96H84.6V14.4Z" fill="white"/>
</mask>
<g mask="url(#mask18)">
<path d="M5.39999 71.82C13.0547 71.82 19.26 65.6147 19.26 57.96C19.26 50.3054 13.0547 44.1 5.39999 44.1C-2.25467 44.1 -8.46001 50.3054 -8.46001 57.96C-8.46001 65.6147 -2.25467 71.82 5.39999 71.82Z" fill="url(#paint22_linear)"/>
</g>
<mask id="mask19" style="mask-type:alpha" maskUnits="userSpaceOnUse" x="5" y="14" width="80" height="44">
<path d="M84.6 14.4H5.39999V57.96H84.6V14.4Z" fill="white"/>
</mask>
<g mask="url(#mask19)">
<path d="M84.6 71.82C92.2547 71.82 98.46 65.6147 98.46 57.96C98.46 50.3054 92.2547 44.1 84.6 44.1C76.9453 44.1 70.74 50.3054 70.74 57.96C70.74 65.6147 76.9453 71.82 84.6 71.82Z" fill="url(#paint23_linear)" fill-opacity="0.5"/>
</g>
<defs>
<linearGradient id="paint0_linear" x1="26.9586" y1="66.7051" x2="67.0515" y2="91.5554" gradientUnits="userSpaceOnUse">
<stop stop-color="#257AFF"/>
<stop offset="1" stop-color="#69BBFF"/>
</linearGradient>
<linearGradient id="paint1_linear" x1="38.3258" y1="64.1776" x2="52.8669" y2="77.0555" gradientUnits="userSpaceOnUse">
<stop stop-color="white" stop-opacity="0.2"/>
<stop offset="1" stop-color="white"/>
</linearGradient>
<linearGradient id="paint2_linear" x1="21.4656" y1="65.6185" x2="19.5287" y2="51.043" gradientUnits="userSpaceOnUse">
<stop stop-color="white" stop-opacity="0"/>
<stop offset="1" stop-color="white"/>
</linearGradient>
<linearGradient id="paint3_linear" x1="70.9656" y1="65.6185" x2="69.0287" y2="51.043" gradientUnits="userSpaceOnUse">
<stop stop-color="white" stop-opacity="0"/>
<stop offset="1" stop-color="white"/>
</linearGradient>
<linearGradient id="paint4_linear" x1="23.5099" y1="89.5206" x2="14.5512" y2="73.5193" gradientUnits="userSpaceOnUse">
<stop stop-color="white" stop-opacity="0"/>
<stop offset="1" stop-color="white"/>
</linearGradient>
<linearGradient id="paint5_linear" x1="73.0099" y1="89.5206" x2="64.0512" y2="73.5193" gradientUnits="userSpaceOnUse">
<stop stop-color="white" stop-opacity="0"/>
<stop offset="1" stop-color="white"/>
</linearGradient>
<linearGradient id="paint6_linear" x1="23.3471" y1="55.385" x2="71.465" y2="85.2064" gradientUnits="userSpaceOnUse">
<stop stop-color="#257AFF"/>
<stop offset="1" stop-color="#69BBFF"/>
</linearGradient>
<linearGradient id="paint7_linear" x1="36.9919" y1="52.3518" x2="54.4412" y2="67.8053" gradientUnits="userSpaceOnUse">
<stop stop-color="white" stop-opacity="0.2"/>
<stop offset="1" stop-color="white"/>
</linearGradient>
<linearGradient id="paint8_linear" x1="16.7587" y1="54.0819" x2="14.4343" y2="36.5913" gradientUnits="userSpaceOnUse">
<stop stop-color="white" stop-opacity="0"/>
<stop offset="1" stop-color="white"/>
</linearGradient>
<linearGradient id="paint9_linear" x1="85.0963" y1="53.5061" x2="64.3063" y2="32.7161" gradientUnits="userSpaceOnUse">
<stop offset="0.0259185" stop-color="#88DAFE"/>
<stop offset="1" stop-color="white"/>
</linearGradient>
<linearGradient id="paint10_linear" x1="19.2119" y1="82.7664" x2="8.46138" y2="63.5626" gradientUnits="userSpaceOnUse">
<stop stop-color="white" stop-opacity="0"/>
<stop offset="1" stop-color="white"/>
</linearGradient>
<linearGradient id="paint11_linear" x1="78.6119" y1="82.7664" x2="67.8614" y2="63.5626" gradientUnits="userSpaceOnUse">
<stop stop-color="white" stop-opacity="0"/>
<stop offset="1" stop-color="white"/>
</linearGradient>
<linearGradient id="paint12_linear" x1="19.7395" y1="43.0757" x2="75.8696" y2="77.8662" gradientUnits="userSpaceOnUse">
<stop stop-color="#257AFF"/>
<stop offset="1" stop-color="#69BBFF"/>
</linearGradient>
<linearGradient id="paint13_linear" x1="35.6563" y1="39.5352" x2="56.0139" y2="57.5671" gradientUnits="userSpaceOnUse">
<stop stop-color="white" stop-opacity="0.2"/>
<stop offset="1" stop-color="white"/>
</linearGradient>
<linearGradient id="paint14_linear" x1="12.0528" y1="41.5569" x2="9.33863" y2="21.1512" gradientUnits="userSpaceOnUse">
<stop stop-color="white" stop-opacity="0"/>
<stop offset="1" stop-color="white"/>
</linearGradient>
<linearGradient id="paint15_linear" x1="91.7775" y1="40.8827" x2="67.5226" y2="16.6277" gradientUnits="userSpaceOnUse">
<stop offset="0.0259185" stop-color="#88DAFE"/>
<stop offset="1" stop-color="white"/>
</linearGradient>
<linearGradient id="paint16_linear" x1="14.9124" y1="75.0204" x2="2.37017" y2="52.616" gradientUnits="userSpaceOnUse">
<stop stop-color="white" stop-opacity="0"/>
<stop offset="1" stop-color="white"/>
</linearGradient>
<linearGradient id="paint17_linear" x1="84.2124" y1="75.0204" x2="71.6702" y2="52.6161" gradientUnits="userSpaceOnUse">
<stop stop-color="white" stop-opacity="0"/>
<stop offset="1" stop-color="white"/>
</linearGradient>
<linearGradient id="paint18_linear" x1="16.128" y1="30.7712" x2="80.2918" y2="70.5256" gradientUnits="userSpaceOnUse">
<stop stop-color="#257AFF"/>
<stop offset="1" stop-color="#69BBFF"/>
</linearGradient>
<linearGradient id="paint19_linear" x1="34.3241" y1="26.7235" x2="57.5867" y2="47.3282" gradientUnits="userSpaceOnUse">
<stop stop-color="white" stop-opacity="0.2"/>
<stop offset="1" stop-color="white"/>
</linearGradient>
<linearGradient id="paint20_linear" x1="7.34597" y1="29.0304" x2="4.24411" y2="5.70954" gradientUnits="userSpaceOnUse">
<stop stop-color="white" stop-opacity="0"/>
<stop offset="1" stop-color="white"/>
</linearGradient>
<linearGradient id="paint21_linear" x1="86.546" y1="29.0304" x2="83.4441" y2="5.70954" gradientUnits="userSpaceOnUse">
<stop stop-color="white" stop-opacity="0"/>
<stop offset="1" stop-color="white"/>
</linearGradient>
<linearGradient id="paint22_linear" x1="10.6142" y1="67.274" x2="-3.71985" y2="41.669" gradientUnits="userSpaceOnUse">
<stop stop-color="white" stop-opacity="0"/>
<stop offset="1" stop-color="white"/>
</linearGradient>
<linearGradient id="paint23_linear" x1="89.8142" y1="67.274" x2="75.4801" y2="41.669" gradientUnits="userSpaceOnUse">
<stop stop-color="white" stop-opacity="0"/>
<stop offset="1" stop-color="white"/>
</linearGradient>
</defs>
</svg>
