<svg width="30" height="30" viewBox="0 0 30 30" fill="none" xmlns="http://www.w3.org/2000/svg">
<path fill-rule="evenodd" clip-rule="evenodd" d="M14.8125 0.750003L14 2.375L12.1875 2.625C11.875 2.6875 11.625 3 11.6875 3.3125C11.6875 3.4375 11.75 3.5625 11.875 3.6875L13.1875 5L12.875 6.8125C12.8125 7.125 13.0625 7.5 13.375 7.5625C13.5 7.5625 13.625 7.5625 13.75 7.5L15.3125 6.6875L16.875 7.5C17.1875 7.6875 17.5625 7.5625 17.75 7.25C17.8125 7.125 17.8125 7 17.8125 6.875L17.5625 5L18.875 3.6875C19.125 3.4375 19.125 3.0625 18.875 2.8125C18.75 2.6875 18.625 2.625 18.5 2.625L16.6875 2.375L15.875 0.750003C15.75 0.437503 15.375 0.312503 15.0625 0.437503C14.9375 0.500003 14.875 0.625003 14.8125 0.750003Z" fill="url(#paint0_linear)"/>
<path fill-rule="evenodd" clip-rule="evenodd" d="M4.1875 5.125L3.375 6.75L1.5625 7C1.25 7.0625 0.999998 7.375 1.0625 7.6875C1.0625 7.8125 1.125 7.9375 1.25 8.0625L2.5625 9.375L2.25 11.1875C2.1875 11.5 2.4375 11.875 2.75 11.9375C2.875 11.9375 3 11.9375 3.125 11.875L4.6875 11.0625L6.25 11.875C6.5625 12.0625 6.9375 11.9375 7.125 11.625C7.1875 11.5 7.1875 11.375 7.1875 11.25L6.9375 9.375L8.25 8.0625C8.5 7.8125 8.5 7.4375 8.25 7.1875C8.125 7.0625 8 7 7.875 7L6.0625 6.75L5.3125 5.125C5.125 4.8125 4.75 4.6875 4.4375 4.8125C4.3125 4.875 4.25 5 4.1875 5.125Z" fill="url(#paint1_linear)"/>
<path fill-rule="evenodd" clip-rule="evenodd" d="M25.4375 5.125L24.625 6.75L22.8125 7C22.5 7.0625 22.25 7.375 22.3125 7.6875C22.3125 7.8125 22.375 7.9375 22.5 8.0625L23.8125 9.375L23.5 11.1875C23.4375 11.5 23.6875 11.875 24 11.9375C24.125 11.9375 24.25 11.9375 24.375 11.875L25.9375 11.0625L27.5 11.875C27.8125 12.0625 28.1875 11.9375 28.375 11.625C28.4375 11.5 28.4375 11.375 28.4375 11.25L28.1875 9.375L29.5 8.0625C29.75 7.8125 29.75 7.4375 29.5 7.1875C29.375 7.0625 29.25 7 29.125 7L27.3125 6.75L26.5 5.125C26.375 4.8125 26 4.6875 25.6875 4.8125C25.5625 4.875 25.5 5 25.4375 5.125Z" fill="url(#paint2_linear)"/>
<path fill-rule="evenodd" clip-rule="evenodd" d="M15.1875 19.4375C10.375 19.4375 6.3125 22.625 5.125 26.875C4.75 28.25 5.8125 29.5625 7.25 29.5625H23.125C24.5625 29.5625 25.625 28.25 25.25 26.875C24.0625 22.625 20 19.4375 15.1875 19.4375Z" fill="url(#paint3_linear)"/>
<path d="M15.1875 22C18.6738 22 21.5 19.1738 21.5 15.6875C21.5 12.2012 18.6738 9.375 15.1875 9.375C11.7012 9.375 8.875 12.2012 8.875 15.6875C8.875 19.1738 11.7012 22 15.1875 22Z" fill="url(#paint4_linear)"/>
<defs>
<linearGradient id="paint0_linear" x1="13.1584" y1="2.30934" x2="16.8946" y2="6.29181" gradientUnits="userSpaceOnUse">
<stop stop-color="#69BBFF"/>
<stop offset="1" stop-color="#257AFF"/>
</linearGradient>
<linearGradient id="paint1_linear" x1="6.39644" y1="10.5482" x2="2.66021" y2="6.56567" gradientUnits="userSpaceOnUse">
<stop stop-color="#69BBFF"/>
<stop offset="1" stop-color="#257AFF"/>
</linearGradient>
<linearGradient id="paint2_linear" x1="27.6464" y1="10.5482" x2="23.9102" y2="6.56567" gradientUnits="userSpaceOnUse">
<stop stop-color="#69BBFF"/>
<stop offset="1" stop-color="#257AFF"/>
</linearGradient>
<linearGradient id="paint3_linear" x1="4.8587" y1="23.7051" x2="22.0859" y2="32.3229" gradientUnits="userSpaceOnUse">
<stop stop-color="#69BBFF"/>
<stop offset="1" stop-color="#257AFF"/>
</linearGradient>
<linearGradient id="paint4_linear" x1="8.875" y1="21.9971" x2="21.545" y2="9.32706" gradientUnits="userSpaceOnUse">
<stop stop-color="#69BBFF"/>
<stop offset="1" stop-color="#257AFF"/>
</linearGradient>
</defs>
</svg>
