<svg width="179" height="55" viewBox="0 0 179 55" fill="none" xmlns="http://www.w3.org/2000/svg">
<g clip-path="url(#clip0)">
<path d="M33.3679 12.0804C33.3679 18.6935 27.2067 24.0953 27.2067 24.0953C27.2067 24.0953 21.0455 18.7262 21.0455 12.0804C21.0455 5.43454 27.2067 0.0654907 27.2067 0.0654907C27.2067 0.0654907 33.3679 5.43454 33.3679 12.0804Z" fill="#5A319C"/>
<path d="M38.7185 20.7232C36.2216 23.2441 31.8438 22.9167 31.8438 22.9167C31.8438 22.9167 31.5196 18.4971 34.0165 15.9762C36.5134 13.4554 40.8911 13.7828 40.8911 13.7828C40.8911 13.7828 41.2154 18.2024 38.7185 20.7232Z" fill="#4BEDDA"/>
<path d="M42.5125 33.8185C35.9621 33.8185 30.6116 27.5982 30.6116 27.5982C30.6116 27.5982 35.9297 21.378 42.5125 21.378C49.0953 21.378 54.4134 27.5982 54.4134 27.5982C54.4134 27.5982 49.0953 33.8185 42.5125 33.8185Z" fill="#5A319C"/>
<path d="M33.3679 43.0834C33.3679 36.4703 27.2067 31.0685 27.2067 31.0685C27.2067 31.0685 21.0455 36.4375 21.0455 43.0834C21.0455 49.7292 27.2067 55.0982 27.2067 55.0982C27.2067 55.0982 33.3679 49.7292 33.3679 43.0834Z" fill="#5A319C"/>
<path d="M38.7185 34.4405C36.2216 31.9196 31.8438 32.247 31.8438 32.247C31.8438 32.247 31.5196 36.6667 34.0165 39.1875C36.5134 41.7083 40.8911 41.3809 40.8911 41.3809C40.8911 41.3809 41.2154 36.9613 38.7185 34.4405Z" fill="#4BEDDA"/>
<path d="M15.6625 20.7232C18.1594 23.2441 22.5371 22.9167 22.5371 22.9167C22.5371 22.9167 22.8614 18.4971 20.3645 15.9762C17.8676 13.4554 13.4899 13.7828 13.4899 13.7828C13.4899 13.7828 13.1656 18.2024 15.6625 20.7232Z" fill="#4BEDDA"/>
<path d="M11.8685 33.8185C18.4188 33.8185 23.7694 27.5982 23.7694 27.5982C23.7694 27.5982 18.4513 21.378 11.8685 21.378C5.28569 21.378 -0.0324249 27.5982 -0.0324249 27.5982C-0.0324249 27.5982 5.28569 33.8185 11.8685 33.8185Z" fill="#5A319C"/>
<path d="M15.6625 34.4405C18.1594 31.9196 22.5371 32.247 22.5371 32.247C22.5371 32.247 22.8614 36.6667 20.3645 39.1875C17.8676 41.7083 13.4899 41.3809 13.4899 41.3809C13.4899 41.3809 13.1656 36.9613 15.6625 34.4405Z" fill="#4BEDDA"/>
<path d="M85.2321 35.4354H80.9172V26.0136C80.9172 24.6712 80.6914 23.6835 80.2147 23.0503C79.7381 22.4424 79.0858 22.1132 78.2579 22.1132C77.6809 22.1132 77.1039 22.2651 76.5018 22.5691C75.8998 22.873 75.3729 23.2782 74.8963 23.7848C74.4196 24.3167 74.0684 24.8992 73.8677 25.583V35.4354H69.5527V18.542H73.4412V21.6826C73.8677 20.9481 74.4196 20.3403 75.097 19.8337C75.7743 19.3272 76.5269 18.9473 77.405 18.6687C78.283 18.3901 79.1862 18.2634 80.1646 18.2634C81.2182 18.2634 82.0712 18.4407 82.7485 18.8206C83.4259 19.2005 83.9527 19.7071 84.3039 20.3403C84.6551 20.9735 84.906 21.6826 85.0565 22.4678C85.2071 23.2529 85.2572 24.0634 85.2572 24.8739V35.4354H85.2321Z" fill="white"/>
<path d="M99.2056 35.7646C97.8259 35.7646 96.5966 35.5367 95.4928 35.0808C94.3889 34.6249 93.4607 33.9917 92.7081 33.1559C91.9555 32.3454 91.3534 31.4083 90.952 30.3446C90.5506 29.2808 90.3499 28.1917 90.3499 27.0267C90.3499 25.8363 90.5506 24.7219 90.952 23.6835C91.3534 22.6197 91.9555 21.7079 92.7081 20.8721C93.4607 20.0617 94.3889 19.4285 95.4928 18.9473C96.5966 18.4914 97.8259 18.2634 99.2056 18.2634C100.585 18.2634 101.815 18.4914 102.893 18.9473C103.972 19.4032 104.9 20.0363 105.678 20.8721C106.456 21.6826 107.033 22.6197 107.434 23.6835C107.836 24.7472 108.036 25.8616 108.036 27.0267C108.036 28.1917 107.836 29.2808 107.434 30.3446C107.033 31.4083 106.456 32.3201 105.703 33.1559C104.951 33.9664 104.022 34.5996 102.919 35.0808C101.84 35.5113 100.585 35.7646 99.2056 35.7646ZM94.7903 27.0267C94.7903 28.0145 94.991 28.8756 95.3673 29.6354C95.7436 30.3952 96.2705 30.9777 96.9478 31.4083C97.6252 31.8389 98.3778 32.0415 99.2056 32.0415C100.034 32.0415 100.761 31.8136 101.438 31.383C102.116 30.9524 102.643 30.3446 103.044 29.5847C103.445 28.8249 103.646 27.9638 103.646 26.976C103.646 26.0136 103.445 25.1525 103.044 24.3926C102.643 23.6328 102.116 23.025 101.438 22.5944C100.761 22.1638 100.034 21.9612 99.2056 21.9612C98.3778 21.9612 97.6252 22.1892 96.9478 22.6197C96.2705 23.0503 95.7436 23.6582 95.3673 24.418C94.991 25.1778 94.7903 26.0389 94.7903 27.0267Z" fill="white"/>
<path d="M117.344 35.4353L111.122 18.542H115.613L119.877 31.5096L124.167 18.542H128.256L122.06 35.4353H117.344Z" fill="white"/>
<path d="M131.317 30.4459C131.317 29.3568 131.618 28.3944 132.245 27.5586C132.847 26.7228 133.7 26.0896 134.804 25.6337C135.908 25.1778 137.162 24.9498 138.567 24.9498C139.27 24.9498 139.997 25.0005 140.725 25.1018C141.452 25.2031 142.079 25.3804 142.631 25.6337V24.7219C142.631 23.6581 142.305 22.8477 141.678 22.2651C141.051 21.6826 140.098 21.404 138.868 21.404C137.94 21.404 137.062 21.556 136.234 21.8852C135.406 22.2145 134.503 22.6957 133.6 23.3289L132.22 20.4669C133.349 19.7324 134.478 19.1752 135.657 18.7953C136.836 18.4154 138.066 18.2381 139.345 18.2381C141.753 18.2381 143.635 18.846 144.964 20.0363C146.319 21.2267 146.971 22.949 146.971 25.1778V30.5472C146.971 31.0031 147.047 31.307 147.222 31.5096C147.373 31.7122 147.649 31.8135 148 31.8642V35.41C147.624 35.486 147.272 35.5367 146.946 35.562C146.645 35.6126 146.369 35.638 146.169 35.638C145.316 35.638 144.663 35.4354 144.212 35.0554C143.76 34.6755 143.509 34.1943 143.384 33.6118L143.284 32.7253C142.556 33.6878 141.628 34.4223 140.549 34.9288C139.445 35.4607 138.341 35.714 137.187 35.714C136.059 35.714 135.055 35.486 134.177 35.0301C133.274 34.5742 132.597 33.941 132.07 33.1306C131.568 32.3707 131.317 31.459 131.317 30.4459ZM141.829 31.2817C142.054 31.0284 142.255 30.7751 142.406 30.5219C142.556 30.2686 142.631 30.0406 142.631 29.8127V28.1411C142.105 27.9385 141.553 27.7612 140.951 27.6599C140.348 27.5332 139.771 27.4826 139.245 27.4826C138.116 27.4826 137.213 27.7105 136.485 28.1917C135.758 28.673 135.406 29.3061 135.406 30.0913C135.406 30.5219 135.532 30.9271 135.758 31.307C135.983 31.6869 136.335 31.9908 136.786 32.2188C137.238 32.4467 137.764 32.5734 138.392 32.5734C139.044 32.5734 139.671 32.4467 140.298 32.2188C140.951 31.9655 141.452 31.6616 141.829 31.2817Z" fill="white"/>
</g>
<defs>
<clipPath id="clip0">
<rect width="179" height="55" fill="white"/>
</clipPath>
</defs>
</svg>
