<svg width="148" height="45" viewBox="0 0 148 45" fill="none" xmlns="http://www.w3.org/2000/svg">
<g clip-path="url(#clip0)">
<path d="M27.5892 9.88388C27.5892 15.2946 22.495 19.7142 22.495 19.7142C22.495 19.7142 17.4008 15.3214 17.4008 9.88388C17.4008 4.44638 22.495 0.0535278 22.495 0.0535278C22.495 0.0535278 27.5892 4.44638 27.5892 9.88388Z" fill="#5A319C"/>
<path d="M32.0131 16.9553C29.9486 19.0178 26.329 18.75 26.329 18.75C26.329 18.75 26.0609 15.1339 28.1254 13.0714C30.1899 11.0089 33.8095 11.2768 33.8095 11.2768C33.8095 11.2768 34.0776 14.8928 32.0131 16.9553Z" fill="#4BEDDA"/>
<path d="M35.15 27.6696C29.7341 27.6696 25.3102 22.5803 25.3102 22.5803C25.3102 22.5803 29.7073 17.491 35.15 17.491C40.5928 17.491 44.9899 22.5803 44.9899 22.5803C44.9899 22.5803 40.5928 27.6696 35.15 27.6696Z" fill="#5A319C"/>
<path d="M27.5892 35.2499C27.5892 29.8392 22.495 25.4196 22.495 25.4196C22.495 25.4196 17.4008 29.8124 17.4008 35.2499C17.4008 40.6874 22.495 45.0803 22.495 45.0803C22.495 45.0803 27.5892 40.6874 27.5892 35.2499Z" fill="#5A319C"/>
<path d="M32.0131 28.1785C29.9486 26.116 26.329 26.3839 26.329 26.3839C26.329 26.3839 26.0609 30 28.1254 32.0625C30.1899 34.125 33.8095 33.8571 33.8095 33.8571C33.8095 33.8571 34.0776 30.241 32.0131 28.1785Z" fill="#4BEDDA"/>
<path d="M12.95 16.9553C15.0145 19.0178 18.634 18.75 18.634 18.75C18.634 18.75 18.9022 15.1339 16.8377 13.0714C14.7732 11.0089 11.1536 11.2768 11.1536 11.2768C11.1536 11.2768 10.8855 14.8928 12.95 16.9553Z" fill="#4BEDDA"/>
<path d="M9.81361 27.6696C15.2296 27.6696 19.6535 22.5803 19.6535 22.5803C19.6535 22.5803 15.2564 17.491 9.81361 17.491C4.37086 17.491 -0.0262451 22.5803 -0.0262451 22.5803C-0.0262451 22.5803 4.37086 27.6696 9.81361 27.6696Z" fill="#5A319C"/>
<path d="M12.95 28.1785C15.0145 26.116 18.634 26.3839 18.634 26.3839C18.634 26.3839 18.9022 30 16.8377 32.0625C14.7732 34.125 11.1536 33.8571 11.1536 33.8571C11.1536 33.8571 10.8855 30.241 12.95 28.1785Z" fill="#4BEDDA"/>
<path d="M70.4713 28.9925H66.9036V21.2838C66.9036 20.1855 66.7169 19.3773 66.3228 18.8593C65.9287 18.3619 65.3894 18.0925 64.7049 18.0925C64.2279 18.0925 63.7508 18.2169 63.253 18.4655C62.7551 18.7142 62.3196 19.0458 61.9255 19.4602C61.5313 19.8954 61.241 20.372 61.075 20.9315V28.9925H57.5073V15.1707H60.7224V17.7403C61.075 17.1393 61.5313 16.642 62.0914 16.2275C62.6514 15.8131 63.2737 15.5023 63.9997 15.2743C64.7257 15.0464 65.4724 14.9427 66.2814 14.9427C67.1525 14.9427 67.8578 15.0878 68.4178 15.3986C68.9779 15.7095 69.4135 16.1239 69.7038 16.642C69.9942 17.16 70.2017 17.7403 70.3261 18.3827C70.4506 19.0251 70.4921 19.6882 70.4921 20.3513V28.9925H70.4713Z" fill="white"/>
<path d="M82.0248 29.2619C80.884 29.2619 79.8676 29.0754 78.955 28.7024C78.0423 28.3294 77.2748 27.8113 76.6525 27.1275C76.0303 26.4644 75.5325 25.6977 75.2006 24.8273C74.8687 23.957 74.7028 23.0659 74.7028 22.1127C74.7028 21.1387 74.8687 20.227 75.2006 19.3773C75.5325 18.507 76.0303 17.761 76.6525 17.0772C77.2748 16.414 78.0423 15.896 78.955 15.5023C79.8676 15.1292 80.884 14.9427 82.0248 14.9427C83.1657 14.9427 84.182 15.1292 85.074 15.5023C85.9659 15.8753 86.7334 16.3933 87.3764 17.0772C88.0194 17.7403 88.4965 18.507 88.8283 19.3773C89.1602 20.2477 89.3261 21.1595 89.3261 22.1127C89.3261 23.0659 89.1602 23.957 88.8283 24.8273C88.4965 25.6977 88.0194 26.4437 87.3971 27.1275C86.7748 27.7906 86.0074 28.3087 85.0947 28.7024C84.2028 29.0547 83.1657 29.2619 82.0248 29.2619ZM78.3742 22.1127C78.3742 22.9209 78.5401 23.6254 78.8512 24.2471C79.1624 24.8688 79.598 25.3454 80.158 25.6977C80.7181 26.0499 81.3403 26.2157 82.0248 26.2157C82.7093 26.2157 83.3109 26.0292 83.8709 25.6769C84.4309 25.3246 84.8665 24.8273 85.1984 24.2056C85.5303 23.584 85.6962 22.8794 85.6962 22.0712C85.6962 21.2838 85.5303 20.5792 85.1984 19.9576C84.8665 19.3359 84.4309 18.8386 83.8709 18.4863C83.3109 18.134 82.7093 17.9682 82.0248 17.9682C81.3403 17.9682 80.7181 18.1547 80.158 18.507C79.598 18.8593 79.1624 19.3566 78.8512 19.9783C78.5401 20.6 78.3742 21.3045 78.3742 22.1127Z" fill="white"/>
<path d="M97.0215 28.9925L91.8774 15.1707H95.5903L99.1165 25.7806L102.663 15.1707H106.044L100.921 28.9925H97.0215Z" fill="white"/>
<path d="M108.575 24.9102C108.575 24.0192 108.824 23.2317 109.343 22.5479C109.84 21.864 110.546 21.346 111.458 20.973C112.371 20.6 113.408 20.4135 114.57 20.4135C115.15 20.4135 115.752 20.4549 116.353 20.5378C116.955 20.6207 117.474 20.7658 117.93 20.973V20.227C117.93 19.3566 117.66 18.6935 117.142 18.2169C116.623 17.7403 115.835 17.5124 114.819 17.5124C114.051 17.5124 113.325 17.6367 112.641 17.9061C111.956 18.1755 111.209 18.5692 110.463 19.0873L109.322 16.7456C110.255 16.1447 111.189 15.6888 112.164 15.3779C113.138 15.0671 114.155 14.9221 115.213 14.9221C117.204 14.9221 118.76 15.4194 119.859 16.3933C120.979 17.3673 121.518 18.7764 121.518 20.6V24.9931C121.518 25.3661 121.581 25.6148 121.726 25.7806C121.85 25.9464 122.078 26.0292 122.369 26.0707V28.9718C122.058 29.034 121.767 29.0754 121.498 29.0962C121.249 29.1376 121.021 29.1583 120.855 29.1583C120.149 29.1583 119.61 28.9925 119.237 28.6817C118.863 28.3709 118.656 27.9771 118.552 27.5005L118.469 26.7752C117.868 27.5627 117.1 28.1636 116.208 28.5781C115.296 29.0133 114.383 29.2205 113.429 29.2205C112.495 29.2205 111.666 29.034 110.94 28.661C110.193 28.288 109.633 27.7699 109.197 27.1068C108.782 26.4851 108.575 25.7391 108.575 24.9102ZM117.266 25.5941C117.453 25.3868 117.619 25.1796 117.743 24.9724C117.868 24.7652 117.93 24.5787 117.93 24.3922V23.0245C117.494 22.8587 117.038 22.7137 116.54 22.6308C116.042 22.5272 115.565 22.4857 115.13 22.4857C114.196 22.4857 113.45 22.6722 112.848 23.0659C112.246 23.4597 111.956 23.9777 111.956 24.6201C111.956 24.9724 112.06 25.304 112.246 25.6148C112.433 25.9256 112.724 26.1743 113.097 26.3608C113.47 26.5473 113.906 26.6509 114.424 26.6509C114.964 26.6509 115.482 26.5473 116.001 26.3608C116.54 26.1536 116.955 25.9049 117.266 25.5941Z" fill="white"/>
</g>
<defs>
<clipPath id="clip0">
<rect width="148" height="45" fill="white"/>
</clipPath>
</defs>
</svg>
