<svg width="130" height="27" viewBox="0 0 130 27" fill="none" xmlns="http://www.w3.org/2000/svg">
<path d="M30.9946 2.89697H18.9801V24.2625H30.9946V2.89697Z" fill="#FF5F00"/>
<path d="M19.7083 13.3988C19.7083 9.05323 21.8927 5.43198 24.8053 2.89709C22.6208 1.08645 19.7083 0 16.4316 0C8.78606 0 2.96082 6.15621 2.96082 13.3988C2.96082 21.0034 9.15013 26.7974 16.4316 26.7974C19.7083 26.7974 22.6208 25.7111 24.8053 23.9004C21.8927 21.7277 19.7083 17.7443 19.7083 13.3988Z" fill="#EB001B"/>
<path d="M47.0139 13.3988C47.0139 21.0034 40.8246 26.7974 33.5431 26.7974C30.2664 26.7974 27.3539 25.7111 25.1694 23.9004C28.4461 21.3655 30.2665 17.7443 30.2665 13.3988C30.2665 9.05323 28.082 5.43198 25.1694 2.89709C27.3539 1.08645 30.2664 0 33.5431 0C40.8246 0 47.0139 6.15621 47.0139 13.3988Z" fill="#F79E1B"/>
</svg>
