<svg width="240" height="50" viewBox="0 0 240 50" fill="none" xmlns="http://www.w3.org/2000/svg">
<path d="M130.768 5.36523H108.638V44.931H130.768V5.36523Z" fill="#FF5F00"/>
<path d="M109.979 24.8125C109.979 16.7652 114.003 10.0592 119.368 5.36497C115.344 2.01194 109.98 0 103.944 0C89.8613 0 79.1315 11.4004 79.1315 24.8125C79.1315 38.8952 90.5319 49.6248 103.944 49.6248C109.98 49.6248 115.344 47.6131 119.368 44.2601C114.003 40.2364 109.979 32.8598 109.979 24.8125Z" fill="#EB001B"/>
<path d="M160.275 24.8125C160.275 38.8952 148.875 49.6248 135.463 49.6248C129.427 49.6248 124.062 47.6131 120.039 44.2601C126.074 39.5658 129.427 32.8598 129.427 24.8125C129.427 16.7652 125.403 10.0592 120.039 5.36497C124.062 2.01194 129.427 0 135.463 0C148.875 0 160.275 11.4004 160.275 24.8125Z" fill="#F79E1B"/>
</svg>
