<svg width="240" height="50" viewBox="0 0 240 50" fill="none" xmlns="http://www.w3.org/2000/svg">
<path d="M196.953 13.4375C194.922 12.0313 191.875 11.4063 187.891 11.4063H177.5L173.594 32.4219H159.922L160.781 27.6563H168.984L169.922 22.2656H161.719L162.578 17.5H171.016L172.109 11.3281H154.922L151.25 31.25H144.922L148.594 11.25H139.844L136.172 31.1719H130L133.672 11.25H124.688L120.781 32.2656H107.031L107.891 27.5H116.172L117.109 22.1875H108.828L109.688 17.4219H118.281L119.375 11.25H65.8594L62.8125 27.8906L56.7188 11.25H47.4219L42.4219 38.4375H51.3281L54.375 21.3281L60.3125 38.4375H92.1875L96.0938 17.4219H101.094L97.1875 38.4375H181.25L183.672 25.1563L187.578 38.4375H196.484L192.422 27.5781L193.359 27.3438C195.391 26.875 197.031 25.9375 198.125 24.5312C199.219 23.125 199.844 21.25 199.844 19.0625C199.844 16.6406 198.906 14.7656 196.953 13.4375ZM84.375 32.4219H70.7813L71.6406 27.6563H80.2344L81.1719 22.2656H72.7344L73.5156 17.5781H87.1094L84.375 32.4219ZM189.609 23.2812C188.75 23.9062 187.422 24.2188 185.625 24.2188H183.828L185.156 16.9531H186.484C187.969 16.9531 189.062 17.1875 189.766 17.6563C190.312 18.0469 191.016 18.75 191.016 20.2344C191.094 21.875 190.312 22.8125 189.609 23.2812Z" fill="#83BA3B"/>
</svg>
