<svg width="311" height="311" viewBox="0 0 311 311" fill="none" xmlns="http://www.w3.org/2000/svg">
<g opacity="0.7" clip-path="url(#clip0)" filter="url(#filter0_f)">
<path fill-rule="evenodd" clip-rule="evenodd" d="M69.6389 212.59L128.744 213.562L159.447 163.047L100.388 162.16L69.6389 212.59Z" fill="url(#paint0_linear)"/>
<path fill-rule="evenodd" clip-rule="evenodd" d="M128.744 213.562L157.054 264.88L187.803 214.449L159.447 163.047L128.744 213.562Z" fill="url(#paint1_linear)"/>
<path fill-rule="evenodd" clip-rule="evenodd" d="M97.9952 263.992L157.054 264.88L128.744 213.562L69.6389 212.59L97.9952 263.992Z" fill="url(#paint2_linear)"/>
<path fill-rule="evenodd" clip-rule="evenodd" d="M159.447 163.048L218.635 163.973L249.338 113.459L190.279 112.571L159.447 163.048Z" fill="url(#paint3_linear)"/>
<path fill-rule="evenodd" clip-rule="evenodd" d="M218.635 163.973L246.945 215.291L277.694 164.86L249.338 113.458L218.635 163.973Z" fill="url(#paint4_linear)"/>
<path fill-rule="evenodd" clip-rule="evenodd" d="M187.803 214.449L246.945 215.291L218.635 163.973L159.447 163.047L187.803 214.449Z" fill="url(#paint5_linear)"/>
<path fill-rule="evenodd" clip-rule="evenodd" d="M102.826 60.4101L72.0774 110.841L131.136 111.729L161.968 61.252L102.826 60.4101Z" fill="url(#paint6_linear)"/>
<path fill-rule="evenodd" clip-rule="evenodd" d="M131.136 111.729L159.447 163.047L190.279 112.571L161.968 61.2519L131.136 111.729Z" fill="url(#paint7_linear)"/>
<path fill-rule="evenodd" clip-rule="evenodd" d="M131.136 111.729L159.447 163.047L100.388 162.16L72.0774 110.841L131.136 111.729Z" fill="url(#paint8_linear)"/>
<path fill-rule="evenodd" clip-rule="evenodd" d="M190.279 112.57L159.447 163.047L100.388 162.159L131.136 111.728L190.279 112.57Z" fill="url(#paint9_linear)"/>
<path fill-rule="evenodd" clip-rule="evenodd" d="M159.447 163.048L187.803 214.45L218.635 163.973L190.279 112.571L159.447 163.048Z" fill="url(#paint10_linear)"/>
<path fill-rule="evenodd" clip-rule="evenodd" d="M159.447 163.048L187.803 214.45L128.744 213.562L100.388 162.16L159.447 163.048Z" fill="url(#paint11_linear)"/>
</g>
<defs>
<filter id="filter0_f" x="-3.73627" y="-3.83057" width="318.243" height="318.243" filterUnits="userSpaceOnUse" color-interpolation-filters="sRGB">
<feFlood flood-opacity="0" result="BackgroundImageFix"/>
<feBlend mode="normal" in="SourceGraphic" in2="BackgroundImageFix" result="shape"/>
<feGaussianBlur stdDeviation="2" result="effect1_foregroundBlur"/>
</filter>
<linearGradient id="paint0_linear" x1="142.418" y1="172.479" x2="69.656" y2="212.619" gradientUnits="userSpaceOnUse">
<stop stop-color="#69BBFF" stop-opacity="0.2"/>
<stop offset="1" stop-color="#257AFF" stop-opacity="0"/>
</linearGradient>
<linearGradient id="paint1_linear" x1="165.17" y1="236.669" x2="168.686" y2="172.545" gradientUnits="userSpaceOnUse">
<stop stop-color="#69BBFF" stop-opacity="0.2"/>
<stop offset="1" stop-color="#257AFF" stop-opacity="0"/>
</linearGradient>
<linearGradient id="paint2_linear" x1="112.66" y1="256.555" x2="128.113" y2="231.53" gradientUnits="userSpaceOnUse">
<stop stop-color="#69BBFF" stop-opacity="0.2"/>
<stop offset="1" stop-color="#257AFF" stop-opacity="0"/>
</linearGradient>
<linearGradient id="paint3_linear" x1="232.253" y1="122.921" x2="159.5" y2="163.056" gradientUnits="userSpaceOnUse">
<stop stop-color="#69BBFF" stop-opacity="0.2"/>
<stop offset="1" stop-color="#257AFF" stop-opacity="0"/>
</linearGradient>
<linearGradient id="paint4_linear" x1="254.998" y1="187.115" x2="258.514" y2="122.991" gradientUnits="userSpaceOnUse">
<stop stop-color="#69BBFF" stop-opacity="0.2"/>
<stop offset="1" stop-color="#257AFF" stop-opacity="0"/>
</linearGradient>
<linearGradient id="paint5_linear" x1="202.499" y1="206.994" x2="217.952" y2="181.97" gradientUnits="userSpaceOnUse">
<stop stop-color="#69BBFF" stop-opacity="0.2"/>
<stop offset="1" stop-color="#257AFF" stop-opacity="0"/>
</linearGradient>
<linearGradient id="paint6_linear" x1="144.862" y1="70.7097" x2="72.1004" y2="110.849" gradientUnits="userSpaceOnUse">
<stop stop-color="#69BBFF" stop-opacity="0.2"/>
<stop offset="1" stop-color="#257AFF" stop-opacity="0"/>
</linearGradient>
<linearGradient id="paint7_linear" x1="167.601" y1="134.891" x2="171.117" y2="70.7672" gradientUnits="userSpaceOnUse">
<stop stop-color="#69BBFF" stop-opacity="0.2"/>
<stop offset="1" stop-color="#257AFF" stop-opacity="0"/>
</linearGradient>
<linearGradient id="paint8_linear" x1="115.098" y1="154.765" x2="130.55" y2="129.74" gradientUnits="userSpaceOnUse">
<stop stop-color="#69BBFF" stop-opacity="0.2"/>
<stop offset="1" stop-color="#257AFF" stop-opacity="0"/>
</linearGradient>
<linearGradient id="paint9_linear" x1="190.26" y1="112.61" x2="109.412" y2="157.21" gradientUnits="userSpaceOnUse">
<stop stop-color="#69BBFF"/>
<stop offset="1" stop-color="#257AFF"/>
</linearGradient>
<linearGradient id="paint10_linear" x1="191.327" y1="186.673" x2="206.172" y2="151.175" gradientUnits="userSpaceOnUse">
<stop stop-color="#69BBFF"/>
<stop offset="1" stop-color="#257AFF"/>
</linearGradient>
<linearGradient id="paint11_linear" x1="146.406" y1="211.454" x2="161.25" y2="175.956" gradientUnits="userSpaceOnUse">
<stop stop-color="#69BBFF"/>
<stop offset="1" stop-color="#257AFF"/>
</linearGradient>
<clipPath id="clip0">
<rect width="228.349" height="228.349" fill="white" transform="translate(0.263733 110.469) rotate(-28.8836)"/>
</clipPath>
</defs>
</svg>
