<svg width="240" height="50" viewBox="0 0 240 50" fill="none" xmlns="http://www.w3.org/2000/svg">
<path d="M139.396 11.2039V34.7064C139.396 35.0578 139.128 35.3472 138.776 35.3472H138.756H133.96C133.609 35.3472 133.319 35.0785 133.319 34.7271V34.7064V11.2039C133.319 10.8525 133.588 10.5632 133.939 10.5632H133.96H138.756C139.107 10.5632 139.396 10.8319 139.396 11.1833C139.396 11.1833 139.396 11.1833 139.396 11.2039ZM176.831 10.5425C177.017 10.5425 177.244 10.6252 177.472 10.8319C177.616 10.9766 177.616 11.2039 177.575 11.39L169.658 34.9338C169.555 35.1818 169.327 35.3472 169.059 35.3472H164.78C164.49 35.3472 164.263 35.2025 164.18 34.9338L159.571 21.2085L154.961 34.9338C154.858 35.1818 154.631 35.3472 154.362 35.3472H150.083C149.794 35.3472 149.566 35.2025 149.484 34.9338L141.546 11.39C141.505 11.2039 141.505 11.0179 141.629 10.8319C141.732 10.6458 141.96 10.5425 142.146 10.5425H147.499C147.789 10.5425 148.016 10.7285 148.099 10.9972L152.336 24.9085L156.987 10.9972C157.09 10.7492 157.318 10.5838 157.586 10.5838H161.349C161.638 10.5838 161.865 10.7285 161.948 10.9972L166.599 24.9085L170.836 10.9972C170.919 10.7285 171.167 10.5425 171.436 10.5425H176.831ZM184.913 10.5425C185.244 10.5425 185.512 10.8319 185.554 11.1833V34.6857C185.554 35.0371 185.285 35.3265 184.934 35.3265H184.913H180.117C179.766 35.3265 179.477 35.0578 179.477 34.7064V34.6857V11.2039C179.477 10.8525 179.745 10.5632 180.097 10.5632H180.117H184.913V10.5425ZM130.508 34.5203C130.797 34.8511 130.549 35.3058 130.136 35.3058H124.266C124.038 35.3058 123.811 35.2025 123.666 35.0164L122.695 33.7969C120.648 35.0991 118.23 35.8846 115.667 35.8846C108.494 35.8846 102.685 30.0762 102.685 22.9035C102.685 15.7308 108.494 9.92236 115.667 9.92236C122.839 9.92236 128.648 15.7308 128.648 22.9035C128.648 25.4666 127.904 27.8851 126.601 29.9315L130.508 34.5203ZM89.1049 30.9443C89.8697 31.2337 90.1797 32.3913 90.2211 32.8874C90.3451 33.7969 90.0764 34.1689 89.787 34.1689C89.4976 34.1689 89.0842 33.8175 88.6294 33.0941C88.1954 32.3913 88.0093 31.5851 88.2367 31.1717C88.4021 30.903 88.7328 30.779 89.1049 30.9443ZM84.6193 34.2723C85.0948 34.2723 85.6322 34.479 86.1076 34.8924C87.0171 35.6572 87.2859 36.5461 86.8104 37.2075C86.5417 37.5382 86.1076 37.745 85.5909 37.745C85.0948 37.745 84.5573 37.5589 84.2059 37.2489C83.3791 36.5461 83.1311 35.3472 83.6685 34.7064C83.8752 34.4377 84.2059 34.2723 84.6193 34.2723ZM74.2427 42.8299C62.9979 42.8299 53.8822 33.7142 53.8822 22.4694C53.8822 11.2246 62.9979 2.10889 74.2427 2.10889C85.4875 2.10889 94.6032 11.2246 94.6032 22.4694C94.6032 26.2935 93.5284 29.8695 91.73 32.9287C91.668 33.0114 91.5233 32.9907 91.5026 32.8667C90.7998 27.8644 87.7406 25.1152 83.2964 24.2884C82.9037 24.2264 82.8623 23.999 83.3584 23.937C84.7227 23.813 86.6451 23.8543 87.6579 24.0197C87.7199 23.5236 87.7406 22.9862 87.7406 22.4487C87.7406 15.028 81.7048 8.97152 74.2634 8.97152C66.8427 8.97152 60.7862 15.0073 60.7862 22.4487C60.7862 29.8901 66.822 35.9259 74.2634 35.9259H74.8835C74.6768 34.7271 74.5734 33.5075 74.6148 32.2879C74.6355 31.4611 74.8215 31.3371 75.1729 31.9985C77.0332 35.2231 79.6997 38.117 84.9087 39.2746C89.1669 40.2254 93.425 41.321 98.0139 47.1501C98.4273 47.6462 97.8072 48.1836 97.3317 47.7702C92.6602 43.6154 88.4021 42.2718 84.516 42.2718C80.1958 42.2718 77.2399 42.8299 74.2427 42.8299ZM118.87 29.2907L116.307 26.1694C116.039 25.8387 116.266 25.3219 116.679 25.3219H122.074C122.364 24.5778 122.488 23.7303 122.488 22.9035C122.488 19.0381 119.594 15.6895 115.646 15.6895C111.698 15.6895 108.804 19.0381 108.804 22.9035C108.804 26.7689 111.698 30.0762 115.646 30.0762C116.783 30.1382 117.899 29.8075 118.87 29.2907Z" fill="#FF8C00"/>
</svg>
