<svg width="36" height="35" viewBox="0 0 36 35" fill="none" xmlns="http://www.w3.org/2000/svg">
<g clip-path="url(#clip0)">
<path d="M18 35C27.665 35 35.5 27.165 35.5 17.5C35.5 7.83502 27.665 0 18 0C8.33502 0 0.5 7.83502 0.5 17.5C0.5 27.165 8.33502 35 18 35Z" fill="#F0F0F0"/>
<path d="M34.4115 23.5869C35.115 21.6911 35.5 19.6406 35.5 17.5C35.5 15.3594 35.115 13.3089 34.4115 11.4131H1.58849C0.885068 13.3089 0.5 15.3594 0.5 17.5C0.5 19.6406 0.885068 21.6911 1.58849 23.5869L18 25.1087L34.4115 23.5869Z" fill="#0052B4"/>
<path d="M17.9999 35C25.5243 35 31.9388 30.2509 34.4114 23.5869H1.58838C4.06101 30.2509 10.4755 35 17.9999 35Z" fill="#D80027"/>
</g>
<defs>
<clipPath id="clip0">
<rect width="35" height="35" fill="white" transform="translate(0.5)"/>
</clipPath>
</defs>
</svg>
