<svg width="337" height="337" viewBox="0 0 337 337" fill="none" xmlns="http://www.w3.org/2000/svg">
<g clip-path="url(#clip0)">
<path fill-rule="evenodd" clip-rule="evenodd" d="M75.2794 230.499L139.415 231.553L172.73 176.74L108.645 175.776L75.2794 230.499Z" fill="url(#paint0_linear)"/>
<path fill-rule="evenodd" clip-rule="evenodd" d="M139.415 231.553L170.134 287.239L203.5 232.516L172.73 176.74L139.415 231.553Z" fill="url(#paint1_linear)"/>
<path fill-rule="evenodd" clip-rule="evenodd" d="M106.049 286.276L170.134 287.239L139.415 231.553L75.2794 230.499L106.049 286.276Z" fill="url(#paint2_linear)"/>
<path fill-rule="evenodd" clip-rule="evenodd" d="M172.73 176.74L236.956 177.744L270.272 122.93L206.186 121.967L172.73 176.74Z" fill="url(#paint3_linear)"/>
<path fill-rule="evenodd" clip-rule="evenodd" d="M236.956 177.744L267.676 233.43L301.041 178.707L270.272 122.93L236.956 177.744Z" fill="url(#paint4_linear)"/>
<path fill-rule="evenodd" clip-rule="evenodd" d="M203.5 232.516L267.676 233.43L236.956 177.744L172.73 176.74L203.5 232.516Z" fill="url(#paint5_linear)"/>
<path fill-rule="evenodd" clip-rule="evenodd" d="M111.291 65.3671L77.9254 120.09L142.011 121.053L175.467 66.2807L111.291 65.3671Z" fill="url(#paint6_linear)"/>
<path fill-rule="evenodd" clip-rule="evenodd" d="M142.011 121.053L172.73 176.74L206.186 121.967L175.467 66.2808L142.011 121.053Z" fill="url(#paint7_linear)"/>
<path fill-rule="evenodd" clip-rule="evenodd" d="M142.011 121.053L172.73 176.74L108.645 175.776L77.9254 120.09L142.011 121.053Z" fill="url(#paint8_linear)"/>
<path fill-rule="evenodd" clip-rule="evenodd" d="M206.186 121.967L172.73 176.74L108.645 175.776L142.011 121.053L206.186 121.967Z" fill="url(#paint9_linear)"/>
<path fill-rule="evenodd" clip-rule="evenodd" d="M172.73 176.74L203.5 232.516L236.956 177.744L206.186 121.967L172.73 176.74Z" fill="url(#paint10_linear)"/>
<path fill-rule="evenodd" clip-rule="evenodd" d="M172.73 176.74L203.5 232.516L139.415 231.553L108.645 175.776L172.73 176.74Z" fill="url(#paint11_linear)"/>
</g>
<defs>
<linearGradient id="paint0_linear" x1="154.252" y1="186.974" x2="75.2979" y2="230.53" gradientUnits="userSpaceOnUse">
<stop stop-color="#69BBFF" stop-opacity="0.2"/>
<stop offset="1" stop-color="#257AFF" stop-opacity="0"/>
</linearGradient>
<linearGradient id="paint1_linear" x1="178.941" y1="256.626" x2="182.756" y2="187.045" gradientUnits="userSpaceOnUse">
<stop stop-color="#69BBFF" stop-opacity="0.2"/>
<stop offset="1" stop-color="#257AFF" stop-opacity="0"/>
</linearGradient>
<linearGradient id="paint2_linear" x1="121.962" y1="278.205" x2="138.73" y2="251.051" gradientUnits="userSpaceOnUse">
<stop stop-color="#69BBFF" stop-opacity="0.2"/>
<stop offset="1" stop-color="#257AFF" stop-opacity="0"/>
</linearGradient>
<linearGradient id="paint3_linear" x1="251.733" y1="133.198" x2="172.789" y2="176.749" gradientUnits="userSpaceOnUse">
<stop stop-color="#69BBFF" stop-opacity="0.2"/>
<stop offset="1" stop-color="#257AFF" stop-opacity="0"/>
</linearGradient>
<linearGradient id="paint4_linear" x1="276.414" y1="202.855" x2="280.229" y2="133.274" gradientUnits="userSpaceOnUse">
<stop stop-color="#69BBFF" stop-opacity="0.2"/>
<stop offset="1" stop-color="#257AFF" stop-opacity="0"/>
</linearGradient>
<linearGradient id="paint5_linear" x1="219.447" y1="224.427" x2="236.215" y2="197.272" gradientUnits="userSpaceOnUse">
<stop stop-color="#69BBFF" stop-opacity="0.2"/>
<stop offset="1" stop-color="#257AFF" stop-opacity="0"/>
</linearGradient>
<linearGradient id="paint6_linear" x1="156.905" y1="76.5432" x2="77.9504" y2="120.099" gradientUnits="userSpaceOnUse">
<stop stop-color="#69BBFF" stop-opacity="0.2"/>
<stop offset="1" stop-color="#257AFF" stop-opacity="0"/>
</linearGradient>
<linearGradient id="paint7_linear" x1="181.579" y1="146.187" x2="185.394" y2="76.6058" gradientUnits="userSpaceOnUse">
<stop stop-color="#69BBFF" stop-opacity="0.2"/>
<stop offset="1" stop-color="#257AFF" stop-opacity="0"/>
</linearGradient>
<linearGradient id="paint8_linear" x1="124.607" y1="167.752" x2="141.375" y2="140.598" gradientUnits="userSpaceOnUse">
<stop stop-color="#69BBFF" stop-opacity="0.2"/>
<stop offset="1" stop-color="#257AFF" stop-opacity="0"/>
</linearGradient>
<linearGradient id="paint9_linear" x1="206.166" y1="122.009" x2="118.437" y2="170.405" gradientUnits="userSpaceOnUse">
<stop stop-color="#69BBFF"/>
<stop offset="1" stop-color="#257AFF"/>
</linearGradient>
<linearGradient id="paint10_linear" x1="207.324" y1="202.375" x2="223.432" y2="163.857" gradientUnits="userSpaceOnUse">
<stop stop-color="#69BBFF"/>
<stop offset="1" stop-color="#257AFF"/>
</linearGradient>
<linearGradient id="paint11_linear" x1="158.58" y1="229.265" x2="174.687" y2="190.747" gradientUnits="userSpaceOnUse">
<stop stop-color="#69BBFF"/>
<stop offset="1" stop-color="#257AFF"/>
</linearGradient>
<clipPath id="clip0">
<rect width="247.783" height="247.783" fill="white" transform="translate(0 119.687) rotate(-28.8836)"/>
</clipPath>
</defs>
</svg>
