<svg width="240" height="50" viewBox="0 0 240 50" fill="none" xmlns="http://www.w3.org/2000/svg">
<path fill-rule="evenodd" clip-rule="evenodd" d="M146.172 12.8125C148.906 12.8125 151.094 10.625 151.094 7.89062C151.094 5.15625 148.906 2.96875 146.172 2.96875C143.438 2.96875 141.25 5.15625 141.25 7.89062C141.172 10.625 143.438 12.8125 146.172 12.8125ZM108.281 15.5469C108.047 16.0938 106.484 20.625 102.578 25.3125V5.23438L92.1875 7.26562V43.75H102.578V32.4219C105.547 36.9531 107.031 43.6719 107.031 43.6719H119.453C118.203 38.5938 112.891 29.1406 112.891 29.1406C117.734 23.0469 119.844 16.5625 120.156 15.4687H108.281V15.5469ZM135.469 15.1562C126.172 15.4688 121.484 19.6094 121.484 27.8906V43.75H131.562V30.7813C131.562 25.8594 132.188 23.6719 138.125 23.5156V15.3125C137.109 15.0781 135.469 15.1562 135.469 15.1562ZM74.8438 19.5312C73.5938 19.4531 70.625 19.2969 70.625 16.6406C70.625 13.4375 74.8438 13.4375 76.4063 13.4375C79.2188 13.4375 82.8125 14.2969 85.3906 15C85.3906 15 86.7969 15.4688 88.0469 16.0156H88.125V7.34375L87.9688 7.26562C84.9219 6.17188 81.4063 5.15625 74.8438 5.15625C63.5156 5.15625 59.5312 11.7188 59.5312 17.4219C59.5312 20.7031 60.9375 28.3594 73.9063 29.2188C75 29.2969 77.8906 29.4531 77.8906 32.1875C77.8906 34.4531 75.4688 35.7812 71.4844 35.7812C67.1094 35.7812 62.8125 34.6875 60.2344 33.5938V42.5781C64.1406 43.5938 68.5156 44.1406 73.5938 44.1406C84.6875 44.1406 89.6094 37.8906 89.6094 31.7188C89.6875 24.6875 84.1406 20.1562 74.8438 19.5312ZM141.094 43.6719H151.094V15.5469H141.094V43.6719ZM170.078 7.03125V43.75H180.078V5.23438L170.078 7.03125ZM155.391 7.03125L165.391 5.23438V43.75H155.391V7.03125Z" fill="url(#paint0_linear)"/>
<defs>
<linearGradient id="paint0_linear" x1="89.0097" y1="3.514" x2="98.0681" y2="54.2936" gradientUnits="userSpaceOnUse">
<stop stop-color="#6B195F"/>
<stop offset="1" stop-color="#4C255B"/>
</linearGradient>
</defs>
</svg>
