<svg width="240" height="50" viewBox="0 0 240 50" fill="none" xmlns="http://www.w3.org/2000/svg">
<path d="M81.3281 9.375H64.1406C61.4062 9.375 58.75 9.375 56.4062 10.5469C54.0625 11.7188 51.9531 14.1406 50.3906 18.9063C50.0781 19.9219 49.8437 20.8594 49.8437 21.5625C49.8437 22.3438 49.9219 22.9688 50.2344 23.5938C50.625 24.2969 51.1719 24.9219 51.9531 25.4687C52.6562 26.0156 53.5937 26.4844 54.5312 26.7969C54.5312 26.7969 55.0781 26.9531 55.7031 27.1094C56.3281 27.2656 57.0312 27.5 57.4219 27.6563C57.6562 27.7344 57.9687 27.8125 58.2031 27.9688C58.4375 28.125 58.6719 28.3594 58.8281 28.5937C58.9062 28.75 58.9844 28.9844 58.9844 29.2188C58.9844 29.4531 58.9844 29.6875 58.8281 29.9219C58.5937 30.5469 58.2812 31.0156 57.6562 31.25C57.0312 31.4844 56.0937 31.5625 54.6875 31.5625H36.9531L34.1406 39.2188H53.125C54.9219 39.2188 58.2031 39.2188 61.3281 37.8906C64.4531 36.5625 67.5 33.9062 68.75 28.5937C69.2187 26.5625 69.0625 24.9219 68.2812 23.6719C67.5 22.4219 66.0937 21.4844 63.9844 20.8594C63.9844 20.8594 63.5156 20.7031 62.9687 20.5469C62.4219 20.3906 61.7969 20.2344 61.4844 20.1562C60.9375 20 60.5469 19.6875 60.3125 19.2969C60.0781 18.9063 60 18.4375 60.1562 17.9688C60.3125 17.5 60.625 17.0312 61.1719 16.7969C61.6406 16.4844 62.3437 16.4062 63.125 16.4062H74.1406C74.2187 16.3281 74.2969 16.1719 74.375 16.0938C76.25 13.2813 78.6719 11.0156 81.3281 9.375Z" fill="#F48120"/>
<path d="M81.4062 9.375H64.2188C61.4844 9.375 58.9063 9.375 56.4844 10.5469C54.1406 11.7188 52.0312 14.1406 50.4688 18.9063C50.1562 19.9219 49.9219 20.8594 49.9219 21.5625C49.9219 22.3438 50 22.9688 50.3125 23.5938C50.7031 24.2969 51.25 24.9219 51.9531 25.4687C52.6562 26.0156 53.5938 26.4844 54.5313 26.7969C54.5313 26.7969 55.0781 26.9531 55.7031 27.1094C56.3281 27.2656 57.0313 27.5 57.4219 27.6563C57.6563 27.7344 57.9688 27.8125 58.2031 27.9688C58.4375 28.125 58.6719 28.3594 58.8281 28.5937C58.9063 28.75 58.9844 28.9844 58.9844 29.2188C58.9844 29.4531 58.9844 29.6875 58.8281 29.9219C58.5938 30.5469 58.2813 31.0156 57.6563 31.25C57.0313 31.4844 56.0938 31.5625 54.6875 31.5625H36.9531L34.1406 39.2188H53.125C54.9219 39.2188 58.2031 39.2188 61.3281 37.8906C64.4531 36.5625 67.5 33.9062 68.75 28.5937C69.2188 26.5625 69.0625 25 68.2813 23.6719C67.5 22.4219 66.0938 21.4844 63.9844 20.8594C63.9844 20.8594 63.5156 20.7031 62.9688 20.5469C62.4219 20.3906 61.7969 20.2344 61.4844 20.1562C60.9375 20 60.5469 19.6875 60.3125 19.2969C60.0781 18.9063 60 18.4375 60.1563 17.9688C60.3125 17.5 60.625 17.0312 61.1719 16.7969C61.6406 16.4844 62.3438 16.4062 63.125 16.4062H74.1406C74.2188 16.3281 74.2969 16.1719 74.375 16.0938C76.25 13.2813 78.6719 10.9375 81.4062 9.375Z" fill="#F48120"/>
<path d="M175.078 9.375C175.703 9.84375 176.172 10.3906 176.563 11.0156C177.656 12.5781 178.047 14.4531 177.813 16.5625H183.359L175 39.4531H183.359L191.719 16.5625H202.422L205 9.45313H175.078" fill="#F48120"/>
<path d="M166.562 18.9844C165.703 21.4062 164.062 22.8906 161.016 22.8906H159.453L162.109 15.625H163.672C166.484 15.625 167.5 16.4062 166.562 18.9844ZM174.687 12.3438C173.281 10.3906 170.547 9.375 166.172 9.375H156.094L145.156 39.375H154.453L158.437 28.8281C158.594 29.2969 160.937 39.375 160.937 39.375H170.703C170.703 39.375 168.906 31.9531 167.656 28.9062C167.344 28.125 166.953 27.2656 166.484 26.5625C169.219 25.5469 173.203 23.3594 174.922 18.9062C175.859 16.1719 175.781 13.9844 174.687 12.3438Z" fill="#F48120"/>
<path d="M89.4532 24.2188C86.875 31.25 85 33.0469 82.1875 33.0469C79.4531 33.0469 78.5156 31.3281 81.0156 24.2969C82.9688 19.0625 85.3907 15.7031 88.4375 15.7031C91.3282 15.7813 91.9532 17.4219 89.4532 24.2188ZM98.2813 12.1875C96.7969 10.0781 94.2188 8.98438 90.625 8.98438C88.2813 8.98438 86.0157 9.53125 83.9063 10.5469C80.8594 11.9531 78.125 14.375 75.8594 17.5781C74.375 19.6094 73.125 22.0313 72.1875 24.6875C70.3125 29.6875 70.3125 33.8281 72.2657 36.5625C73.3594 38.125 75.5469 39.9219 80.0782 39.9219C88.3594 39.9219 94.4532 34.5313 98.3594 23.8281C99.375 21.0156 100.781 15.7813 98.2813 12.1875Z" fill="#F48120"/>
<path d="M131.25 9.375H113.672C108.75 9.375 105.078 11.875 103.359 16.4844L95 39.375H104.141L108.438 27.5781H116.484L118.75 21.25H110.703L112.031 17.5781C112.266 16.9531 112.969 16.4062 113.906 16.4062C114.453 16.4062 120.391 16.4062 123.438 16.4062C123.516 16.3281 123.594 16.1719 123.672 16.0938C125.703 13.2812 128.594 11.0156 131.25 9.375Z" fill="#F48120"/>
<path d="M139.219 24.2188C136.641 31.25 134.766 33.0469 131.953 33.0469C129.219 33.0469 128.281 31.3281 130.781 24.2969C132.656 19.0625 135.156 15.7031 138.203 15.7031C141.094 15.7813 141.719 17.4219 139.219 24.2188ZM148.047 12.1875C146.562 10.0781 143.984 8.98438 140.391 8.98438C138.047 8.98438 135.781 9.53125 133.672 10.5469C130.625 11.9531 127.891 14.375 125.625 17.5781C124.141 19.6094 122.891 22.0313 121.953 24.6875C120.078 29.7656 120.156 33.8281 122.031 36.5625C123.125 38.125 125.312 39.9219 129.844 39.9219C138.125 39.9219 144.219 34.5313 148.125 23.8281C149.141 21.0156 150.547 15.7813 148.047 12.1875Z" fill="#F48120"/>
<path d="M175.078 9.375C175.703 9.84375 176.172 10.3906 176.563 11.0156C177.656 12.5781 178.047 14.4531 177.813 16.5625H183.359L175 39.4531H183.359L191.719 16.5625H202.422L205 9.45313H175.078" fill="#F48120"/>
<path d="M166.562 18.9063C165.703 21.3281 164.062 22.8125 161.016 22.8125H159.453L162.109 15.5469H163.672C166.484 15.5469 167.578 16.4063 166.562 18.9063ZM174.687 12.2656C173.281 10.3125 170.547 9.29688 166.172 9.29688H156.094L145.156 39.2969H154.453L158.437 28.75C158.594 29.2188 160.937 39.2969 160.937 39.2969H170.703C170.703 39.2969 168.906 31.875 167.656 28.8281C167.344 28.0469 166.953 27.1875 166.484 26.4844C169.219 25.4688 173.203 23.2812 174.922 18.8281C175.859 16.1719 175.781 13.9062 174.687 12.2656Z" fill="#F48120"/>
<path d="M89.4532 24.2188C86.875 31.25 85 33.0469 82.1875 33.0469C79.4531 33.0469 78.5156 31.3281 81.0156 24.2969C82.8907 19.0625 85.3907 15.7031 88.4375 15.7031C91.3282 15.7031 91.9532 17.3438 89.4532 24.2188ZM98.2813 12.1875C96.7969 10.0781 94.2188 8.98438 90.625 8.98438C88.2813 8.98438 86.0157 9.53125 83.9063 10.5469C80.8594 11.9531 78.125 14.375 75.8594 17.5781C74.375 19.6094 73.125 22.0312 72.1875 24.6875C70.3125 29.6875 70.3125 33.8281 72.2657 36.4844C73.3594 38.0469 75.5469 39.8438 80.0782 39.8438C88.3594 39.8438 94.4532 34.4531 98.3594 23.75C99.375 20.9375 100.781 15.7031 98.2813 12.1875Z" fill="#F48120"/>
<path d="M131.25 9.375H113.672C108.75 9.375 105.078 11.875 103.359 16.4844L95 39.375H104.141L108.438 27.5781H116.484L118.75 21.25H110.703L112.031 17.5781C112.266 16.9531 112.969 16.4062 113.906 16.4062C114.453 16.4062 120.391 16.4062 123.438 16.4062C123.516 16.3281 123.594 16.1719 123.672 16.0938C125.703 13.2812 128.594 10.9375 131.25 9.375Z" fill="#F48120"/>
<path d="M139.219 24.2188C136.641 31.25 134.766 33.0469 131.953 33.0469C129.219 33.0469 128.281 31.3281 130.781 24.2969C132.656 19.0625 135.156 15.7031 138.203 15.7031C141.094 15.7031 141.719 17.3438 139.219 24.2188ZM148.047 12.1875C146.562 10.0781 143.984 8.98438 140.391 8.98438C138.047 8.98438 135.781 9.53125 133.672 10.5469C130.625 11.9531 127.891 14.375 125.625 17.5781C124.141 19.6094 122.891 22.0313 121.953 24.6875C120.078 29.7656 120.156 33.8281 122.031 36.5625C123.125 38.125 125.312 39.9219 129.844 39.9219C138.125 39.9219 144.219 34.5313 148.125 23.8281C149.141 20.9375 150.547 15.7031 148.047 12.1875Z" fill="#F48120"/>
</svg>
