<svg width="74" height="27" viewBox="0 0 74 27" fill="none" xmlns="http://www.w3.org/2000/svg">
<g clip-path="url(#clip0)">
<path d="M31.9511 25.0191H25.9385L29.6964 2.03174H35.709L31.9511 25.0191Z" fill="#00579F"/>
<path d="M53.7468 2.59216C52.6194 2.03149 50.7405 1.65771 48.2979 1.65771C42.2852 1.65771 38.1516 4.83483 38.1516 9.32017C38.1516 12.6842 41.1579 14.5531 43.4126 15.6744C45.6673 16.7957 46.6068 17.5433 46.6068 18.4777C46.6068 19.9728 44.7279 20.7204 43.0368 20.7204C40.5942 20.7204 39.2789 20.3466 37.4 19.4122L36.6484 19.0384L35.8969 24.2713C37.4 24.832 39.8426 25.3926 42.661 25.5795C49.0494 25.5795 52.9952 22.4024 53.1831 17.7302C53.1831 15.1137 51.68 13.0579 48.11 11.3759C46.0431 10.2546 44.7279 9.69394 44.7279 8.57261C44.7279 7.63816 45.8552 6.51683 48.11 6.51683C49.9889 6.51683 51.4921 6.89061 52.6194 7.45128L53.1831 7.63816L53.7468 2.59216Z" fill="#00579F"/>
<path d="M61.6383 16.9829C62.202 15.6746 64.081 10.4417 64.081 10.4417C64.081 10.4417 64.6446 9.13353 64.8325 8.19908L65.2083 10.2549C65.2083 10.2549 66.3357 15.8615 66.5236 16.9829C65.772 16.9829 62.9536 16.9829 61.6383 16.9829ZM69.1541 2.03174H64.4568C62.9536 2.03174 62.0141 2.40552 61.2626 3.90063L52.4315 25.0191H58.8199C58.8199 25.0191 59.9473 22.2158 60.1352 21.4682C60.8868 21.4682 66.8994 21.4682 67.8388 21.4682C68.0267 22.2158 68.5904 25.0191 68.5904 25.0191H74.2272L69.1541 2.03174Z" fill="#00579F"/>
<path d="M20.8653 2.03161L15.0406 17.7303L14.4769 14.5532C13.3496 10.8154 9.96747 6.89073 6.20959 4.83495L11.6585 25.019H18.0469L27.4416 1.84473L20.8653 2.03161Z" fill="#00579F"/>
<path d="M9.40379 2.03174H-0.178804L-0.366699 2.40552C7.14906 4.27441 12.2222 8.94664 14.289 14.5533L12.2222 3.90063C11.8464 2.40552 10.719 2.03174 9.40379 2.03174Z" fill="#FAA61A"/>
</g>
<defs>
<clipPath id="clip0">
<rect width="74" height="27" fill="white"/>
</clipPath>
</defs>
</svg>
