<svg width="241" height="50" viewBox="0 0 241 50" fill="none" xmlns="http://www.w3.org/2000/svg">
<path d="M103.563 46.3309H92.4342L99.3899 3.76172H110.519L103.563 46.3309Z" fill="#00579F"/>
<path d="M143.906 4.80028C141.82 3.76201 138.342 3.06982 133.821 3.06982C122.691 3.06982 115.04 8.95337 115.04 17.2596C115.04 23.4892 120.605 26.9501 124.778 29.0266C128.952 31.1032 130.69 32.4875 130.69 34.218C130.69 36.9867 127.213 38.3711 124.083 38.3711C119.561 38.3711 117.127 37.6789 113.649 35.9485L112.258 35.2563L110.867 44.9468C113.649 45.9851 118.17 47.0234 123.387 47.3695C135.212 47.3695 142.515 41.4859 142.863 32.8336C142.863 27.9884 140.081 24.1814 133.473 21.0665C129.647 18.99 127.213 17.9517 127.213 15.8752C127.213 14.1447 129.299 12.0682 133.473 12.0682C136.951 12.0682 139.733 12.7604 141.82 13.7986L142.863 14.1447L143.906 4.80028Z" fill="#00579F"/>
<path d="M158.513 31.449C159.557 29.0264 163.035 19.3358 163.035 19.3358C163.035 19.3358 164.078 16.9132 164.426 15.1827L165.121 18.9897C165.121 18.9897 167.208 29.3724 167.556 31.449C166.165 31.449 160.948 31.449 158.513 31.449ZM172.425 3.76172H163.73C160.948 3.76172 159.209 4.4539 157.818 7.22263L141.472 46.3309H153.297C153.297 46.3309 155.383 41.1395 155.731 39.7552C157.122 39.7552 168.251 39.7552 169.99 39.7552C170.338 41.1395 171.381 46.3309 171.381 46.3309H181.815L172.425 3.76172Z" fill="#00579F"/>
<path d="M83.044 3.7621L72.2627 32.8337L71.2194 26.9502C69.1326 20.0284 62.8725 12.7605 55.9168 8.95346L66.0026 46.3313H77.8273L95.2165 3.41602L83.044 3.7621Z" fill="#00579F"/>
<path d="M61.8292 3.76172H44.0921L43.7444 4.4539C57.6557 7.91481 67.0459 16.5671 70.8716 26.9498L67.0459 7.22263C66.3504 4.4539 64.2636 3.76172 61.8292 3.76172Z" fill="#FAA61A"/>
</svg>
