<svg width="198" height="60" viewBox="0 0 198 60" fill="none" xmlns="http://www.w3.org/2000/svg">
<path d="M164.808 10.8076C167.929 10.8076 170.897 11.5225 173.561 12.8012C173.979 12.9897 174.399 13.2152 174.816 13.441L172.989 15.059L170.251 12.2375L165.532 16.3752L162.754 13.4029L154.078 21.115L159.632 27.1717L157.464 29.0521L162.944 35.1088L160.776 36.9885L168.615 45.6033L173.255 41.3898L177.29 45.9052C176.491 46.5072 175.615 47.1103 174.665 47.6361C171.773 49.2535 168.423 50.1922 164.847 50.1922C153.848 50.1922 144.907 41.3537 144.907 30.483C144.868 19.6857 153.811 10.8076 164.808 10.8076ZM161.155 29.2783L165.912 25.0648L170.174 29.767L165.417 33.9801L161.155 29.2783ZM164.542 37.4041L169.261 33.1533L173.561 37.8551L168.804 42.0688L164.542 37.4041ZM157.77 21.266L162.525 17.0525L166.787 21.7547L162.03 25.968L157.77 21.266ZM166.482 19.0082L170.022 15.8484L173.219 19.3471L169.68 22.5442L166.482 19.0082ZM172.8 33.4912L176.338 30.3312L179.535 33.8664L175.996 37.0283L172.8 33.4912ZM175.92 40.6018L179.459 37.4412L182.654 40.9397L179.116 44.1363L175.92 40.6018ZM177.366 24.35L179.725 22.2432L181.855 24.5764L179.497 26.6824L177.366 24.35ZM174.322 17.3906L176.681 15.2469L178.813 17.6164L176.452 19.723L174.322 17.3906ZM180.372 31.31L182.731 29.2033L184.9 31.5357L182.503 33.6418L180.372 31.31ZM169.755 26.0809L173.295 22.9209L176.491 26.4188L172.953 29.5793L169.755 26.0809Z" fill="#036CB5"/>
<mask id="mask0" style="mask-type:alpha" maskUnits="userSpaceOnUse" x="13" y="18" width="21" height="20">
<path d="M13.1 18.9907V37.1737H33.899V18.9907H13.1Z" fill="white"/>
</mask>
<g mask="url(#mask0)">
<path d="M23.538 24.3749H23.3585L19.9888 37.1737H17.2345L13.1 18.9907H15.9577L18.8161 32.5583H18.9946L22.3116 18.9907H24.5836L28.131 32.5583H28.3096L30.913 18.9907H33.899L29.7635 37.1737H27.0071L23.538 24.3749Z" fill="#036CB5"/>
</g>
<path d="M37.5247 29.4328H43.3676C43.2409 26.7408 41.9386 25.6647 40.5611 25.6647C39.0044 25.6647 37.8042 26.8697 37.5247 29.4328ZM45.4089 34.2557V36.2051C44.2608 36.8717 42.7304 37.385 40.8919 37.385C36.6058 37.385 34.845 34.7178 34.845 30.6662C34.845 26.7664 36.8096 23.9453 40.6376 23.9453C43.8267 23.9453 45.7929 26.024 45.7929 30.2033V31.1523H37.4736C37.4736 34.2289 38.7232 35.5885 41.3527 35.5885C42.7304 35.5885 44.0064 35.1004 45.4089 34.2557Z" fill="#036CB5"/>
<path d="M51.7285 35.3286C52.5453 35.6876 53.4391 35.7407 54.0782 35.7407C55.9662 35.7407 57.3937 34.5593 57.3937 30.4058C57.3937 27.1487 56.22 26.0972 54.5109 26.0972C53.4893 26.0972 52.7496 26.3802 51.7285 26.9433V35.3286H51.7285ZM51.7554 25.046C52.519 24.637 53.8203 24.0966 55.1989 24.0966C58.3637 24.0966 60.0737 26.3021 60.0737 30.4058C60.0737 35.2019 57.7766 37.5357 54.0782 37.5357C52.7246 37.5357 50.6321 37.0995 49.1001 36.2771V18.378L51.7554 17.7378V25.046H51.7554Z" fill="#036CB5"/>
<path d="M71.5596 33.3156H71.6874L77.1475 18.9795H80.3136V37.1638H77.5576V23.9808H77.3275L72.1207 37.1638H70.489L65.2811 24.2891H65.0523V37.1638H62.7553V18.9795H65.8441L71.5596 33.3156Z" fill="#036CB5"/>
<path d="M91.5738 30.6654C91.5738 27.2035 90.1713 25.7424 88.436 25.7424C86.7523 25.7424 85.2965 27.2035 85.2965 30.6654C85.2965 34.1793 86.6251 35.5885 88.436 35.5885C90.247 35.5885 91.5738 34.1793 91.5738 30.6654ZM82.618 30.6654C82.618 26.1758 85.0685 23.9453 88.436 23.9453C91.8057 23.9453 94.2548 26.1758 94.2548 30.6654C94.2548 35.05 91.9327 37.385 88.436 37.385C84.9401 37.385 82.618 35.05 82.618 30.6654Z" fill="#036CB5"/>
<path d="M96.2733 25.8445C97.4215 25.151 99.8469 23.9453 102.781 23.9453C105.843 23.9453 106.989 25.151 106.989 27.7918V37.077H104.337V28.3824C104.337 26.3568 103.344 25.9978 102.04 25.9978C101.021 25.9978 99.7178 26.4601 98.9274 26.9217V37.0769H96.2733V25.8445H96.2733Z" fill="#036CB5"/>
<path d="M112.607 29.4328H118.45C118.325 26.7408 117.022 25.6647 115.644 25.6647C114.087 25.6647 112.889 26.8697 112.607 29.4328ZM120.491 34.2557V36.2051C119.344 36.8717 117.812 37.385 115.975 37.385C111.69 37.385 109.928 34.7178 109.928 30.6662C109.928 26.7664 111.892 23.9453 115.72 23.9453C118.911 23.9453 120.877 26.024 120.877 30.2033V31.1523H112.557C112.557 34.2289 113.807 35.5885 116.436 35.5885C117.812 35.5885 119.09 35.1004 120.491 34.2557Z" fill="#036CB5"/>
<path d="M131.477 23.9453H134.208L129.589 36.7666C128.311 40.3061 126.756 42.1528 123.822 42.1528V40.0512C125.558 40.0512 126.628 38.6656 127.242 36.7666L122.342 23.9453H125.15L128.416 33.3828H128.569L131.477 23.9453Z" fill="#036CB5"/>
<path d="M40.6643 48.9932V47.8857C41.6105 48.3662 42.511 48.6074 43.3643 48.6074C44.0749 48.6074 44.6193 48.4771 44.9997 48.2141C45.3802 47.9527 45.5707 47.5994 45.5707 47.1527C45.5707 46.7063 45.4143 46.3713 45.1013 46.1484C44.7891 45.926 44.2055 45.6504 43.3518 45.324C43.0556 45.2127 42.8663 45.1402 42.7808 45.1057C42.6968 45.0721 42.5319 45.0025 42.2864 44.9C42.0416 44.7977 41.881 44.7197 41.8052 44.6686C41.7289 44.6156 41.6005 44.5381 41.4183 44.4365C41.2368 44.3324 41.1143 44.2408 41.0505 44.1607C40.9878 44.0783 40.9006 43.9742 40.7907 43.85C40.681 43.7262 40.6068 43.6031 40.5686 43.4777C40.5309 43.3535 40.4945 43.2098 40.4611 43.0463C40.4276 42.8826 40.4104 42.7072 40.4104 42.5184C40.4104 41.7887 40.6791 41.2024 41.2154 40.7555C41.7526 40.3102 42.4937 40.0869 43.4407 40.0869C44.2771 40.0869 45.1103 40.241 45.9378 40.5502V41.7207C45.1351 41.3254 44.3322 41.1297 43.5291 41.1297C42.9629 41.1297 42.5403 41.2478 42.2614 41.4879C41.9824 41.7279 41.8428 42.0455 41.8428 42.4408C41.8428 42.8615 41.9824 43.1804 42.2614 43.3998C42.5403 43.6199 43.0393 43.8623 43.7578 44.1275C44.9913 44.5824 45.841 44.9941 46.3055 45.3637C46.7707 45.7314 47.0031 46.2822 47.0031 47.0105C47.0031 47.775 46.684 48.3998 46.0458 48.8846C45.4077 49.3693 44.5311 49.6119 43.4151 49.6119C42.3929 49.6119 41.4756 49.4049 40.6643 48.9932ZM53.564 49.417H52.3598L52.2708 48.6705C51.5434 49.2719 50.8169 49.5727 50.09 49.5727C49.4817 49.5727 49.0105 49.4078 48.6769 49.0766C48.3424 48.7463 48.1757 48.3291 48.1757 47.8215C48.1757 47.5551 48.2241 47.3006 48.3215 47.0559C48.4188 46.8109 48.5795 46.5736 48.8032 46.342C49.0271 46.11 49.3651 45.9238 49.8172 45.7816C50.2692 45.6393 50.8127 45.5689 51.4468 45.5689H52.233V45.2215C52.233 44.6467 52.1273 44.2553 51.9159 44.0439C51.7041 43.8336 51.3493 43.7285 50.8509 43.7285C50.2424 43.7285 49.4941 43.9805 48.607 44.4881V43.4586C49.5199 43.0383 50.4154 42.8264 51.2943 42.8264C52.1477 42.8264 52.7399 43.0033 53.069 43.3559C53.3991 43.7069 53.564 44.2397 53.564 44.9502V49.417ZM52.2457 46.4695H51.5732C50.1869 46.4695 49.4941 46.8861 49.4941 47.7188C49.4941 48.0115 49.5867 48.2217 49.7729 48.3555C49.9593 48.4889 50.1917 48.5547 50.4709 48.5547C50.8251 48.5547 51.1678 48.4688 51.4973 48.2967C51.8269 48.1262 52.0766 47.9289 52.2457 47.7057V46.4695H52.2457ZM55.624 51.9922V43.768C55.9961 43.484 56.435 43.2557 56.9426 43.0844C57.45 42.914 57.9479 42.8264 58.4388 42.8264C60.1961 42.8264 61.0756 43.9039 61.0756 46.0586C61.0756 47.174 60.8475 48.0279 60.3907 48.6189C59.9345 49.2117 59.2801 49.5064 58.4257 49.5064C57.8339 49.5064 57.3395 49.3562 56.9426 49.0578V51.9922H55.624ZM56.9299 44.2041V48.1057C57.0989 48.268 57.312 48.3889 57.5699 48.4709C57.8279 48.5523 58.0542 48.593 58.2483 48.593C58.7129 48.593 59.0789 48.4117 59.3452 48.0471C59.6114 47.6817 59.744 47.019 59.744 46.0586C59.744 45.2777 59.6074 44.7055 59.3326 44.3471C59.0579 43.9854 58.7004 43.8061 58.2609 43.8061C57.7629 43.8061 57.3192 43.9383 56.9299 44.2041ZM64.0994 42.8926V49.417H62.781V43.2137L64.0994 42.8926ZM62.5779 40.9994C62.5779 40.7678 62.6644 40.5647 62.8375 40.3877C63.0113 40.2119 63.2121 40.1236 63.4395 40.1236C63.6683 40.1236 63.869 40.2119 64.0426 40.3877C64.2158 40.5647 64.3023 40.7678 64.3023 40.9994C64.3023 41.2311 64.2158 41.4356 64.0426 41.6121C63.8689 41.7863 63.6683 41.8746 63.4395 41.8746C63.2121 41.8746 63.0113 41.7863 62.8375 41.6121C62.6645 41.4355 62.5779 41.2311 62.5779 40.9994ZM69.0374 48.6705C69.6464 48.6705 70.3176 48.4473 71.0531 48.0019V48.9801C70.3772 49.3754 69.6291 49.5726 68.8093 49.5726C67.7781 49.5726 67.0198 49.2764 66.5338 48.684C66.0477 48.0914 65.8047 47.2638 65.8047 46.1998C65.8047 45.1867 66.0542 44.3707 66.5523 43.7549C67.0515 43.1371 67.7609 42.8263 68.682 42.8263C69.4941 42.8263 70.123 43.0931 70.572 43.6258C71.0197 44.1586 71.2431 44.9383 71.2431 45.9678V46.4447H67.1106C67.1106 47.2088 67.267 47.7715 67.5793 48.1297C67.8922 48.4916 68.3782 48.6705 69.0374 48.6705ZM68.6439 43.6902C68.2474 43.6902 67.9131 43.8492 67.6426 44.1654C67.3726 44.4834 67.2031 44.9563 67.1356 45.5809H70.0388C70.0047 44.9467 69.8572 44.4738 69.595 44.1607C69.3335 43.8467 69.0164 43.6902 68.6439 43.6902ZM72.9228 49.417V43.7801C73.9623 43.1445 75.04 42.8264 76.1562 42.8264C76.9084 42.8264 77.4446 42.982 77.7658 43.2912C78.0871 43.6004 78.2477 44.0891 78.2477 44.7578V49.417H76.9294V45.0541C76.9294 44.5824 76.832 44.2644 76.6378 44.1023C76.4433 43.9383 76.1604 43.8574 75.7882 43.8574C75.2814 43.8574 74.7655 44.0125 74.2418 44.3211V49.417H72.9228V49.417ZM81.5629 43.1371H83.5661L83.249 44.0125H81.5629V47.4096C81.5629 48.268 81.9265 48.6969 82.6531 48.6969C82.932 48.6969 83.2151 48.6373 83.5034 48.5168V49.3398C83.1059 49.4947 82.6322 49.5727 82.0829 49.5727C81.449 49.5727 80.9842 49.3898 80.6881 49.024C80.3925 48.6609 80.2445 48.182 80.2445 47.5885V42.2867L81.5629 41.3203V43.1371H81.5629ZM86.1469 42.8926V49.417H84.8279V43.2137L86.1469 42.8926ZM84.6254 40.9994C84.6254 40.7678 84.7121 40.5647 84.8844 40.3877C85.0576 40.2119 85.2583 40.1236 85.4871 40.1236C85.715 40.1236 85.9163 40.2119 86.089 40.3877C86.2626 40.5647 86.3492 40.7678 86.3492 40.9994C86.3492 41.2311 86.2626 41.4356 86.089 41.6121C85.9163 41.7863 85.7151 41.8746 85.4871 41.8746C85.2583 41.8746 85.0576 41.7863 84.8844 41.6121C84.7121 41.4355 84.6254 41.2311 84.6254 40.9994ZM95.1225 43.3424V44.3707C94.4884 43.9422 93.8459 43.7285 93.1957 43.7285C92.866 43.7285 92.5956 43.7928 92.3837 43.9219C92.1727 44.0496 92.067 44.2565 92.067 44.5381C92.067 44.8057 92.1829 45.0174 92.4153 45.176C92.6479 45.3352 93.0136 45.4961 93.5127 45.658C93.7916 45.7526 94.0004 45.826 94.1395 45.8772C94.2795 45.9299 94.4628 46.0159 94.6914 46.1352C94.9194 46.2559 95.0909 46.3748 95.2048 46.4959C95.3189 46.6164 95.4224 46.7742 95.5156 46.9723C95.6086 47.1695 95.6545 47.3877 95.6545 47.6281C95.6545 48.2207 95.42 48.6924 94.9516 49.0444C94.4824 49.3961 93.8544 49.5727 93.0689 49.5727C92.1895 49.5727 91.458 49.3838 90.8752 49.0051V48.002C91.6187 48.4473 92.2993 48.6705 92.9169 48.6705C93.8459 48.6705 94.311 48.3625 94.311 47.744C94.311 47.6244 94.2835 47.5119 94.2286 47.4096C94.1736 47.3067 94.1103 47.2231 94.0386 47.1584C93.9665 47.0942 93.8501 47.0215 93.6894 46.9387C93.5287 46.8588 93.3939 46.7991 93.2839 46.7598C93.1742 46.7215 93.0009 46.6592 92.7645 46.5737C92.4176 46.4448 92.143 46.3336 91.9399 46.2387C91.7368 46.1436 91.5346 46.0217 91.3316 45.8721C91.1284 45.7219 90.9803 45.5426 90.888 45.3373C90.7952 45.1321 90.7486 44.8868 90.7486 44.6039C90.7486 44.2434 90.8329 43.9354 91.0019 43.6785C91.1709 43.4194 91.3911 43.235 91.661 43.1239C91.9315 43.0119 92.1788 42.9342 92.4027 42.8926C92.627 42.8483 92.8487 42.8264 93.0689 42.8264C93.7875 42.8264 94.4718 42.9984 95.1225 43.3424ZM102.127 49.417H100.923L100.833 48.6705C100.106 49.2719 99.3799 49.5727 98.6533 49.5727C98.0448 49.5727 97.5735 49.4078 97.2396 49.0766C96.9054 48.7463 96.7389 48.3291 96.7389 47.8215C96.7389 47.5551 96.7873 47.3006 96.8848 47.0559C96.9818 46.8109 97.1425 46.5736 97.3665 46.342C97.591 46.11 97.9282 45.9238 98.3804 45.7816C98.8328 45.6393 99.3762 45.5689 100.009 45.5689H100.796V45.2215C100.796 44.6467 100.69 44.2553 100.48 44.0439C100.267 43.8336 99.9123 43.7285 99.4144 43.7285C98.8055 43.7285 98.0572 43.9805 97.17 44.4881V43.4586C98.0831 43.0383 98.9785 42.8264 99.8574 42.8264C100.711 42.8264 101.302 43.0033 101.632 43.3559C101.962 43.7069 102.127 44.2397 102.127 44.9502V49.417H102.127ZM100.809 46.4695H100.137C98.7504 46.4695 98.0572 46.8861 98.0572 47.7188C98.0572 48.0115 98.1503 48.2217 98.336 48.3555C98.5223 48.4889 98.7541 48.5547 99.0336 48.5547C99.3883 48.5547 99.7297 48.4688 100.061 48.2967C100.39 48.1262 100.64 47.9289 100.809 47.7057V46.4695H100.809ZM105.443 43.1371H107.446L107.128 44.0125H105.443V47.4096C105.443 48.268 105.806 48.6969 106.532 48.6969C106.811 48.6969 107.093 48.6373 107.382 48.5168V49.3398C106.985 49.4947 106.512 49.5727 105.961 49.5727C105.328 49.5727 104.863 49.3898 104.568 49.024C104.271 48.6609 104.123 48.182 104.123 47.5885V42.2867L105.443 41.3203V43.1371H105.443Z" fill="#B6B6B6"/>
</svg>
